<svg width="188" height="60" viewBox="0 0 188 60" fill="none" xmlns="http://www.w3.org/2000/svg">
<rect x="0.5" y="0.5" width="187" height="59" rx="29.5" fill="url(#paint0_linear_2316_4704)" stroke="#00B400"/>
<path d="M68.1538 34.414L67.5098 32.552H63.6178L62.9738 34.414H60.9158L64.4298 24.628H66.7118L70.2258 34.414H68.1538ZM66.9778 30.984L65.5638 26.896L64.1498 30.984H66.9778Z" fill="#00B400"/>
<path d="M71.0353 30.508C71.0353 28.086 72.6033 26.532 74.5913 26.532C75.6133 26.532 76.5933 27.008 77.1253 27.736V24.054H79.1133V34.414H77.1253V33.266C76.6633 33.98 75.7953 34.54 74.5773 34.54C72.6033 34.54 71.0353 32.93 71.0353 30.508ZM77.1393 30.536C77.1393 29.066 76.1593 28.254 75.0813 28.254C74.0313 28.254 73.0373 29.038 73.0373 30.508C73.0373 31.978 74.0313 32.818 75.0813 32.818C76.1593 32.818 77.1393 32.006 77.1393 30.536Z" fill="#00B400"/>
<path d="M80.5235 30.508C80.5235 28.086 82.0915 26.532 84.0795 26.532C85.1015 26.532 86.0815 27.008 86.6135 27.736V24.054H88.6015V34.414H86.6135V33.266C86.1515 33.98 85.2835 34.54 84.0655 34.54C82.0915 34.54 80.5235 32.93 80.5235 30.508ZM86.6275 30.536C86.6275 29.066 85.6475 28.254 84.5695 28.254C83.5195 28.254 82.5255 29.038 82.5255 30.508C82.5255 31.978 83.5195 32.818 84.5695 32.818C85.6475 32.818 86.6275 32.006 86.6275 30.536Z" fill="#00B400"/>
<path d="M99.5218 24.628V26.224H95.8118V28.674H99.1018V30.228H95.8118V32.818H99.5218V34.414H93.8518V24.628H99.5218Z" fill="#00B400"/>
<path d="M105.587 34.414L103.991 32.006L102.577 34.414H100.477L103.011 30.522L100.449 26.658H102.661L104.243 29.052L105.671 26.658H107.771L105.223 30.522L107.799 34.414H105.587Z" fill="#00B400"/>
<path d="M108.863 34.414V26.658H110.823V34.414H108.863ZM109.857 25.734C109.157 25.734 108.653 25.23 108.653 24.586C108.653 23.942 109.157 23.438 109.857 23.438C110.543 23.438 111.061 23.942 111.061 24.586C111.061 25.23 110.543 25.734 109.857 25.734Z" fill="#00B400"/>
<path d="M113.068 32.006V28.268H112.144V26.658H113.068V24.74H115.042V26.658H116.778V28.268H115.042V32.02C115.042 32.538 115.252 32.762 115.868 32.762H116.778V34.414H115.546C114.062 34.414 113.068 33.784 113.068 32.006Z" fill="#00B400"/>
<path d="M127.922 24.628H129.882V34.414H127.922L123.484 27.708V34.414H121.524V24.628H123.484L127.922 31.348V24.628Z" fill="#00B400"/>
<path d="M139.309 30.536C139.309 32.972 137.517 34.54 135.263 34.54C133.023 34.54 131.329 32.972 131.329 30.536C131.329 28.086 133.079 26.532 135.319 26.532C137.559 26.532 139.309 28.086 139.309 30.536ZM133.317 30.536C133.317 32.076 134.213 32.832 135.263 32.832C136.299 32.832 137.293 32.076 137.293 30.536C137.293 28.982 136.327 28.24 135.291 28.24C134.255 28.24 133.317 28.982 133.317 30.536Z" fill="#00B400"/>
<path d="M140.242 30.508C140.242 28.086 141.81 26.532 143.798 26.532C144.82 26.532 145.8 27.008 146.332 27.736V24.054H148.32V34.414H146.332V33.266C145.87 33.98 145.002 34.54 143.784 34.54C141.81 34.54 140.242 32.93 140.242 30.508ZM146.346 30.536C146.346 29.066 145.366 28.254 144.288 28.254C143.238 28.254 142.244 29.038 142.244 30.508C142.244 31.978 143.238 32.818 144.288 32.818C145.366 32.818 146.346 32.006 146.346 30.536Z" fill="#00B400"/>
<path d="M153.567 28.142C152.629 28.142 151.887 28.744 151.733 29.808H155.415C155.387 28.786 154.575 28.142 153.567 28.142ZM157.249 31.978C156.829 33.406 155.541 34.54 153.623 34.54C151.369 34.54 149.731 32.972 149.731 30.536C149.731 28.086 151.327 26.532 153.623 26.532C155.863 26.532 157.445 28.058 157.445 30.368C157.445 30.62 157.431 30.872 157.389 31.124H151.719C151.817 32.272 152.601 32.916 153.581 32.916C154.421 32.916 154.883 32.496 155.135 31.978H157.249Z" fill="#00B400"/>
<path d="M44.4139 22.3276C40.0884 22.3276 36.5691 25.8469 36.5691 30.1725C36.5691 34.498 40.0884 38.0173 44.4139 38.0173C48.7395 38.0173 52.2587 34.498 52.2587 30.1725C52.2587 25.8469 48.7395 22.3276 44.4139 22.3276ZM44.4139 23.5044C48.1034 23.5044 51.082 26.4829 51.082 30.1725C51.082 33.862 48.1034 36.8406 44.4139 36.8406C40.7244 36.8406 37.7458 33.862 37.7458 30.1725C37.7458 26.4829 40.7244 23.5044 44.4139 23.5044ZM44.4044 26.2419C44.0802 26.2466 43.8208 26.5136 43.8256 26.8384V29.5841H41.0799C40.8674 29.5814 40.6706 29.6924 40.5637 29.8756C40.4561 30.0594 40.4561 30.2855 40.5637 30.4694C40.6706 30.6526 40.8674 30.7636 41.0799 30.7608H43.8256V33.5065C43.8228 33.719 43.9338 33.9158 44.117 34.0227C44.3009 34.1303 44.527 34.1303 44.7108 34.0227C44.894 33.9158 45.005 33.719 45.0023 33.5065V30.7608H47.748C47.9604 30.7636 48.1572 30.6526 48.2642 30.4694C48.3717 30.2855 48.3717 30.0594 48.2642 29.8756C48.1572 29.6924 47.9604 29.5814 47.748 29.5841H45.0023V26.8384C45.0043 26.6791 44.9424 26.5258 44.83 26.4135C44.717 26.3011 44.5637 26.2392 44.4044 26.2419Z" fill="#00B400"/>
<defs>
<linearGradient id="paint0_linear_2316_4704" x1="120.5" y1="59" x2="146.5" y2="0.999996" gradientUnits="userSpaceOnUse">
<stop stop-color="#F0F0F0"/>
<stop offset="1" stop-color="white"/>
</linearGradient>
</defs>
</svg>
