<svg width="188" height="60" viewBox="0 0 188 60" fill="none" xmlns="http://www.w3.org/2000/svg">
<rect x="0.5" y="0.5" width="187" height="59" rx="29.5" fill="url(#paint0_linear_2316_4778)" stroke="#ACACAC"/>
<g opacity="0.5">
<path d="M68.1538 35.414L67.5098 33.552H63.6178L62.9738 35.414H60.9158L64.4298 25.628H66.7118L70.2258 35.414H68.1538ZM66.9778 31.984L65.5638 27.896L64.1498 31.984H66.9778Z" fill="#4D4D4D"/>
<path d="M71.0353 31.508C71.0353 29.086 72.6033 27.532 74.5913 27.532C75.6133 27.532 76.5933 28.008 77.1253 28.736V25.054H79.1133V35.414H77.1253V34.266C76.6633 34.98 75.7953 35.54 74.5773 35.54C72.6033 35.54 71.0353 33.93 71.0353 31.508ZM77.1393 31.536C77.1393 30.066 76.1593 29.254 75.0813 29.254C74.0313 29.254 73.0373 30.038 73.0373 31.508C73.0373 32.978 74.0313 33.818 75.0813 33.818C76.1593 33.818 77.1393 33.006 77.1393 31.536Z" fill="#4D4D4D"/>
<path d="M80.5235 31.508C80.5235 29.086 82.0915 27.532 84.0795 27.532C85.1015 27.532 86.0815 28.008 86.6135 28.736V25.054H88.6015V35.414H86.6135V34.266C86.1515 34.98 85.2835 35.54 84.0655 35.54C82.0915 35.54 80.5235 33.93 80.5235 31.508ZM86.6275 31.536C86.6275 30.066 85.6475 29.254 84.5695 29.254C83.5195 29.254 82.5255 30.038 82.5255 31.508C82.5255 32.978 83.5195 33.818 84.5695 33.818C85.6475 33.818 86.6275 33.006 86.6275 31.536Z" fill="#4D4D4D"/>
<path d="M99.5218 25.628V27.224H95.8118V29.674H99.1018V31.228H95.8118V33.818H99.5218V35.414H93.8518V25.628H99.5218Z" fill="#4D4D4D"/>
<path d="M105.587 35.414L103.991 33.006L102.577 35.414H100.477L103.011 31.522L100.449 27.658H102.661L104.243 30.052L105.671 27.658H107.771L105.223 31.522L107.799 35.414H105.587Z" fill="#4D4D4D"/>
<path d="M108.863 35.414V27.658H110.823V35.414H108.863ZM109.857 26.734C109.157 26.734 108.653 26.23 108.653 25.586C108.653 24.942 109.157 24.438 109.857 24.438C110.543 24.438 111.061 24.942 111.061 25.586C111.061 26.23 110.543 26.734 109.857 26.734Z" fill="#4D4D4D"/>
<path d="M113.068 33.006V29.268H112.144V27.658H113.068V25.74H115.042V27.658H116.778V29.268H115.042V33.02C115.042 33.538 115.252 33.762 115.868 33.762H116.778V35.414H115.546C114.062 35.414 113.068 34.784 113.068 33.006Z" fill="#4D4D4D"/>
<path d="M127.922 25.628H129.882V35.414H127.922L123.484 28.708V35.414H121.524V25.628H123.484L127.922 32.348V25.628Z" fill="#4D4D4D"/>
<path d="M139.309 31.536C139.309 33.972 137.517 35.54 135.263 35.54C133.023 35.54 131.329 33.972 131.329 31.536C131.329 29.086 133.079 27.532 135.319 27.532C137.559 27.532 139.309 29.086 139.309 31.536ZM133.317 31.536C133.317 33.076 134.213 33.832 135.263 33.832C136.299 33.832 137.293 33.076 137.293 31.536C137.293 29.982 136.327 29.24 135.291 29.24C134.255 29.24 133.317 29.982 133.317 31.536Z" fill="#4D4D4D"/>
<path d="M140.242 31.508C140.242 29.086 141.81 27.532 143.798 27.532C144.82 27.532 145.8 28.008 146.332 28.736V25.054H148.32V35.414H146.332V34.266C145.87 34.98 145.002 35.54 143.784 35.54C141.81 35.54 140.242 33.93 140.242 31.508ZM146.346 31.536C146.346 30.066 145.366 29.254 144.288 29.254C143.238 29.254 142.244 30.038 142.244 31.508C142.244 32.978 143.238 33.818 144.288 33.818C145.366 33.818 146.346 33.006 146.346 31.536Z" fill="#4D4D4D"/>
<path d="M153.567 29.142C152.629 29.142 151.887 29.744 151.733 30.808H155.415C155.387 29.786 154.575 29.142 153.567 29.142ZM157.249 32.978C156.829 34.406 155.541 35.54 153.623 35.54C151.369 35.54 149.731 33.972 149.731 31.536C149.731 29.086 151.327 27.532 153.623 27.532C155.863 27.532 157.445 29.058 157.445 31.368C157.445 31.62 157.431 31.872 157.389 32.124H151.719C151.817 33.272 152.601 33.916 153.581 33.916C154.421 33.916 154.883 33.496 155.135 32.978H157.249Z" fill="#4D4D4D"/>
</g>
<g opacity="0.5">
<path d="M44.4139 22.3276C40.0884 22.3276 36.5691 25.8469 36.5691 30.1725C36.5691 34.498 40.0884 38.0173 44.4139 38.0173C48.7395 38.0173 52.2587 34.498 52.2587 30.1725C52.2587 25.8469 48.7395 22.3276 44.4139 22.3276ZM44.4139 23.5044C48.1034 23.5044 51.082 26.4829 51.082 30.1725C51.082 33.862 48.1034 36.8406 44.4139 36.8406C40.7244 36.8406 37.7458 33.862 37.7458 30.1725C37.7458 26.4829 40.7244 23.5044 44.4139 23.5044ZM44.4044 26.2419C44.0802 26.2466 43.8208 26.5136 43.8256 26.8384V29.5841H41.0799C40.8674 29.5814 40.6706 29.6924 40.5637 29.8756C40.4561 30.0594 40.4561 30.2855 40.5637 30.4694C40.6706 30.6526 40.8674 30.7636 41.0799 30.7608H43.8256V33.5065C43.8228 33.719 43.9338 33.9158 44.117 34.0227C44.3009 34.1303 44.527 34.1303 44.7108 34.0227C44.894 33.9158 45.005 33.719 45.0023 33.5065V30.7608H47.748C47.9604 30.7636 48.1572 30.6526 48.2642 30.4694C48.3717 30.2855 48.3717 30.0594 48.2642 29.8756C48.1572 29.6924 47.9604 29.5814 47.748 29.5841H45.0023V26.8384C45.0043 26.6791 44.9424 26.5258 44.83 26.4135C44.717 26.3011 44.5637 26.2392 44.4044 26.2419Z" fill="#4D4D4D"/>
</g>
<defs>
<linearGradient id="paint0_linear_2316_4778" x1="120.5" y1="59" x2="146.5" y2="0.999996" gradientUnits="userSpaceOnUse">
<stop stop-color="#F0F0F0"/>
<stop offset="1" stop-color="white"/>
</linearGradient>
</defs>
</svg>
