<svg width="19" height="20" viewBox="0 0 19 20" fill="none" xmlns="http://www.w3.org/2000/svg">
<path d="M9.41392 2.32748C5.08837 2.32748 1.56909 5.84676 1.56909 10.1723C1.56909 14.4979 5.08837 18.0171 9.41392 18.0171C13.7395 18.0171 17.2587 14.4979 17.2587 10.1723C17.2587 5.84676 13.7395 2.32748 9.41392 2.32748ZM9.41392 3.50421C13.1034 3.50421 16.082 6.48279 16.082 10.1723C16.082 13.8618 13.1034 16.8404 9.41392 16.8404C5.7244 16.8404 2.74582 13.8618 2.74582 10.1723C2.74582 6.48279 5.7244 3.50421 9.41392 3.50421ZM9.40439 6.24173C9.08024 6.24649 8.82079 6.51344 8.82556 6.83826V9.58395H6.07987C5.8674 9.58123 5.6706 9.69222 5.56369 9.87541C5.45609 10.0593 5.45609 10.2854 5.56369 10.4692C5.6706 10.6524 5.8674 10.7634 6.07987 10.7607H8.82556V13.5064C8.82283 13.7188 8.93383 13.9156 9.11701 14.0225C9.30088 14.1301 9.52696 14.1301 9.71082 14.0225C9.89401 13.9156 10.005 13.7188 10.0023 13.5064V10.7607H12.748C12.9604 10.7634 13.1572 10.6524 13.2641 10.4692C13.3717 10.2854 13.3717 10.0593 13.2641 9.87541C13.1572 9.69222 12.9604 9.58123 12.748 9.58395H10.0023V6.83826C10.0043 6.67891 9.94236 6.52569 9.83 6.41333C9.71695 6.30097 9.56373 6.239 9.40439 6.24173Z" fill="#00B400"/>
</svg>
