<svg width="27" height="27" viewBox="0 0 27 27" fill="none" xmlns="http://www.w3.org/2000/svg">
<path d="M15.0863 2.17288C14.6378 2.17288 14.2738 2.53681 14.2738 2.98538V11.652C14.2738 12.1006 14.6378 12.4645 15.0863 12.4645H23.753C24.2016 12.4645 24.5655 12.1006 24.5655 11.652C24.5655 6.42534 20.313 2.17288 15.0863 2.17288ZM11.8345 5.42288C6.12532 5.42382 1.57946 10.4972 2.46813 16.3728C3.07939 20.4128 6.32563 23.659 10.3656 24.2703C16.2411 25.1589 21.3146 20.6131 21.3155 14.9039C21.3155 14.4554 20.9516 14.0895 20.503 14.0895H13.7322C13.1341 14.0895 12.6488 13.6043 12.6488 13.0062V6.23538C12.6488 5.78681 12.283 5.42288 11.8345 5.42288Z" fill="#4D4D4D"/>
</svg>
