<svg width="26" height="26" viewBox="0 0 26 26" fill="none" xmlns="http://www.w3.org/2000/svg">
<path d="M13.0003 2.16687C7.03024 2.16687 2.16699 7.03012 2.16699 13.0002C2.16699 18.9703 7.03024 23.8335 13.0003 23.8335C18.9704 23.8335 23.8337 18.9703 23.8337 13.0002C23.8337 7.03012 18.9704 2.16687 13.0003 2.16687ZM13.0003 4.33354C17.7996 4.33354 21.667 8.2009 21.667 13.0002C21.667 17.7995 17.7996 21.6669 13.0003 21.6669C8.20103 21.6669 4.33366 17.7995 4.33366 13.0002C4.33366 8.2009 8.20103 4.33354 13.0003 4.33354ZM11.8958 8.65653C11.6142 8.66452 11.3471 8.78254 11.151 8.98425L7.99649 12.1388C7.72801 12.3433 7.57049 12.6607 7.56955 12.9983C7.56861 13.3355 7.72472 13.6538 7.99179 13.8593C7.99414 13.8607 7.99602 13.8621 7.99837 13.8635L11.151 17.0162C11.4228 17.2992 11.8262 17.413 12.2057 17.3143C12.5856 17.215 12.8818 16.9188 12.981 16.5389C13.0798 16.1595 12.966 15.756 12.6829 15.4843L11.2822 14.0835H17.3337C17.7244 14.0892 18.0879 13.8837 18.2849 13.5466C18.4819 13.209 18.4819 12.7914 18.2849 12.4538C18.0879 12.1167 17.7244 11.9112 17.3337 11.9169H11.2822L12.6829 10.5162C13.0031 10.2049 13.0995 9.72857 12.9256 9.31715C12.7516 8.90573 12.3425 8.64289 11.8958 8.65653Z" fill="#333333"/>
</svg>
