<svg width="18" height="22" viewBox="0 0 18 22" fill="none" xmlns="http://www.w3.org/2000/svg">
<path d="M8.99292 21.92C9.14409 21.92 9.29526 21.8685 9.43038 21.7913C14.6249 18.8225 17.5937 13.7308 17.999 5.47731C18.0119 5.2232 17.909 4.9691 17.7418 4.78261C17.5777 4.59602 17.3429 4.48027 17.0984 4.47381C15.2071 4.42558 12.8399 2.41204 11.2573 1.61754C10.2795 1.12871 9.63302 0.800541 9.14732 0.716981C9.09908 0.710524 9.04116 0.716981 8.99292 0.716981V4.88799C12.0997 4.88799 14.6256 7.41042 14.6256 10.5208C14.6256 13.6311 12.0997 16.1535 8.99292 16.1535V21.92Z" fill="#333333"/>
<path d="M8.18891 6.04041C7.96553 6.05929 7.71192 6.12749 7.58316 6.16154C7.1819 6.27132 6.82985 6.53638 6.49288 6.7673C6.11432 7.02472 5.57676 7.23293 5.34203 7.64554C5.2436 7.81971 5.28147 7.93712 5.34203 8.03927C5.41013 8.15669 5.47823 8.274 5.34203 8.433C5.20945 8.58828 4.99371 8.60344 5.03911 8.85705C5.11102 9.26966 5.80004 9.1637 6.06882 9.34158C6.22792 9.44764 6.37175 9.61799 6.25062 9.8262C6.11804 10.0496 5.84554 9.9625 5.64486 10.0079C5.43665 10.0571 5.34957 10.1026 5.19057 10.2503C4.84606 10.5683 4.62268 10.9506 4.64538 11.4313C4.66808 11.9576 5.01641 12.5671 5.46316 12.8549C5.68654 12.9987 5.73194 13.0101 5.88712 13.2788C6.33007 14.0284 7.25763 15.0544 8.21924 15.0052C8.40466 14.9939 7.78765 12.9041 7.76485 12.7337C7.63237 11.8175 8.79467 10.8559 8.27981 9.94733C8.05643 9.55361 7.70429 9.89812 7.3409 9.9171C7.17436 9.92463 6.71998 9.76946 6.67458 9.58394C6.58378 9.22045 7.1592 8.70187 7.49236 8.88729C7.76867 9.04257 7.60968 9.52337 7.97689 9.28101C8.47667 8.95167 8.50309 8.22478 8.64321 7.70611C8.74917 7.32002 9.15424 6.45683 8.7341 6.13131C8.62432 6.04794 8.41229 6.02152 8.18891 6.04041Z" fill="#333333"/>
<path d="M11.0661 6.40392C11.0056 6.4001 10.9715 6.46067 10.8844 6.58561C10.6686 6.89607 10.608 7.3807 10.4907 7.73656C10.3506 8.16815 10.2068 8.75864 10.5815 9.09943C11.0926 9.56889 11.6302 9.0464 12.1867 9.2508C12.8833 9.50451 11.918 9.94745 11.6415 10.1291C11.2933 10.3562 10.8239 10.7878 11.0056 11.2498C11.0775 11.4353 11.316 11.5337 11.4599 11.6435C11.6869 11.8176 11.7513 11.9463 11.8232 12.2189C11.9255 12.6126 11.9217 13.1048 11.7627 13.4909C11.5962 13.8922 11.2062 14.1345 11.0056 14.4904C11.3993 14.5509 12.5021 13.9438 13.0953 12.3098C13.3944 11.7154 13.5842 10.03 12.9742 8.55424C12.906 8.42558 12.8152 8.29682 12.7318 8.16052C12.5123 7.78949 12.2511 7.41093 11.9747 7.1308C11.774 6.92641 11.5658 6.75596 11.3387 6.58561C11.21 6.491 11.1267 6.40773 11.0661 6.40392Z" fill="#333333"/>
<path d="M9.04864 21.9185C8.94893 21.9185 8.73495 21.8865 8.58446 21.8005C5.90451 20.2689 3.91298 18.2465 2.496 15.6175C1.01865 12.8765 0.20243 9.54939 0.000968893 5.44609C-0.0102832 5.22252 0.0768961 4.98955 0.240296 4.80727C0.388237 4.63897 0.606528 4.53389 0.822274 4.52831C2.1736 4.49387 3.73716 3.49517 5.11657 2.61408C5.70647 2.23738 6.26203 1.8825 6.74108 1.64298L6.77943 1.6238C6.90066 1.56294 7.01758 1.50385 7.1302 1.4469C7.88077 1.06746 8.42312 0.793397 8.83367 0.717861L8.87624 0.713067C8.89483 0.712284 8.9142 0.712871 8.93289 0.713948C8.95745 0.715024 8.97565 0.715807 8.99287 0.715807V1.32841C8.96801 1.32841 8.9416 1.32753 8.91449 1.32645C8.58818 1.39661 8.06422 1.66128 7.40661 1.99365C7.29341 2.05089 7.1759 2.11028 7.05408 2.17144L7.01524 2.19081C6.56466 2.41615 6.02231 2.76261 5.44816 3.12933C3.99957 4.05455 2.3597 5.10188 0.838027 5.14072C0.791356 5.14199 0.736465 5.17076 0.698501 5.21401C0.642632 5.27623 0.609756 5.35451 0.612888 5.41557C0.809848 9.42611 1.60219 12.668 3.03532 15.3268C4.39633 17.852 6.31095 19.7956 8.88827 21.2685C8.91762 21.2847 9.01204 21.3053 9.04893 21.3058L9.04864 21.9185Z" fill="#333333"/>
<path d="M9.04882 16.639C5.67564 16.639 2.9314 13.8947 2.9314 10.5215C2.9314 7.14845 5.67564 4.40411 9.04882 4.40411C12.422 4.40411 15.1661 7.14845 15.1661 10.5215C15.1661 13.8947 12.422 16.639 9.04882 16.639ZM9.04882 4.88991C5.94353 4.88991 3.41709 7.41625 3.41709 10.5215C3.41709 13.6269 5.94353 16.1533 9.04882 16.1533C12.1541 16.1533 14.6804 13.6269 14.6804 10.5215C14.6804 7.41625 12.1541 4.88991 9.04882 4.88991Z" fill="#333333"/>
</svg>
