<svg width="23" height="23" viewBox="0 0 23 23" fill="none" xmlns="http://www.w3.org/2000/svg">
<path d="M11.6279 0.62793C5.56365 0.62793 0.62793 5.56366 0.62793 11.6279C0.62793 17.6922 5.56365 22.6279 11.6279 22.6279C17.6922 22.6279 22.6279 17.6922 22.6279 11.6279C22.6279 5.56366 17.6922 0.62793 11.6279 0.62793ZM11.6279 2.46126C16.7014 2.46126 20.7946 6.55446 20.7946 11.6279C20.7946 16.7014 16.7014 20.7946 11.6279 20.7946C6.55446 20.7946 2.46126 16.7014 2.46126 11.6279C2.46126 6.55446 6.55446 2.46126 11.6279 2.46126ZM8.60938 7.31315L7.31315 8.60938L10.3317 11.6279L7.31315 14.6465L8.60938 15.9427L11.6279 12.9242L14.6465 15.9427L15.9427 14.6465L12.9242 11.6279L15.9427 8.60938L14.6465 7.31315L11.6279 10.3317L8.60938 7.31315Z" fill="#333333"/>
</svg>
