<svg width="20" height="20" viewBox="0 0 20 20" fill="none" xmlns="http://www.w3.org/2000/svg">
<path d="M3.51754 10.5894C1.79523 12.3117 1.89574 15.167 3.82022 16.757C5.49841 18.1429 7.99757 17.8945 9.53669 16.3553L11.1779 14.7142C11.5032 14.3889 11.5032 13.861 11.1779 13.5357C10.8525 13.2103 10.3247 13.2103 9.99935 13.5357L8.33171 15.2033C7.37474 16.1603 5.79975 16.3012 4.79387 15.3943C3.72067 14.4286 3.68844 12.7755 4.69605 11.7679L6.46381 10.0001C6.78913 9.67481 6.78913 9.14693 6.46381 8.82161C6.1385 8.4963 5.61062 8.4963 5.2853 8.82161L3.51754 10.5894ZM8.82084 5.28608C8.49552 5.6114 8.49552 6.13927 8.82084 6.46459C9.14616 6.78991 9.67403 6.78991 9.99935 6.46459L11.667 4.79695C12.624 3.83999 14.1989 3.699 15.2048 4.6059C16.278 5.57169 16.3103 7.22475 15.3026 8.23236L13.5349 10.0001C13.2096 10.3254 13.2096 10.8533 13.5349 11.1786C13.8602 11.504 14.3881 11.504 14.7134 11.1786L16.4812 9.41087C18.2035 7.68856 18.103 4.8332 16.1785 3.24325C14.5003 1.85739 12.0011 2.10579 10.462 3.64491L8.82084 5.28608ZM7.05307 11.7679C6.72775 12.0932 6.72775 12.6211 7.05307 12.9464C7.37839 13.2717 7.90626 13.2717 8.23158 12.9464L12.9456 8.23236C13.2709 7.90704 13.2709 7.37917 12.9456 7.05385C12.6203 6.72853 12.0924 6.72853 11.7671 7.05385L7.05307 11.7679Z" fill="#333333"/>
</svg>
