<svg width="200" height="200" viewBox="0 0 200 200" fill="none" xmlns="http://www.w3.org/2000/svg">
<circle cx="100" cy="100" r="100" fill="#BEBEBE" fill-opacity="0.2"/>
<circle cx="100" cy="100" r="78.5" fill="#ACACAC" fill-opacity="0.5" style="mix-blend-mode:color-dodge"/>
<circle cx="100" cy="100" r="78.5" stroke="#00B400"/>
<path d="M100 33.9771C136.175 33.9771 165.5 63.3024 165.5 99.4771C165.5 135.652 136.175 164.977 100 164.977C63.8254 164.977 34.5 135.652 34.5 99.4771C34.5 63.3024 63.8253 33.9771 100 33.9771Z" stroke="#00DC00"/>
<path d="M86.7061 66.334C87.9916 66.1705 89.2247 66.8839 89.7148 68.0869C90.2051 69.2904 89.8259 70.6645 88.7861 71.4443L88.7832 71.4463C84.1868 75.0668 81.2266 80.6793 81.2266 87C81.2266 97.9567 90.0433 106.773 101 106.773C111.957 106.773 120.773 97.9567 120.773 87C120.773 80.8766 117.995 75.4178 113.643 71.791L113.217 71.4463C111.984 70.4581 111.784 68.6691 112.771 67.4365C113.76 66.2033 115.549 66.0027 116.782 66.9902L116.783 66.9912C122.694 71.6517 126.477 78.8986 126.477 87C126.477 101.035 115.035 112.477 101 112.477C86.9646 112.477 75.5234 101.035 75.5234 87C75.5234 78.8986 79.3058 71.6517 85.2168 66.9912L85.2207 66.9883C85.6449 66.6311 86.1569 66.4007 86.7051 66.334H86.7061ZM101 61.1484C103.129 61.1484 104.852 62.8708 104.852 65V85C104.852 87.1292 103.129 88.8516 101 88.8516C98.8708 88.8516 97.1484 87.1292 97.1484 85V65C97.1484 62.8708 98.8708 61.1484 101 61.1484Z" fill="url(#paint0_linear_2316_4694)" stroke="#00DC00" stroke-width="0.296043"/>
<path d="M71.6196 128.114C71.6196 125.188 73.7616 123.116 76.4916 123.116C78.6056 123.116 80.2856 124.18 81.0136 126.07H79.4876C78.9556 124.894 77.9196 124.236 76.4916 124.236C74.4476 124.236 72.9216 125.72 72.9216 128.114C72.9216 130.494 74.4476 131.978 76.4916 131.978C77.9196 131.978 78.9556 131.32 79.4876 130.158H81.0136C80.2856 132.034 78.6056 133.084 76.4916 133.084C73.7616 133.084 71.6196 131.04 71.6196 128.114Z" fill="#00B400"/>
<path d="M90.1901 129.15C90.1901 131.586 88.4401 133.126 86.2561 133.126C84.0861 133.126 82.4341 131.586 82.4341 129.15C82.4341 126.728 84.1421 125.202 86.3121 125.202C88.4961 125.202 90.1901 126.728 90.1901 129.15ZM83.7361 129.15C83.7361 131.096 84.9261 132.006 86.2561 132.006C87.5861 132.006 88.8881 131.096 88.8881 129.15C88.8881 127.218 87.6141 126.308 86.2981 126.308C84.9541 126.308 83.7361 127.218 83.7361 129.15Z" fill="#00B400"/>
<path d="M97.4792 133V128.66C97.4792 127.092 96.6252 126.294 95.3372 126.294C94.0352 126.294 93.1392 127.106 93.1392 128.758V133H91.8652V125.328H93.1392V126.42C93.6432 125.622 94.5672 125.188 95.6032 125.188C97.3812 125.188 98.7392 126.28 98.7392 128.478V133H97.4792Z" fill="#00B400"/>
<path d="M106.434 133V128.66C106.434 127.092 105.58 126.294 104.292 126.294C102.99 126.294 102.094 127.106 102.094 128.758V133H100.82V125.328H102.094V126.42C102.598 125.622 103.522 125.188 104.558 125.188C106.336 125.188 107.694 126.28 107.694 128.478V133H106.434Z" fill="#00B400"/>
<path d="M113.037 126.28C111.791 126.28 110.755 127.106 110.615 128.604H115.459C115.473 127.106 114.353 126.28 113.037 126.28ZM116.621 130.634C116.229 132.034 114.997 133.126 113.093 133.126C110.909 133.126 109.299 131.586 109.299 129.15C109.299 126.728 110.853 125.202 113.093 125.202C115.319 125.202 116.775 126.77 116.775 128.87C116.775 129.15 116.761 129.374 116.733 129.64H110.601C110.699 131.194 111.791 132.048 113.093 132.048C114.241 132.048 114.969 131.46 115.249 130.634H116.621Z" fill="#00B400"/>
<path d="M117.981 129.15C117.981 126.742 119.535 125.202 121.719 125.202C123.623 125.202 124.869 126.182 125.261 127.792H123.889C123.623 126.868 122.853 126.28 121.719 126.28C120.319 126.28 119.283 127.274 119.283 129.15C119.283 131.054 120.319 132.048 121.719 132.048C122.853 132.048 123.609 131.502 123.889 130.536H125.261C124.869 132.062 123.623 133.126 121.719 133.126C119.535 133.126 117.981 131.586 117.981 129.15Z" fill="#00B400"/>
<path d="M127.241 130.9V126.378H126.247V125.328H127.241V123.396H128.515V125.328H130.517V126.378H128.515V130.9C128.515 131.656 128.795 131.922 129.579 131.922H130.517V133H129.369C128.011 133 127.241 132.44 127.241 130.9Z" fill="#00B400"/>
<defs>
<linearGradient id="paint0_linear_2316_4694" x1="101" y1="61" x2="101" y2="112.625" gradientUnits="userSpaceOnUse">
<stop stop-color="#00FD00"/>
<stop offset="1" stop-color="#007700"/>
</linearGradient>
</defs>
</svg>
