<svg width="17" height="18" viewBox="0 0 17 18" fill="none" xmlns="http://www.w3.org/2000/svg">
<path d="M9.5513 17.8821C6.2292 17.8821 3.03615 16.0173 1.50459 12.8277C0.474754 10.6825 0.341928 8.26466 1.13134 6.01938C1.92076 3.77439 3.53672 1.97108 5.68224 0.941245C6.89304 0.359478 8.22565 0.0288622 9.57016 0.0671441C10.4556 0.0920852 10.7505 0.747806 9.91411 1.24402C7.25904 2.81937 6.08216 7.10896 7.37301 9.79797C8.56526 12.2799 11.9329 14.9793 15.8075 13.5612C16.3251 13.3712 16.9478 13.8961 16.4249 14.6194C15.663 15.6725 14.5636 16.4425 13.3931 17.0045C12.153 17.5996 10.8416 17.8812 9.5513 17.8821Z" fill="#333333"/>
</svg>
