<svg width="200" height="200" viewBox="0 0 200 200" fill="none" xmlns="http://www.w3.org/2000/svg">
<circle cx="100" cy="100" r="100" fill="#BEBEBE" fill-opacity="0.2"/>
<circle cx="100" cy="100" r="78.5" fill="#ACACAC" fill-opacity="0.5" style="mix-blend-mode:color-dodge"/>
<circle cx="100" cy="100" r="78.5" stroke="#F41A06"/>
<path d="M100 33.9771C136.175 33.9771 165.5 63.3024 165.5 99.4771C165.5 135.652 136.175 164.977 100 164.977C63.8254 164.977 34.5 135.652 34.5 99.4771C34.5 63.3024 63.8253 33.9771 100 33.9771Z" stroke="#F41A06"/>
<path d="M86.7461 66.6484C87.8905 66.5029 88.9862 67.1369 89.4219 68.2061C89.8581 69.2767 89.5212 70.498 88.5967 71.1914L88.5879 71.1982C83.9188 74.876 80.9111 80.578 80.9111 87C80.9111 98.1314 89.8686 107.089 101 107.089C112.131 107.089 121.089 98.1314 121.089 87C121.089 80.579 118.082 74.878 113.414 71.2002H113.415C112.318 70.3209 112.14 68.7298 113.019 67.6338C113.898 66.5365 115.489 66.3592 116.585 67.2373L116.588 67.2393C122.426 71.842 126.161 78.999 126.161 87C126.161 100.861 114.861 112.161 101 112.161C87.1392 112.161 75.8389 100.861 75.8389 87C75.8389 78.999 79.5743 71.842 85.4121 67.2393L85.418 67.2354L85.4238 67.2305C85.803 66.9111 86.2586 66.7075 86.7432 66.6484H86.7461ZM101 61.4639C102.955 61.4639 104.536 63.0455 104.536 65V85C104.536 86.9545 102.955 88.5361 101 88.5361C99.0455 88.5361 97.4639 86.9545 97.4639 85V65C97.4639 63.0455 99.0455 61.4639 101 61.4639Z" fill="url(#paint0_linear_2316_4854)" stroke="#F41A06" stroke-width="0.928571"/>
<path d="M66.4596 123.242C69.6656 123.242 71.6396 125.118 71.6396 128.142C71.6396 131.166 69.6656 133 66.4596 133H63.4216V123.242H66.4596ZM64.6956 131.95H66.4596C69.0076 131.95 70.3376 130.522 70.3376 128.142C70.3376 125.762 69.0076 124.278 66.4596 124.278H64.6956V131.95Z" fill="#F41A06"/>
<path d="M73.3201 133V125.328H74.5941V133H73.3201ZM73.9781 124.082C73.4881 124.082 73.1101 123.704 73.1101 123.214C73.1101 122.724 73.4881 122.346 73.9781 122.346C74.4401 122.346 74.8181 122.724 74.8181 123.214C74.8181 123.704 74.4401 124.082 73.9781 124.082Z" fill="#F41A06"/>
<path d="M82.2814 130.914C82.2814 132.174 81.1754 133.126 79.4814 133.126C77.6894 133.126 76.4294 132.146 76.3454 130.746H77.6614C77.7314 131.488 78.3894 132.048 79.4674 132.048C80.4754 132.048 81.0354 131.544 81.0354 130.914C81.0354 129.206 76.4994 130.2 76.4994 127.344C76.4994 126.168 77.6054 125.202 79.3134 125.202C81.0074 125.202 82.1274 126.112 82.2114 127.61H80.9374C80.8814 126.84 80.2934 126.28 79.2714 126.28C78.3334 126.28 77.7734 126.728 77.7734 127.344C77.7734 129.164 82.2254 128.17 82.2814 130.914Z" fill="#F41A06"/>
<path d="M83.6038 129.15C83.6038 126.742 85.1578 125.202 87.3418 125.202C89.2458 125.202 90.4918 126.182 90.8838 127.792H89.5118C89.2458 126.868 88.4758 126.28 87.3418 126.28C85.9418 126.28 84.9058 127.274 84.9058 129.15C84.9058 131.054 85.9418 132.048 87.3418 132.048C88.4758 132.048 89.2318 131.502 89.5118 130.536H90.8838C90.4918 132.062 89.2458 133.126 87.3418 133.126C85.1578 133.126 83.6038 131.586 83.6038 129.15Z" fill="#F41A06"/>
<path d="M99.8637 129.15C99.8637 131.586 98.1137 133.126 95.9297 133.126C93.7597 133.126 92.1077 131.586 92.1077 129.15C92.1077 126.728 93.8157 125.202 95.9857 125.202C98.1697 125.202 99.8637 126.728 99.8637 129.15ZM93.4097 129.15C93.4097 131.096 94.5997 132.006 95.9297 132.006C97.2597 132.006 98.5617 131.096 98.5617 129.15C98.5617 127.218 97.2877 126.308 95.9717 126.308C94.6277 126.308 93.4097 127.218 93.4097 129.15Z" fill="#F41A06"/>
<path d="M107.153 133V128.66C107.153 127.092 106.299 126.294 105.011 126.294C103.709 126.294 102.813 127.106 102.813 128.758V133H101.539V125.328H102.813V126.42C103.317 125.622 104.241 125.188 105.277 125.188C107.055 125.188 108.413 126.28 108.413 128.478V133H107.153Z" fill="#F41A06"/>
<path d="M116.108 133V128.66C116.108 127.092 115.254 126.294 113.966 126.294C112.664 126.294 111.768 127.106 111.768 128.758V133H110.494V125.328H111.768V126.42C112.272 125.622 113.196 125.188 114.232 125.188C116.01 125.188 117.368 126.28 117.368 128.478V133H116.108Z" fill="#F41A06"/>
<path d="M122.711 126.28C121.465 126.28 120.429 127.106 120.289 128.604H125.133C125.147 127.106 124.027 126.28 122.711 126.28ZM126.295 130.634C125.903 132.034 124.671 133.126 122.767 133.126C120.583 133.126 118.973 131.586 118.973 129.15C118.973 126.728 120.527 125.202 122.767 125.202C124.993 125.202 126.449 126.77 126.449 128.87C126.449 129.15 126.435 129.374 126.407 129.64H120.275C120.373 131.194 121.465 132.048 122.767 132.048C123.915 132.048 124.643 131.46 124.923 130.634H126.295Z" fill="#F41A06"/>
<path d="M127.655 129.15C127.655 126.742 129.209 125.202 131.393 125.202C133.297 125.202 134.543 126.182 134.935 127.792H133.563C133.297 126.868 132.527 126.28 131.393 126.28C129.993 126.28 128.957 127.274 128.957 129.15C128.957 131.054 129.993 132.048 131.393 132.048C132.527 132.048 133.283 131.502 133.563 130.536H134.935C134.543 132.062 133.297 133.126 131.393 133.126C129.209 133.126 127.655 131.586 127.655 129.15Z" fill="#F41A06"/>
<path d="M136.915 130.9V126.378H135.921V125.328H136.915V123.396H138.189V125.328H140.191V126.378H138.189V130.9C138.189 131.656 138.469 131.922 139.253 131.922H140.191V133H139.043C137.685 133 136.915 132.44 136.915 130.9Z" fill="#F41A06"/>
<defs>
<linearGradient id="paint0_linear_2316_4854" x1="101" y1="61" x2="101" y2="112.625" gradientUnits="userSpaceOnUse">
<stop stop-color="#FA3422"/>
<stop offset="1" stop-color="#7A1911"/>
</linearGradient>
</defs>
</svg>
