<svg width="22" height="22" viewBox="0 0 22 22" fill="none" xmlns="http://www.w3.org/2000/svg">
<path d="M14.4244 2.5C13.1211 2.5 11.8185 2.99401 10.8305 3.98202L9.03616 5.77639C8.75851 6.04296 8.64664 6.43912 8.74375 6.81166C8.84085 7.18456 9.13179 7.4755 9.50432 7.5726C9.87686 7.66971 10.273 7.55784 10.5396 7.27982L12.334 5.48545C13.4974 4.32243 15.3512 4.32243 16.5146 5.48545C17.6776 6.64884 17.6776 8.50265 16.5146 9.66604L14.7202 11.4604C14.4422 11.727 14.3303 12.1231 14.4274 12.4957C14.5245 12.8682 14.8154 13.1592 15.1883 13.2563C15.5609 13.3534 15.957 13.2415 16.2236 12.9638L18.018 11.1695C19.994 9.19345 19.994 5.95804 18.018 3.98202C17.03 2.99401 15.7274 2.5 14.4244 2.5ZM13.3175 7.58737C13.0417 7.59513 12.7796 7.71032 12.5865 7.90822L7.90822 12.5865C7.49249 13.0022 7.49249 13.6764 7.90785 14.0922C8.32358 14.5075 8.99776 14.5075 9.4135 14.0922L14.0922 9.4135C14.4071 9.10742 14.5016 8.63926 14.3303 8.23497C14.159 7.83105 13.7565 7.57371 13.3175 7.58737ZM6.50411 8.71716C6.22793 8.72565 5.96542 8.84122 5.77306 9.03948L3.98202 10.8305C2.00599 12.8066 2.00599 16.042 3.98202 18.018C5.95804 19.994 9.19345 19.994 11.1695 18.018L12.9624 16.2269C13.24 15.9604 13.3519 15.5642 13.2548 15.1917C13.1577 14.8188 12.8667 14.5278 12.4938 14.4307C12.1213 14.3336 11.7251 14.4455 11.4586 14.7231L9.66604 16.5146C8.50265 17.6776 6.64884 17.6776 5.48545 16.5146C4.32243 15.3512 4.32243 13.4974 5.48545 12.334L7.27687 10.5433C7.59143 10.2376 7.68632 9.76979 7.51538 9.36587C7.34443 8.96158 6.94273 8.70387 6.50411 8.71716Z" fill="url(#paint0_linear_226_256)"/>
<defs>
<linearGradient id="paint0_linear_226_256" x1="11" y1="2.5" x2="11" y2="19.5" gradientUnits="userSpaceOnUse">
<stop stop-color="#8D8D8D"/>
<stop offset="1" stop-color="#444444"/>
</linearGradient>
</defs>
</svg>
