<svg width="160" height="124" viewBox="0 0 160 124" fill="none" xmlns="http://www.w3.org/2000/svg">
<path d="M79.8871 0.726836C75.6544 0.793386 72.2736 4.26734 72.3335 8.49998V81.3333C72.2936 84.0952 73.7444 86.6707 76.1336 88.0616C78.5228 89.4592 81.4776 89.4592 83.8668 88.0616C86.256 86.6707 87.7068 84.0952 87.6669 81.3333V8.49998C87.6935 6.43025 86.8816 4.43372 85.4174 2.9696C83.9533 1.50548 81.9568 0.700216 79.8871 0.726836ZM57.1732 7.48176C56.4811 7.4751 55.7956 7.56162 55.1301 7.73465C34.1266 13.0321 15.7386 24.8582 2.23544 40.9169C-0.493152 44.158 -0.0738804 48.9962 3.16715 51.7248C6.40818 54.4467 11.2464 54.0275 13.975 50.7864C25.4484 37.1369 41.0612 27.0943 58.8703 22.6088C62.6371 21.7037 65.1394 18.1366 64.7068 14.2899C64.2742 10.4433 61.0398 7.52169 57.1732 7.48176ZM102.594 7.48841C98.7742 7.64813 95.6596 10.603 95.2869 14.4097C94.9143 18.2164 97.4099 21.7103 101.13 22.6088C118.939 27.0943 134.545 37.1369 146.025 50.7864C148.754 54.0275 153.592 54.4467 156.833 51.7248C160.074 48.9962 160.494 44.158 157.765 40.9169C144.262 24.8582 125.874 13.0321 104.87 7.73465C104.132 7.54165 103.36 7.45514 102.594 7.48841ZM56.9603 39.6259C56.0152 39.6392 55.0769 39.8322 54.1984 40.1915C42.1128 44.9366 31.6643 52.9028 23.8711 63.0052C21.2823 66.3594 21.9079 71.171 25.2621 73.7598C28.6096 76.3487 33.4279 75.7231 36.0167 72.3689C42.1394 64.4294 50.3451 58.1803 59.802 54.4734C63.2959 53.1623 65.3457 49.522 64.6402 45.8484C63.9415 42.1814 60.7004 39.5526 56.9603 39.6259ZM102.807 39.6259C99.1136 39.6658 95.9791 42.3278 95.3402 45.9682C94.7013 49.6018 96.7444 53.1756 100.198 54.4734C109.655 58.1803 117.861 64.4294 123.984 72.3689C126.573 75.7231 131.391 76.3487 134.745 73.7598C138.092 71.171 138.718 66.3594 136.129 63.0052C128.336 52.9028 117.888 44.9366 105.802 40.1915C104.85 39.8055 103.832 39.6125 102.807 39.6259ZM56.8538 75.4702C54.8573 75.5301 52.9672 76.362 51.5829 77.7928C49.1805 80.1886 47.0974 82.884 45.3671 85.8122C43.9163 88.1681 43.8497 91.1296 45.2007 93.5521C46.545 95.9745 49.0939 97.4786 51.8625 97.4919C54.6376 97.5052 57.1932 96.0211 58.5641 93.612C59.6423 91.7951 60.94 90.118 62.4174 88.634C64.6868 86.4311 65.3723 83.057 64.1344 80.1487C62.9033 77.2338 60.0083 75.377 56.8538 75.4702ZM102.927 75.4702C99.8057 75.4702 96.9906 77.3602 95.8193 80.2485C94.6414 83.1435 95.3335 86.4577 97.5696 88.634C99.0604 90.1247 100.365 91.8018 101.436 93.612C103.586 97.259 108.291 98.4702 111.938 96.3206C115.585 94.1643 116.796 89.4658 114.64 85.8188C112.91 82.8773 110.813 80.1886 108.431 77.7995C106.987 76.3087 104.997 75.4702 102.927 75.4702ZM80.0002 100.5C73.6512 100.5 68.5002 105.651 68.5002 112C68.5002 118.349 73.6512 123.5 80.0002 123.5C86.3491 123.5 91.5002 118.349 91.5002 112C91.5002 105.651 86.3491 100.5 80.0002 100.5Z" fill="#C2C2CE" fill-opacity="0.6"/>
</svg>
