<svg width="18" height="18" viewBox="0 0 18 18" fill="none" xmlns="http://www.w3.org/2000/svg">
<path d="M7.5 1.50006C4.19727 1.50006 1.5 4.19733 1.5 7.50006C1.5 10.8028 4.19727 13.5001 7.5 13.5001C8.81413 13.5001 10.028 13.0665 11.0186 12.3441L14.8841 16.21C15.1195 16.4548 15.4688 16.5534 15.7972 16.4678C16.1257 16.3822 16.3822 16.1257 16.4678 15.7973C16.5534 15.4688 16.4548 15.1195 16.21 14.8842L12.3441 11.0186C13.0664 10.0281 13.5 8.81419 13.5 7.50006C13.5 4.19733 10.8027 1.50006 7.5 1.50006ZM7.5 3.37506C9.78939 3.37506 11.625 5.21067 11.625 7.50006C11.625 9.78945 9.78939 11.6251 7.5 11.6251C5.21061 11.6251 3.375 9.78945 3.375 7.50006C3.375 5.21067 5.21061 3.37506 7.5 3.37506Z" fill="#4D4D4D"/>
</svg>
