<svg width="27" height="27" viewBox="0 0 27 27" fill="none" xmlns="http://www.w3.org/2000/svg">
<path d="M11.9541 2.75589C11.4353 2.75589 10.9917 3.12264 10.8919 3.63187L10.5301 5.48961C9.64107 5.82569 8.81869 6.29541 8.09682 6.88821L6.31525 6.27461C5.82436 6.10569 5.28446 6.30846 5.02456 6.75703L3.39109 9.58808C3.13225 10.0377 3.22641 10.6083 3.61749 10.9486L5.04571 12.1906C4.97131 12.647 4.92299 13.1117 4.92299 13.5892C4.92299 14.0667 4.97131 14.5315 5.04571 14.9878L3.61749 16.2298C3.22641 16.5702 3.13225 17.1407 3.39109 17.5904L5.02456 20.4214C5.2834 20.871 5.82436 21.0738 6.31525 20.906L8.09682 20.2924C8.81869 20.8844 9.64142 21.3528 10.5301 21.6888L10.8919 23.5466C10.9917 24.0558 11.4353 24.4226 11.9541 24.4226H15.2252C15.744 24.4226 16.1876 24.0558 16.2874 23.5466L16.6492 21.6888C17.5383 21.3528 18.3606 20.883 19.0825 20.2902L20.8641 20.9038C21.355 21.0728 21.8949 20.871 22.1548 20.4214L23.7882 17.5882C24.0471 17.1386 23.9529 16.5702 23.5618 16.2298L22.1336 14.9878C22.208 14.5315 22.2563 14.0667 22.2563 13.5892C22.2563 13.1117 22.208 12.647 22.1336 12.1906L23.5618 10.9486C23.9529 10.6083 24.0471 10.0377 23.7882 9.58808L22.1548 6.75703C21.8959 6.3074 21.355 6.10463 20.8641 6.27249L19.0825 6.8861C18.3606 6.294 17.5379 5.82569 16.6492 5.48961L16.2874 3.63187C16.1876 3.12264 15.744 2.75589 15.2252 2.75589H11.9541ZM13.5897 9.25589C15.9827 9.25589 17.923 11.1962 17.923 13.5892C17.923 15.9823 15.9827 17.9226 13.5897 17.9226C11.1966 17.9226 9.25633 15.9823 9.25633 13.5892C9.25633 11.1962 11.1966 9.25589 13.5897 9.25589Z" fill="#4D4D4D"/>
</svg>
