<svg width="18" height="18" viewBox="0 0 18 18" fill="none" xmlns="http://www.w3.org/2000/svg">
<path d="M9.00043 3.95996C4.79199 3.95996 1.44043 7.57796 1.44043 8.99996C1.44043 10.422 4.79199 14.04 9.00043 14.04C13.2089 14.04 16.5604 10.422 16.5604 8.99996C16.5604 7.57796 13.2089 3.95996 9.00043 3.95996ZM9.00043 5.75996C10.7896 5.75996 12.2404 7.21084 12.2404 8.99996C12.2404 10.7891 10.7896 12.24 9.00043 12.24C7.2113 12.24 5.76043 10.7891 5.76043 8.99996C5.76043 7.21084 7.2113 5.75996 9.00043 5.75996ZM9.00043 7.91996C8.40287 7.91996 7.92043 8.4024 7.92043 8.99996C7.92043 9.59752 8.40287 10.08 9.00043 10.08C9.59799 10.08 10.0804 9.59752 10.0804 8.99996C10.0804 8.4024 9.59799 7.91996 9.00043 7.91996Z" fill="#4D4D4D"/>
</svg>
