<svg xmlns="http://www.w3.org/2000/svg" xmlns:xlink="http://www.w3.org/1999/xlink" width="292.671" height="51" viewBox="0 0 292.671 51">
  <defs>
    <clipPath id="clip-path">
      <rect id="Rectangle_6" data-name="Rectangle 6" width="43.288" height="51" fill="none"/>
    </clipPath>
  </defs>
  <g id="belnet_logo" transform="translate(-69.017 -113.428)">
    <g id="Group_220" data-name="Group 220" transform="translate(69.017 113.428)">
      <g id="Group_219" data-name="Group 219" clip-path="url(#clip-path)">
        <path id="Path_10" data-name="Path 10" d="M91.909,51.01a2.156,2.156,0,0,0,1.052-.309c12.492-7.14,19.632-19.384,20.606-39.233a2.373,2.373,0,0,0-.619-1.671,2.159,2.159,0,0,0-1.547-.743C106.853,8.938,101.16,4.1,97.355,2.185A22.646,22.646,0,0,0,92.28.02a2.962,2.962,0,0,0-.371,0V10.05a13.546,13.546,0,0,1,0,27.092Z" transform="translate(-70.283 -0.01)" fill="#00d200"/>
        <path id="Path_11" data-name="Path 11" d="M55.986,54.4a9.057,9.057,0,0,0-1.457.291,9.157,9.157,0,0,0-2.622,1.457c-.91.619-2.2,1.12-2.768,2.112a.841.841,0,0,0,0,.947c.164.282.328.564,0,.947s-.838.41-.728,1.02c.173.992,1.83.737,2.476,1.165.383.255.728.665.437,1.165-.319.537-.974.328-1.457.437a1.981,1.981,0,0,0-1.093.583,3.559,3.559,0,0,0-1.311,2.84,4.66,4.66,0,0,0,1.967,3.423,2.167,2.167,0,0,1,1.02,1.02c1.065,1.8,3.3,4.27,5.608,4.152.446-.027-1.038-5.053-1.093-5.463-.319-2.2,2.477-4.516,1.238-6.7-.537-.947-1.384-.118-2.258-.073-.4.018-1.493-.355-1.6-.8-.218-.874,1.165-2.121,1.967-1.675.664.373.282,1.53,1.165.947,1.2-.792,1.265-2.54,1.6-3.787.255-.928,1.229-3,.219-3.787a2.07,2.07,0,0,0-1.311-.219" transform="translate(-36.293 -41.592)" fill="#2676f9"/>
        <path id="Path_12" data-name="Path 12" d="M107.444,58.163c-.146-.009-.228.136-.437.437a11.039,11.039,0,0,0-.947,2.768c-.337,1.038-.683,2.458.218,3.278,1.229,1.129,2.522-.128,3.86.364,1.675.61-.646,1.675-1.311,2.112-.837.546-1.966,1.584-1.529,2.695.173.446.747.683,1.093.947a2.1,2.1,0,0,1,.874,1.384,5.092,5.092,0,0,1-.146,3.059c-.4.965-1.338,1.548-1.821,2.4.947.146,3.6-1.314,5.026-5.244.719-1.429,1.176-5.483-.291-9.032-.164-.309-.382-.619-.583-.947A11.18,11.18,0,0,0,108.1,58.6c-.31-.228-.51-.428-.656-.437" transform="translate(-80.831 -44.477)" fill="#2676f9"/>
        <path id="Path_13" data-name="Path 13" d="M21.761,51a2.6,2.6,0,0,1-1.116-.284A36.9,36.9,0,0,1,6,35.843C2.45,29.251.487,21.25,0,11.382A2.174,2.174,0,0,1,.578,9.846a1.976,1.976,0,0,1,1.4-.671c3.25-.083,7.01-2.485,10.327-4.6,1.419-.906,2.755-1.759,3.907-2.335L16.3,2.19l.844-.425a18.392,18.392,0,0,1,4.1-1.753l.1-.012c.045,0,.091,0,.136,0s.1,0,.144,0V1.48c-.06,0-.123,0-.188,0h0a19.948,19.948,0,0,0-3.626,1.6l-.848.428-.093.047C15.787,4.1,14.483,4.929,13.1,5.811,9.619,8.036,5.675,10.555,2.015,10.648a.5.5,0,0,0-.336.176.734.734,0,0,0-.206.485C1.948,20.954,3.853,28.75,7.3,35.144A35.465,35.465,0,0,0,21.375,49.433a1.286,1.286,0,0,0,.386.09Z" transform="translate(0 0.001)" fill="#00d200"/>
        <path id="Path_14" data-name="Path 14" d="M44.673,67.148A14.712,14.712,0,1,1,59.384,52.437,14.728,14.728,0,0,1,44.673,67.148m0-28.255A13.543,13.543,0,1,0,58.216,52.437,13.559,13.559,0,0,0,44.673,38.893" transform="translate(-22.911 -28.848)" fill="#00d200"/>
      </g>
    </g>
    <path id="BELNET" d="M10.584-6.258V0H1.932V-29.316a1.1,1.1,0,0,1,1.218-1.26H28.266q4.284,0,6.174,1.911a7.346,7.346,0,0,1,1.89,5.4v2.688a5.29,5.29,0,0,1-.756,2.982,6.663,6.663,0,0,1-1.722,1.806,5.786,5.786,0,0,1,2.226,1.974,5.637,5.637,0,0,1,.882,3.234V-7.9a8.477,8.477,0,0,1-1.827,5.88Q33.306,0,28.854,0H13.272L10.878-6.258Zm0-6.678v5.754H25.62a2.213,2.213,0,0,0,1.659-.546,2.7,2.7,0,0,0,.525-1.89V-10.5a2.866,2.866,0,0,0-.483-1.89,2.193,2.193,0,0,0-1.7-.546ZM11.3-23.772a.631.631,0,0,0-.714.714v5.166H25.116a2.945,2.945,0,0,0,2.016-.546,2.5,2.5,0,0,0,.588-1.89v-.924a2.648,2.648,0,0,0-.588-1.953,2.868,2.868,0,0,0-2.016-.567Zm37.674,6.09h-.294v9.156a.52.52,0,0,0,.588.588H75.054V0H41.244a1.1,1.1,0,0,1-1.218-1.26V-29.316a1.1,1.1,0,0,1,1.218-1.26H74.088a1.114,1.114,0,0,1,1.26,1.26v7.938L67.326-18.4H66.99V-22.47q0-.462-.42-.462H49.224a.46.46,0,0,0-.441.189.81.81,0,0,0-.1.4v3.822h14.28v6.216H50.988ZM87.444-30.576V-8.988a1.16,1.16,0,0,0,.21.756,1.007,1.007,0,0,0,.8.252h23.94V0H81.018A2.125,2.125,0,0,1,79.3-.609a2.667,2.667,0,0,1-.5-1.743V-30.576Z" transform="translate(126.678 154.428)" fill="#20d125"/>
    <path id="BELNET-2" data-name="BELNET" d="M15.96-30.576a2.376,2.376,0,0,1,1.365.294,2.705,2.705,0,0,1,.735.924L29.652-7.392a.893.893,0,0,0,.8.5h.462a.594.594,0,0,0,.672-.672V-30.576h7.854V-1.218A1.058,1.058,0,0,1,38.262,0H25.83a2.734,2.734,0,0,1-1.323-.252,2.322,2.322,0,0,1-.819-.966L11.676-23.142a.837.837,0,0,0-.8-.5h-.42a.594.594,0,0,0-.672.672V0H1.932V-29.316q0-1.26,1.176-1.26ZM52.248-17.682h-.294v9.156a.52.52,0,0,0,.588.588H78.33V0H44.52A1.1,1.1,0,0,1,43.3-1.26V-29.316a1.1,1.1,0,0,1,1.218-1.26H77.364a1.114,1.114,0,0,1,1.26,1.26v7.938L70.6-18.4h-.336V-22.47q0-.462-.42-.462H52.5a.46.46,0,0,0-.441.189.81.81,0,0,0-.1.4v3.822h14.28v6.216H54.264Zm52.164-5.25V0H95.76V-22.932H83.076L80.262-30.24v-.336h40.53a1.1,1.1,0,0,1,1.218,1.26v7.938L113.988-18.4h-.336V-22.47a.408.408,0,0,0-.462-.462Z" transform="translate(239.678 154.428)" fill="#0094ff"/>
  </g>
</svg>
