<svg xmlns="http://www.w3.org/2000/svg" width="18" height="18" viewBox="0 0 18 18">
  <g id="check" transform="translate(-144 -555)">
    <rect id="Rectangle_10" data-name="Rectangle 10" width="18" height="18" rx="6" transform="translate(144 555)" fill="#23dc27"/>
    <path id="icons8-done" d="M12.828,4.029l-.9-.61a.545.545,0,0,0-.755.143l-4.4,6.492L4.749,8.03a.543.543,0,0,0-.767,0L3.213,8.8a.546.546,0,0,0,0,.769l3.111,3.111a1.055,1.055,0,0,0,.695.307.836.836,0,0,0,.655-.387l5.3-7.817A.542.542,0,0,0,12.828,4.029Z" transform="translate(144.933 555.489)" fill="#fff"/>
  </g>
</svg>
