<svg xmlns="http://www.w3.org/2000/svg" width="10.35" height="10.348" viewBox="0 0 10.35 10.348">
  <g id="clear_x" transform="translate(0.5 0.5)" fill="#e91717">
    <path d="M 8.76685905456543 9.597735404968262 L 8.758369445800781 9.597695350646973 C 8.646909713745117 9.596555709838867 8.538518905639648 9.573565483093262 8.436209678649902 9.529335975646973 C 8.334848403930664 9.485535621643066 8.244573593139648 9.423099517822266 8.167835235595703 9.343761444091797 L 4.675119400024414 5.851045608520508 L 1.182402968406677 9.343761444091797 C 1.105665564537048 9.423099517822266 1.015390157699585 9.485535621643066 0.9140293598175049 9.529335975646973 C 0.8117193579673767 9.573565483093262 0.70332932472229 9.596555709838867 0.5918693542480469 9.597695350646973 L 0.5833893418312073 9.597735404968262 C 0.4748393297195435 9.597735404968262 0.3688593208789825 9.576935768127441 0.2683793306350708 9.535905838012695 C 0.1651793271303177 9.493765830993652 0.07289933413267136 9.432435989379883 -0.005900669377297163 9.353645324707031 C -0.0847206711769104 9.274815559387207 -0.1460406631231308 9.182535171508789 -0.1881706714630127 9.07933521270752 C -0.2302906662225723 8.97618579864502 -0.2510806620121002 8.867345809936523 -0.2499506622552872 8.755875587463379 C -0.248810663819313 8.644425392150879 -0.2258206754922867 8.536035537719727 -0.1816006749868393 8.4337158203125 C -0.1377909183502197 8.332345008850098 -0.07535460591316223 8.242069244384766 0.003982979338616133 8.165331840515137 L 3.496699333190918 4.672615528106689 L 0.002579330699518323 1.178495526313782 C -0.1142306700348854 1.064835548400879 -0.195290669798851 0.9174255728721619 -0.2294206768274307 0.7545955777168274 C -0.2635506689548492 0.5917455554008484 -0.2485006749629974 0.4242055416107178 -0.1859006732702255 0.2700555622577667 C -0.1232806667685509 0.1158855557441711 -0.01725067012012005 -0.01471444498747587 0.1207593306899071 -0.1076344475150108 C 0.2587493360042572 -0.200564444065094 0.4196393191814423 -0.2497044503688812 0.5860293507575989 -0.2497444450855255 C 0.6980893015861511 -0.2497444450855255 0.8071693181991577 -0.2276444435119629 0.9103293418884277 -0.1840644478797913 C 1.013419389724731 -0.1405444443225861 1.105319380760193 -0.07775444537401199 1.183419346809387 0.002525555202737451 L 4.675118446350098 3.494186401367188 L 8.169239044189453 6.55552648822777e-05 C 8.318469047546387 -0.1535544395446777 8.521919250488281 -0.24315445125103 8.739609718322754 -0.2496444433927536 C 8.747889518737793 -0.2498844414949417 8.756089210510254 -0.2500044405460358 8.764279365539551 -0.2500044405460358 C 8.924129486083984 -0.2500044405460358 9.07974910736084 -0.2043744474649429 9.214309692382812 -0.1180344447493553 C 9.356239318847656 -0.02697444520890713 9.466009140014648 0.1032455563545227 9.531749725341797 0.2585555613040924 C 9.597478866577148 0.4138655662536621 9.61454963684082 0.5833255648612976 9.581109046936035 0.7486255764961243 C 9.547658920288086 0.9139255285263062 9.466069221496582 1.063425540924072 9.345139503479004 1.180975556373596 L 5.853548049926758 4.672605037689209 L 9.34622859954834 8.165294647216797 C 9.425599098205566 8.242038726806641 9.488034248352051 8.332322120666504 9.531848907470703 8.4337158203125 C 9.576068878173828 8.536015510559082 9.599059104919434 8.644405364990234 9.600199699401855 8.755865097045898 C 9.601329803466797 8.867325782775879 9.580539703369141 8.976165771484375 9.538409233093262 9.079355239868164 C 9.496269226074219 9.182565689086914 9.434939384460449 9.274845123291016 9.356149673461914 9.353645324707031 C 9.277318954467773 9.432465553283691 9.185039520263672 9.493785858154297 9.081839561462402 9.535915374755859 C 8.981399536132812 9.576925277709961 8.875409126281738 9.597735404968262 8.76685905456543 9.597735404968262 Z" stroke="none"/>
    <path d="M 8.764279365539551 -8.58306884765625e-06 C 8.758544921875 -8.58306884765625e-06 8.752803802490234 7.62939453125e-05 8.747058868408203 0.0002450942993164062 C 8.59550952911377 0.004765510559082031 8.451669692993164 0.06810569763183594 8.346019744873047 0.1768455505371094 L 4.675119400024414 3.847745418548584 L 1.004219055175781 0.1768455505371094 C 0.949859619140625 0.1209659576416016 0.8848495483398438 0.07654571533203125 0.8130292892456055 0.04621601104736328 L 0.8130292892456055 0.04622554779052734 C 0.6343259811401367 -0.02927780151367188 0.4213151931762695 -0.008627891540527344 0.2603893280029297 0.09973526000976562 C 0.1641397476196289 0.164546012878418 0.08939933776855469 0.2565956115722656 0.04572963714599609 0.3641157150268555 C 0.002069473266601562 0.4716358184814453 -0.008541107177734375 0.5897254943847656 0.01525974273681641 0.7033052444458008 C 0.03906917572021484 0.8168859481811523 0.09619903564453125 0.9207754135131836 0.1793594360351562 1.001715660095215 L 3.850259304046631 4.672615528106689 L 0.1793594360351562 8.343515396118164 C 0.1233797073364258 8.397265434265137 0.07867908477783203 8.461645126342773 0.04788970947265625 8.532885551452637 C 0.01709938049316406 8.604135513305664 0.0008296966552734375 8.680795669555664 3.910064697265625e-05 8.758405685424805 C -0.0007505416870117188 8.836015701293945 0.01394939422607422 8.913005828857422 0.0432891845703125 8.984855651855469 C 0.07261943817138672 9.056695938110352 0.1159992218017578 9.121975898742676 0.1708793640136719 9.176865577697754 C 0.2257595062255859 9.231745719909668 0.2910394668579102 9.275115966796875 0.362889289855957 9.304455757141113 C 0.4347391128540039 9.333795547485352 0.511688232421875 9.348495483398438 0.589329719543457 9.347705841064453 C 0.6669397354125977 9.346915245056152 0.7436094284057617 9.330645561218262 0.8148488998413086 9.29985523223877 C 0.8860893249511719 9.269065856933594 0.9504690170288086 9.224365234375 1.004219055175781 9.16838550567627 L 4.675119400024414 5.497485637664795 L 8.346019744873047 9.16838550567627 C 8.399768829345703 9.224365234375 8.464149475097656 9.269065856933594 8.535388946533203 9.29985523223877 C 8.608450889587402 9.331433296203613 8.687290191650391 9.347735404968262 8.766849517822266 9.347735404968262 C 8.842440605163574 9.347735404968262 8.917346954345703 9.33304500579834 8.987359046936035 9.304455757141113 C 9.059208869934082 9.275125503540039 9.124489784240723 9.231745719909668 9.17936897277832 9.176865577697754 C 9.234249114990234 9.121975898742676 9.277619361877441 9.056695938110352 9.30695915222168 8.984855651855469 C 9.336298942565918 8.912985801696777 9.350998878479004 8.836015701293945 9.35020923614502 8.758405685424805 C 9.349419593811035 8.680795669555664 9.333148956298828 8.6041259765625 9.302359580993652 8.532885551452637 C 9.27156925201416 8.461635589599609 9.226879119873047 8.397255897521973 9.170888900756836 8.343505859375 L 5.49998950958252 4.672605514526367 L 9.170888900756836 1.001705169677734 C 9.255188941955566 0.9197654724121094 9.312759399414062 0.8142757415771484 9.336069107055664 0.6990556716918945 C 9.359379768371582 0.5838356018066406 9.347339630126953 0.4642658233642578 9.301519393920898 0.3560056686401367 C 9.255699157714844 0.2477560043334961 9.178249359130859 0.1558551788330078 9.079309463500977 0.09237575531005859 C 8.985206604003906 0.03199863433837891 8.87584400177002 -8.58306884765625e-06 8.764279365539551 -8.58306884765625e-06 M 8.764279365539551 -0.500004768371582 C 8.972108840942383 -0.500004768371582 9.174419403076172 -0.4406843185424805 9.349328994750977 -0.3284444808959961 C 9.533819198608398 -0.2100744247436523 9.676508903503418 -0.04078483581542969 9.761969566345215 0.1611051559448242 C 9.847429275512695 0.3630151748657227 9.869609832763672 0.5833158493041992 9.826139450073242 0.7982053756713867 C 9.782895088195801 1.011970520019531 9.677695274353027 1.20542049407959 9.521828651428223 1.357866287231445 L 6.207089424133301 4.672605514526367 L 9.521493911743164 7.98701000213623 C 9.623964309692383 8.086456298828125 9.704648971557617 8.203356742858887 9.76133918762207 8.334545135498047 C 9.818809509277344 8.467525482177734 9.848709106445312 8.60843563079834 9.850179672241211 8.753315925598145 C 9.851659774780273 8.898195266723633 9.824639320373535 9.039685249328613 9.769868850708008 9.173835754394531 C 9.715069770812988 9.308015823364258 9.635369300842285 9.427955627441406 9.532958984375 9.530385971069336 C 9.430459022521973 9.632885932922363 9.310479164123535 9.712605476379395 9.176329612731934 9.767375946044922 C 9.045769691467285 9.820685386657715 8.907979011535645 9.847735404968262 8.766849517822266 9.847735404968262 L 8.755859375 9.847675323486328 C 8.610939025878906 9.846205711364746 8.470029830932617 9.816305160522461 8.337018966674805 9.758825302124023 C 8.205750465393066 9.702089309692383 8.088777542114258 9.621329307556152 7.989267349243164 9.518733024597168 L 4.675119400024414 6.204585552215576 L 1.360971450805664 9.518733024597168 C 1.26146125793457 9.621329307556152 1.144488334655762 9.702089309692383 1.013218879699707 9.758825302124023 C 0.8802089691162109 9.816305160522461 0.7392997741699219 9.846205711364746 0.5944194793701172 9.847675323486328 L 0.5833892822265625 9.847735404968262 C 0.4422893524169922 9.847735404968262 0.304509162902832 9.820695877075195 0.1738796234130859 9.767355918884277 C 0.03971958160400391 9.712565422058105 -0.08024024963378906 9.632855415344238 -0.1826705932617188 9.530415534973145 C -0.2851505279541016 9.427925109863281 -0.3648605346679688 9.307965278625488 -0.4196205139160156 9.173845291137695 C -0.4743804931640625 9.039735794067383 -0.5014104843139648 8.898235321044922 -0.4999303817749023 8.753315925598145 C -0.4984607696533203 8.608445167541504 -0.4685707092285156 8.467555999755859 -0.4110908508300781 8.334545135498047 C -0.354344367980957 8.2032470703125 -0.2735843658447266 8.086273193359375 -0.1709880828857422 7.986763477325439 L 3.14315938949585 4.672615528106689 L -0.1719770431518555 1.357479572296143 C -0.3255319595336914 1.207032203674316 -0.4299802780151367 1.016377449035645 -0.4741010665893555 0.8058958053588867 C -0.5184707641601562 0.5941858291625977 -0.4989004135131836 0.3763856887817383 -0.4175310134887695 0.1760053634643555 C -0.3361310958862305 -0.02443408966064453 -0.1982803344726562 -0.1942043304443359 -0.01888084411621094 -0.3150043487548828 C 0.1605091094970703 -0.4358043670654297 0.3696689605712891 -0.4996843338012695 0.5859594345092773 -0.4997444152832031 C 0.731689453125 -0.4997444152832031 0.8735189437866211 -0.4710140228271484 1.00762939453125 -0.4143543243408203 C 1.140538215637207 -0.3582468032836914 1.259182929992676 -0.2774629592895508 1.360176086425781 -0.1742973327636719 L 4.675119400024414 3.140645503997803 L 7.990187168121338 -0.1744222640991211 C 8.18715763092041 -0.3757076263427734 8.450499534606934 -0.4911336898803711 8.732149124145508 -0.4995346069335938 C 8.742929458618164 -0.4998540878295898 8.753619194030762 -0.500004768371582 8.764279365539551 -0.500004768371582 Z" stroke="none" fill="#e91717"/>
  </g>
</svg>
