<svg xmlns="http://www.w3.org/2000/svg" width="22.744" height="22.744" viewBox="0 0 22.744 22.744">
  <path id="Close_about" d="M15.372,4A11.372,11.372,0,1,0,26.744,15.372,11.385,11.385,0,0,0,15.372,4Zm0,1.706a9.666,9.666,0,1,1-9.666,9.666A9.653,9.653,0,0,1,15.372,5.706Zm3.688,5.105a.853.853,0,0,0-.6.262l-3.093,3.093-3.093-3.093a.853.853,0,1,0-1.206,1.206l3.093,3.093-3.093,3.093a.853.853,0,1,0,1.206,1.206l3.093-3.093,3.093,3.093a.853.853,0,1,0,1.206-1.206l-3.093-3.093,3.093-3.093a.853.853,0,0,0-.611-1.468Z" transform="translate(-4 -4)" fill="#222"/>
</svg>
