<svg xmlns="http://www.w3.org/2000/svg" width="12.067" height="12.067" viewBox="0 0 12.067 12.067">
  <g id="copy" transform="translate(0.2 0.2)" fill="#00dc00">
    <path d="M 10.5 11.76667022705078 L 3.499999761581421 11.76667022705078 C 2.801559686660767 11.76667022705078 2.233329772949219 11.19844055175781 2.233329772949219 10.5 L 2.233329772949219 3.500000238418579 C 2.233329772949219 2.801560163497925 2.801559686660767 2.233330249786377 3.499999761581421 2.233330249786377 L 10.5 2.233330249786377 C 11.1984395980835 2.233330249786377 11.76666927337646 2.801560163497925 11.76666927337646 3.500000238418579 L 11.76666927337646 10.5 C 11.76666927337646 11.19844055175781 11.1984395980835 11.76667022705078 10.5 11.76667022705078 Z M 3.599999666213989 10.40000057220459 L 10.39999961853027 10.40000057220459 L 10.39999961853027 3.600000143051147 L 3.599999666213989 3.600000143051147 L 3.599999666213989 10.40000057220459 Z M 0.5833396911621094 9.433320045471191 C 0.2065496891736984 9.433320045471191 -0.09999030828475952 9.12678050994873 -0.09999030828475952 8.749990463256836 L -0.09999030828475952 1.166660189628601 C -0.09999030828475952 0.4682201445102692 0.4682396948337555 -0.1000098437070847 1.166679739952087 -0.1000098437070847 L 8.75 -0.09999984502792358 C 9.126790046691895 -0.09999984502792358 9.433329582214355 0.2065401524305344 9.433329582214355 0.5833301544189453 C 9.433329582214355 0.9601201415061951 9.126790046691895 1.266660213470459 8.75 1.266660213470459 L 1.266669750213623 1.266660213470459 L 1.266669750213623 8.749990463256836 C 1.266669750213623 9.12678050994873 0.9601296782493591 9.433320045471191 0.5833396911621094 9.433320045471191 Z" stroke="none"/>
    <path d="M 1.166679382324219 -9.5367431640625e-06 C 0.522089958190918 -9.5367431640625e-06 9.5367431640625e-06 0.5220804214477539 9.5367431640625e-06 1.166660308837891 L 9.5367431640625e-06 8.749990463256836 C 9.5367431640625e-06 9.071990013122559 0.2613401412963867 9.333320617675781 0.5833396911621094 9.333320617675781 C 0.905339241027832 9.333320617675781 1.166669845581055 9.071990013122559 1.166669845581055 8.749990463256836 L 1.166669845581055 1.166660308837891 L 8.75 1.166660308837891 C 9.071999549865723 1.166660308837891 9.333330154418945 0.905329704284668 9.333330154418945 0.5833301544189453 C 9.333330154418945 0.2613306045532227 9.071999549865723 0 8.75 0 L 1.166679382324219 -9.5367431640625e-06 M 3.5 2.333330154418945 C 2.855409622192383 2.333330154418945 2.333330154418945 2.855420112609863 2.333330154418945 3.5 L 2.333330154418945 10.5 C 2.333330154418945 11.14459037780762 2.855420112609863 11.66666984558105 3.5 11.66666984558105 L 10.5 11.66666984558105 C 11.1445894241333 11.66666984558105 11.66666984558105 11.14457988739014 11.66666984558105 10.5 L 11.66666984558105 3.5 C 11.66666984558105 2.855410575866699 11.14457988739014 2.333330154418945 10.5 2.333330154418945 L 3.5 2.333330154418945 M 10.5 10.5 L 3.5 10.5 L 3.5 3.5 L 10.5 3.5 L 10.5 10.5 M 1.166679382324219 -0.2000102996826172 L 8.75 -0.1999998092651367 C 9.181929588317871 -0.1999998092651367 9.533329963684082 0.1514005661010742 9.533329963684082 0.5833301544189453 C 9.533329963684082 1.015259742736816 9.181929588317871 1.366660118103027 8.75 1.366660118103027 L 1.366669654846191 1.366660118103027 L 1.366669654846191 8.749990463256836 C 1.366669654846191 9.181920051574707 1.01526927947998 9.533320426940918 0.5833396911621094 9.533320426940918 C 0.1514101028442383 9.533320426940918 -0.1999902725219727 9.181920051574707 -0.1999902725219727 8.749990463256836 L -0.1999902725219727 1.166660308837891 C -0.1999902725219727 0.4130802154541016 0.4130992889404297 -0.2000102996826172 1.166679382324219 -0.2000102996826172 Z M 3.5 2.133330345153809 L 10.5 2.133330345153809 C 11.25358009338379 2.133330345153809 11.86666965484619 2.746419906616211 11.86666965484619 3.5 L 11.86666965484619 10.5 C 11.86666965484619 11.25358009338379 11.25358009338379 11.86667060852051 10.5 11.86667060852051 L 3.5 11.86667060852051 C 2.746419906616211 11.86667060852051 2.133329391479492 11.25358009338379 2.133329391479492 10.5 L 2.133329391479492 3.5 C 2.133329391479492 2.746419906616211 2.746419906616211 2.133330345153809 3.5 2.133330345153809 Z M 10.29999923706055 3.700000286102295 L 3.699999809265137 3.700000286102295 L 3.699999809265137 10.30000019073486 L 10.29999923706055 10.30000019073486 L 10.29999923706055 3.700000286102295 Z" stroke="none" fill="#00dc00"/>
  </g>
</svg>
