<?xml version="1.0" encoding="utf-8"?>
<svg xmlns="http://www.w3.org/2000/svg" viewBox="0 0 50 50" fill="#ffffff"><path d="M 25 7 C 15.941 7 7.34025 10.471438 0.78125 16.773438 L 0.060546875 17.464844 L 5.5957031 23.230469 L 6.3183594 22.539062 C 11.379359 17.678062 18.014 15 25 15 C 31.986 15 38.620641 17.678062 43.681641 22.539062 L 44.404297 23.230469 L 49.941406 17.464844 L 49.220703 16.771484 C 42.660703 10.470484 34.059 7 25 7 z M 25 19 C 19.048 19 13.395984 21.280875 9.0839844 25.421875 L 8.3632812 26.113281 L 13.921875 31.904297 L 14.644531 31.210938 C 17.466531 28.494938 21.145 27 25 27 C 28.837625 27 32.499449 28.482985 35.316406 31.175781 C 34.121492 31.814667 33.070629 32.689282 32.224609 33.736328 C 30.214141 31.975068 27.672489 31 25 31 C 22.157 31 19.454625 32.091266 17.390625 34.072266 L 16.669922 34.765625 L 25 43.443359 L 30.197266 38.029297 C 30.068334 38.667334 30 39.325419 30 40 C 30 45.5 34.5 50 40 50 C 45.5 50 50 45.5 50 40 C 50 34.5 45.5 30 40 30 C 39.177766 30 38.383029 30.111331 37.617188 30.300781 L 41.636719 26.113281 L 40.916016 25.421875 C 36.604016 21.280875 30.952 19 25 19 z M 40 32 C 44.4 32 48 35.6 48 40 C 48 44.4 44.4 48 40 48 C 35.6 48 32 44.4 32 40 C 32 35.6 35.6 32 40 32 z M 36.5 35.5 C 36.25 35.5 36.000781 35.600781 35.800781 35.800781 C 35.400781 36.200781 35.400781 36.799219 35.800781 37.199219 L 38.599609 40 L 35.800781 42.800781 C 35.400781 43.200781 35.400781 43.799219 35.800781 44.199219 C 36.000781 44.399219 36.3 44.5 36.5 44.5 C 36.7 44.5 36.999219 44.399219 37.199219 44.199219 L 40 41.400391 L 42.800781 44.199219 C 43.000781 44.399219 43.3 44.5 43.5 44.5 C 43.7 44.5 43.999219 44.399219 44.199219 44.199219 C 44.599219 43.799219 44.599219 43.200781 44.199219 42.800781 L 41.400391 40 L 44.199219 37.199219 C 44.599219 36.799219 44.599219 36.200781 44.199219 35.800781 C 43.799219 35.400781 43.200781 35.400781 42.800781 35.800781 L 40 38.599609 L 37.199219 35.800781 C 36.999219 35.600781 36.75 35.5 36.5 35.5 z" fill="#ffffff"/></svg>
