<svg xmlns="http://www.w3.org/2000/svg" width="17.337" height="16.032" viewBox="0 0 17.337 16.032">
  <path id="icons8-error" d="M12.42,5.053a1.873,1.873,0,0,0-1.66.957L4.252,17.766a1.919,1.919,0,0,0,1.66,2.819H18.929a1.919,1.919,0,0,0,1.66-2.819L14.08,6.009A1.873,1.873,0,0,0,12.42,5.053Zm0,1.218a.637.637,0,0,1,.557.35l6.509,11.757a.62.62,0,0,1-.557.947H5.912a.62.62,0,0,1-.557-.947L11.863,6.62A.637.637,0,0,1,12.42,6.27Zm-.01,3.375a.631.631,0,0,0-.621.64v4.2a.631.631,0,1,0,1.261,0v-4.2a.631.631,0,0,0-.64-.64Zm.01,6.735a.841.841,0,1,0,.841.841A.841.841,0,0,0,12.42,16.381Z" transform="translate(-3.752 -4.803)" fill="#fff" stroke="#fff" stroke-width="0.5"/>
</svg>
