<svg xmlns="http://www.w3.org/2000/svg" xmlns:xlink="http://www.w3.org/1999/xlink" preserveAspectRatio="xMidYMid meet" width="214" height="214" viewBox="0 0 214 214" style="width:100%;height:100%"><defs><animateTransform repeatCount="indefinite" dur="2s" begin="0s" xlink:href="#_R_G_L_0_G" fill="freeze" attributeName="transform" from="0" to="360" type="rotate" additive="sum" keyTimes="0;1" values="0;360" keySplines="0.167 0.167 0.833 0.833" calcMode="spline"/><animateTransform repeatCount="indefinite" dur="2s" begin="0s" xlink:href="#_R_G_L_0_G" fill="freeze" attributeName="transform" from="0.491 0.478" to="0.491 0.478" type="translate" additive="sum" keyTimes="0;1" values="0.491 0.478;0.491 0.478" keySplines="0 0 1 1" calcMode="spline"/><animate attributeType="XML" attributeName="opacity" dur="2s" from="0" to="1" xlink:href="#time_group"/></defs><g id="_R_G"><g id="_R_G_L_5_G" transform=" translate(107, 107) translate(0, 0)"><path id="_R_G_L_5_G_D_0_P_0" fill="#e3e3e3" fill-opacity="1" fill-rule="nonzero" d=" M0 -107 C59.09,-107 107,-59.09 107,0 C107,59.09 59.09,107 0,107 C-59.09,107 -107,59.09 -107,0 C-107,-59.09 -59.09,-107 0,-107z "/></g><g id="_R_G_L_4_G" transform=" translate(107, 107) translate(0, 0)"><path id="_R_G_L_4_G_D_0_P_0" fill="#e3e3e3" fill-opacity="1" fill-rule="nonzero" d=" M0 -107 C59.09,-107 107,-59.09 107,0 C107,59.09 59.09,107 0,107 C-59.09,107 -107,59.09 -107,0 C-107,-59.09 -59.09,-107 0,-107z "/></g><g id="_R_G_L_3_G"/><g id="_R_G_L_2_G" transform=" translate(108.477, 106.527) translate(-1.477, 0.473)"><path id="_R_G_L_2_G_D_0_P_0" fill="#bcbcbc" fill-opacity="1" fill-rule="nonzero" d=" M69.18 -0.47 C69.18,36.92 38.87,67.23 1.48,67.23 C-35.91,67.23 -66.22,36.92 -66.22,-0.47 C-66.22,-37.86 -35.91,-68.17 1.48,-68.17 C38.87,-68.17 69.18,-37.86 69.18,-0.47 C69.18,-0.47 69.18,-0.47 69.18,-0.47z  M-65.66 -0.47 C-65.66,36.61 -35.6,66.66 1.47,66.66 C38.55,66.66 68.61,36.6 68.61,-0.47 C68.61,-37.55 38.55,-67.61 1.47,-67.61 C-35.61,-67.61 -65.66,-37.55 -65.66,-0.47 C-65.66,-0.47 -65.66,-0.47 -65.66,-0.47z "/></g><g id="_R_G_L_1_G" transform=" translate(108.947, 106.711) translate(0, 0)"><path id="_R_G_L_1_G_D_0_P_0" fill="#dadada" fill-opacity="1" fill-rule="nonzero" d=" M0 -39.48 C-3.38,-39.48 -6.12,-36.75 -6.12,-33.37 C-6.12,-33.37 -6.12,-33.36 -6.12,-33.36 C-6.12,-33.36 -6.12,-2.77 -6.12,-2.77 C-6.12,0.61 -3.38,3.35 0,3.35 C3.38,3.35 6.12,0.61 6.12,-2.77 C6.12,-2.77 6.12,-33.36 6.12,-33.36 C6.12,-36.74 3.39,-39.48 0.01,-39.48 C0.01,-39.48 0,-39.48 0,-39.48z  M-21.89 -31.55 C-22.77,-31.44 -23.61,-31.07 -24.28,-30.49 C-41.28,-17.08 -44.18,7.57 -30.77,24.56 C-17.36,41.56 7.29,44.46 24.28,31.05 C41.28,17.64 44.18,-7.01 30.77,-24 C28.87,-26.41 26.69,-28.59 24.28,-30.49 C22.3,-32.08 19.41,-31.76 17.83,-29.78 C16.25,-27.8 16.57,-24.91 18.55,-23.32 C18.55,-23.32 18.55,-23.32 18.55,-23.32 C31.58,-13.08 33.85,5.79 23.6,18.83 C13.36,31.86 -5.51,34.13 -18.55,23.88 C-31.58,13.64 -33.85,-5.23 -23.6,-18.27 C-22.12,-20.15 -20.43,-21.85 -18.55,-23.32 C-16.52,-24.85 -16.11,-27.72 -17.63,-29.75 C-18.63,-31.07 -20.25,-31.76 -21.89,-31.55z "/></g><g id="_R_G_L_0_G" transform=" translate(106.509, 106.522)"><path id="_R_G_L_0_G_D_0_P_0" fill="#00a9ff" fill-opacity="1" fill-rule="nonzero" d=" M78.68 -2.31 C77.67,-46.03 41.41,-80.65 -2.31,-79.63 C-46.02,-78.62 -80.64,-42.36 -79.63,1.36 C-78.61,45.07 -42.35,79.69 1.36,78.68 C32.05,77.96 59.57,59.57 71.96,31.49 C72.37,30.56 73.44,30.12 74.39,30.5 C75.31,30.87 75.76,31.93 75.38,32.85 C75.38,32.87 75.37,32.88 75.36,32.9 C56.93,74.78 8.03,93.79 -33.85,75.36 C-75.73,56.92 -94.74,8.03 -76.3,-33.85 C-57.87,-75.74 -8.98,-94.75 32.91,-76.31 C62.37,-63.35 81.65,-34.49 82.36,-2.31 C82.38,-1.31 81.58,-0.49 80.59,-0.47 C80.57,-0.47 80.56,-0.47 80.54,-0.47 C79.53,-0.48 78.7,-1.29 78.68,-2.31 C78.68,-2.31 78.68,-2.31 78.68,-2.31z "/><path id="_R_G_L_0_G_D_1_P_0" fill="#00a9ff" fill-opacity="1" fill-rule="nonzero" d=" M75.46 21.96 C76.75,17.58 77.66,13.11 78.18,8.57 C78.29,7.56 79.19,6.82 80.2,6.91 C81.2,7 81.94,7.87 81.85,8.87 C81.85,8.88 81.85,8.9 81.85,8.91 C81.3,13.71 80.34,18.45 78.96,23.08 C78.68,24.04 77.67,24.58 76.71,24.3 C76.7,24.29 76.68,24.29 76.67,24.28 C75.7,23.97 75.16,22.94 75.46,21.96 C75.46,21.96 75.46,21.96 75.46,21.96z "/></g></g><g id="time_group"/></svg>