<?xml version="1.0" encoding="UTF-8"?>
<svg id="Layer_1" data-name="Layer 1" xmlns="http://www.w3.org/2000/svg" xmlns:xlink="http://www.w3.org/1999/xlink" viewBox="0 0 214 214">
  <defs>
    <linearGradient id="linear-gradient" x1="-388.83" y1="606.89" x2="-388.19" y2="606.13" gradientTransform="translate(73683.89 114967.73) scale(189.38 -189.38)" gradientUnits="userSpaceOnUse">
      <stop offset="0" stop-color="#fff"/>
      <stop offset="1" stop-color="#e8e8e8"/>
    </linearGradient>
    <linearGradient id="linear-gradient-2" x1="-388.83" y1="606.89" x2="-388.19" y2="606.13" gradientTransform="translate(73683.89 114967.73) scale(189.38 -189.38)" gradientUnits="userSpaceOnUse">
      <stop offset="0" stop-color="#fff"/>
      <stop offset="1" stop-color="#e8e8e8"/>
    </linearGradient>
  </defs>
  <g id="power_off_white" data-name="power off white">
    <circle id="Ellipse_5-3" data-name="Ellipse 5-3" cx="107" cy="107" r="107" fill="#e3e3e3"/>
    <circle id="Ellipse_5-4" data-name="Ellipse 5-4" cx="107" cy="107" r="107" fill="#e3e3e3"/>
    <g id="Group_1" data-name="Group 1">
      <path id="Path_8-2" data-name="Path 8-2" d="M202.69,107c0,52.3-42.39,94.69-94.69,94.69S13.31,159.3,13.31,107c0-52.3,42.39-94.69,94.69-94.69,52.3,0,94.69,42.39,94.69,94.69h0Z" fill="url(#linear-gradient)"/>
      <path id="Path_2-2" data-name="Path 2-2" d="M202.69,107c0,52.3-42.39,94.69-94.69,94.69S13.31,159.3,13.31,107c0-52.3,42.39-94.69,94.69-94.69,52.3,0,94.69,42.39,94.69,94.69h0Z" fill="url(#linear-gradient-2)"/>
    </g>
    <path id="Path_7" data-name="Path 7" d="M83.5,185.82c-19.68-5.97-36.45-19.04-47.02-36.68-10.58-17.64-14.22-38.59-10.21-58.76,4.01-20.18,15.38-38.14,31.9-50.39,16.52-12.25,37.01-17.93,57.48-15.91,20.47,2.01,39.46,11.57,53.28,26.81,13.39,14.77,21,33.87,21.45,53.8,.02,1-.78,1.82-1.78,1.84-.01,0-.03,0-.04,0-1.02,0-1.84-.82-1.86-1.84-.44-19.02-7.72-37.24-20.49-51.33-13.2-14.56-31.35-23.7-50.91-25.62-19.56-1.93-39.14,3.49-54.93,15.21-15.79,11.71-26.65,28.88-30.48,48.16-3.83,19.28-.35,39.29,9.75,56.15,10.11,16.86,26.13,29.35,44.94,35.05,18.81,5.7,39.07,4.2,56.84-4.21,17.19-8.14,30.88-22.2,38.56-39.6,.41-.93,1.48-1.37,2.42-.99,.92,.38,1.37,1.43,.99,2.36,0,.01-.01,.03-.02,.04-8.03,18.25-22.37,32.99-40.39,41.52-11.08,5.25-23.19,7.97-35.45,7.97-8.14,0-16.23-1.2-24.02-3.56Zm101.18-54.55c-.97-.32-1.5-1.35-1.21-2.32,1.29-4.37,2.2-8.85,2.73-13.39,.11-1.01,1.01-1.75,2.02-1.66,.99,.08,1.73,.96,1.65,1.95,0,.02,0,.03,0,.05-.55,4.8-1.51,9.54-2.89,14.17-.23,.77-.93,1.29-1.73,1.28-.19,0-.38-.03-.56-.09Z" fill="#d3d3d3"/>
    <path id="Path_5" data-name="Path 5" d="M176.18,106.53c0,37.39-30.31,67.7-67.7,67.7s-67.7-30.31-67.7-67.7S71.09,38.83,108.48,38.83s67.7,30.31,67.7,67.7h0Zm-134.84,0c0,37.08,30.06,67.13,67.14,67.13,37.08,0,67.13-30.06,67.13-67.14,0-37.08-30.06-67.13-67.14-67.13S41.34,69.45,41.34,106.53c0,0,0,0,0,0Z" fill="#bcbcbc"/>
    <g id="Group_2" data-name="Group 2">
      <path id="Path_6" data-name="Path 6" d="M108.95,67.23c-3.38,0-6.12,2.73-6.12,6.11h0v30.6c0,3.38,2.74,6.12,6.12,6.12s6.12-2.74,6.12-6.12v-30.59c0-3.38-2.73-6.12-6.11-6.12h0Zm-21.89,7.93c-.88,.11-1.71,.48-2.39,1.05-17,13.41-19.9,38.06-6.49,55.06,13.41,17,38.06,19.9,55.06,6.49,17-13.41,19.9-38.06,6.49-55.06-1.9-2.41-4.08-4.59-6.49-6.49-1.98-1.58-4.87-1.26-6.45,.72-1.58,1.98-1.26,4.87,.72,6.45h0c13.04,10.24,15.3,29.11,5.06,42.15s-29.11,15.3-42.15,5.06-15.3-29.11-5.06-42.15c1.48-1.88,3.18-3.58,5.06-5.06,2.03-1.52,2.44-4.4,.91-6.43-.99-1.32-2.62-2.01-4.26-1.8Z" fill="#dadada"/>
    </g>
  </g>
</svg>