<?xml version="1.0" encoding="UTF-8"?>
<svg id="Layer_1" data-name="Layer 1" xmlns="http://www.w3.org/2000/svg" xmlns:xlink="http://www.w3.org/1999/xlink" viewBox="0 0 214 214">
  <defs>
    <linearGradient id="linear-gradient" x1="-388.83" y1="606.89" x2="-388.19" y2="606.13" gradientTransform="translate(73682.89 114967.73) scale(189.38 -189.38)" gradientUnits="userSpaceOnUse">
      <stop offset="0" stop-color="#fff"/>
      <stop offset="1" stop-color="#eaeaea"/>
    </linearGradient>
    <linearGradient id="linear-gradient-2" x1="-388.83" y1="606.89" x2="-388.19" y2="606.13" gradientTransform="translate(73682.89 114967.73) scale(189.38 -189.38)" gradientUnits="userSpaceOnUse">
      <stop offset="0" stop-color="#fff"/>
      <stop offset="1" stop-color="#eaeaea"/>
    </linearGradient>
  </defs>
  <g id="power_on" data-name="power on">
    <circle id="Ellipse_5-3" data-name="Ellipse 5-3" cx="107" cy="107" r="107" fill="#e3e3e3"/>
    <circle id="Ellipse_5-4" data-name="Ellipse 5-4" cx="107" cy="107" r="107" fill="#e3e3e3"/>
    <g id="power">
      <g id="Group_3" data-name="Group 3">
        <path id="Ellipse_1-3" data-name="Ellipse 1-3" d="M107,12.31c52.3,0,94.69,42.39,94.69,94.69s-42.39,94.69-94.69,94.69S12.31,159.3,12.31,107C12.31,54.7,54.7,12.31,107,12.31h0Z" fill="url(#linear-gradient)"/>
        <path id="Ellipse_1-4" data-name="Ellipse 1-4" d="M107,12.31c52.3,0,94.69,42.39,94.69,94.69s-42.39,94.69-94.69,94.69S12.31,159.3,12.31,107C12.31,54.7,54.7,12.31,107,12.31h0Z" fill="url(#linear-gradient-2)"/>
      </g>
      <path id="Ellipse_2" data-name="Ellipse 2" d="M185.68,104.69c-1.01-43.72-37.27-78.33-80.99-77.32-43.72,1.01-78.33,37.27-77.32,80.99,1.01,43.72,37.27,78.33,80.99,77.32,30.69-.71,58.21-19.1,70.6-47.19,.41-.93,1.48-1.37,2.42-.99,.93,.37,1.37,1.43,1,2.35,0,.02-.01,.03-.02,.05-18.43,41.88-67.33,60.89-109.21,42.46C31.27,163.92,12.26,115.03,30.7,73.14,49.13,31.26,98.02,12.25,139.91,30.69c29.46,12.97,48.74,41.82,49.46,74,.02,1-.78,1.82-1.78,1.84-.01,0-.03,0-.04,0-1.02,0-1.84-.82-1.86-1.84h0Z" fill="#00a9ff"/>
      <path id="Ellipse_4" data-name="Ellipse 4" d="M182.46,128.96c1.29-4.37,2.2-8.85,2.72-13.39,.11-1.01,1.01-1.75,2.02-1.66,.99,.08,1.73,.96,1.65,1.95,0,.02,0,.03,0,.05-.55,4.8-1.51,9.54-2.89,14.17-.29,.96-1.29,1.5-2.25,1.21-.01,0-.03,0-.04-.01-.97-.32-1.5-1.35-1.21-2.32h0Z" fill="#00a9ff"/>
      <path id="Ellipse_3" data-name="Ellipse 3" d="M175.18,106.52c0,37.39-30.31,67.7-67.7,67.7s-67.7-30.31-67.7-67.7c0-37.39,30.31-67.7,67.69-67.7,37.39,0,67.7,30.3,67.71,67.69h0Zm-134.84,0c0,37.08,30.05,67.14,67.13,67.14,37.08,0,67.14-30.05,67.14-67.13,0-37.08-30.05-67.14-67.13-67.14,0,0,0,0,0,0-37.08,0-67.13,30.06-67.13,67.13Z" fill="#00f900"/>
      <path id="Vector" d="M114.07,73.35v30.59c0,3.38-2.74,6.12-6.12,6.12s-6.12-2.74-6.12-6.12v-30.59c0-3.38,2.74-6.12,6.12-6.12s6.12,2.74,6.12,6.12Zm-23.17,4.64c.79,1.93,.18,4.15-1.49,5.4-13.04,10.24-15.3,29.11-5.06,42.15,10.24,13.04,29.11,15.3,42.15,5.06,13.04-10.24,15.3-29.11,5.06-42.15-1.48-1.88-3.18-3.58-5.06-5.06-1.98-1.58-2.3-4.47-.72-6.45,1.58-1.98,4.47-2.3,6.45-.72,17,13.41,19.9,38.06,6.49,55.06-13.41,17-38.06,19.9-55.06,6.49-17-13.41-19.9-38.06-6.49-55.06,1.9-2.41,4.08-4.59,6.49-6.49,1.94-1.64,4.84-1.4,6.48,.54,.31,.37,.56,.78,.75,1.23h0Z" fill="#00c000"/>
    </g>
  </g>
</svg>