<svg width="22" height="22" viewBox="0 0 22 22" fill="none" xmlns="http://www.w3.org/2000/svg">
<path d="M10.9999 1.83301C5.94552 1.83301 1.83325 5.94528 1.83325 10.9997C1.83325 12.4598 2.18655 13.9072 2.85655 15.2035L1.87622 18.7134C1.76482 19.1104 1.87702 19.5385 2.16905 19.8305C2.38707 20.0486 2.6799 20.1663 2.98068 20.1663C3.08332 20.1663 3.18677 20.1528 3.28782 20.1242L6.79933 19.1438C8.09475 19.813 9.54137 20.1663 10.9999 20.1663C16.0543 20.1663 20.1666 16.0541 20.1666 10.9997C20.1666 5.94528 16.0543 1.83301 10.9999 1.83301ZM10.3124 6.64551C10.3124 6.26595 10.6196 5.95801 10.9999 5.95801C11.3803 5.95801 11.6874 6.26595 11.6874 6.64551V12.1455C11.6874 12.5251 11.3803 12.833 10.9999 12.833C10.6196 12.833 10.3124 12.5251 10.3124 12.1455V6.64551ZM10.9999 16.0413C10.4938 16.0413 10.0833 15.6308 10.0833 15.1247C10.0833 14.6186 10.4938 14.208 10.9999 14.208C11.506 14.208 11.9166 14.6186 11.9166 15.1247C11.9166 15.6308 11.506 16.0413 10.9999 16.0413Z" fill="url(#paint0_linear_131_530)"/>
<defs>
<linearGradient id="paint0_linear_131_530" x1="10.9999" y1="1.83301" x2="10.9999" y2="20.1663" gradientUnits="userSpaceOnUse">
<stop stop-color="#0094FF"/>
<stop offset="1" stop-color="#007BFF"/>
</linearGradient>
</defs>
</svg>
