<svg width="168" height="46" viewBox="0 0 168 46" fill="none" xmlns="http://www.w3.org/2000/svg">
<path d="M145 0.5C157.426 0.5 167.5 10.5736 167.5 23C167.5 35.4264 157.426 45.5 145 45.5H23C10.5736 45.5 0.5 35.4264 0.5 23C0.5 10.5736 10.5736 0.5 23 0.5H145Z" fill="url(#paint0_linear_2316_1188)" stroke="url(#paint1_linear_2316_1188)"/>
<path d="M54.1538 28.414L53.5098 26.552H49.6178L48.9738 28.414H46.9158L50.4298 18.628H52.7118L56.2258 28.414H54.1538ZM52.9778 24.984L51.5638 20.896L50.1498 24.984H52.9778Z" fill="white" fill-opacity="0.2"/>
<path d="M57.0353 24.508C57.0353 22.086 58.6033 20.532 60.5913 20.532C61.6133 20.532 62.5933 21.008 63.1253 21.736V18.054H65.1133V28.414H63.1253V27.266C62.6633 27.98 61.7953 28.54 60.5773 28.54C58.6033 28.54 57.0353 26.93 57.0353 24.508ZM63.1393 24.536C63.1393 23.066 62.1593 22.254 61.0813 22.254C60.0313 22.254 59.0373 23.038 59.0373 24.508C59.0373 25.978 60.0313 26.818 61.0813 26.818C62.1593 26.818 63.1393 26.006 63.1393 24.536Z" fill="white" fill-opacity="0.2"/>
<path d="M66.5235 24.508C66.5235 22.086 68.0915 20.532 70.0795 20.532C71.1015 20.532 72.0815 21.008 72.6135 21.736V18.054H74.6015V28.414H72.6135V27.266C72.1515 27.98 71.2835 28.54 70.0655 28.54C68.0915 28.54 66.5235 26.93 66.5235 24.508ZM72.6275 24.536C72.6275 23.066 71.6475 22.254 70.5695 22.254C69.5195 22.254 68.5255 23.038 68.5255 24.508C68.5255 25.978 69.5195 26.818 70.5695 26.818C71.6475 26.818 72.6275 26.006 72.6275 24.536Z" fill="white" fill-opacity="0.2"/>
<path d="M85.5218 18.628V20.224H81.8118V22.674H85.1018V24.228H81.8118V26.818H85.5218V28.414H79.8518V18.628H85.5218Z" fill="white" fill-opacity="0.2"/>
<path d="M91.5869 28.414L89.9909 26.006L88.5769 28.414H86.4769L89.0109 24.522L86.4489 20.658H88.6609L90.2429 23.052L91.6709 20.658H93.7709L91.2229 24.522L93.7989 28.414H91.5869Z" fill="white" fill-opacity="0.2"/>
<path d="M94.8635 28.414V20.658H96.8235V28.414H94.8635ZM95.8575 19.734C95.1575 19.734 94.6535 19.23 94.6535 18.586C94.6535 17.942 95.1575 17.438 95.8575 17.438C96.5435 17.438 97.0615 17.942 97.0615 18.586C97.0615 19.23 96.5435 19.734 95.8575 19.734Z" fill="white" fill-opacity="0.2"/>
<path d="M99.068 26.006V22.268H98.144V20.658H99.068V18.74H101.042V20.658H102.778V22.268H101.042V26.02C101.042 26.538 101.252 26.762 101.868 26.762H102.778V28.414H101.546C100.062 28.414 99.068 27.784 99.068 26.006Z" fill="white" fill-opacity="0.2"/>
<path d="M113.922 18.628H115.882V28.414H113.922L109.484 21.708V28.414H107.524V18.628H109.484L113.922 25.348V18.628Z" fill="white" fill-opacity="0.2"/>
<path d="M125.309 24.536C125.309 26.972 123.517 28.54 121.263 28.54C119.023 28.54 117.329 26.972 117.329 24.536C117.329 22.086 119.079 20.532 121.319 20.532C123.559 20.532 125.309 22.086 125.309 24.536ZM119.317 24.536C119.317 26.076 120.213 26.832 121.263 26.832C122.299 26.832 123.293 26.076 123.293 24.536C123.293 22.982 122.327 22.24 121.291 22.24C120.255 22.24 119.317 22.982 119.317 24.536Z" fill="white" fill-opacity="0.2"/>
<path d="M126.242 24.508C126.242 22.086 127.81 20.532 129.798 20.532C130.82 20.532 131.8 21.008 132.332 21.736V18.054H134.32V28.414H132.332V27.266C131.87 27.98 131.002 28.54 129.784 28.54C127.81 28.54 126.242 26.93 126.242 24.508ZM132.346 24.536C132.346 23.066 131.366 22.254 130.288 22.254C129.238 22.254 128.244 23.038 128.244 24.508C128.244 25.978 129.238 26.818 130.288 26.818C131.366 26.818 132.346 26.006 132.346 24.536Z" fill="white" fill-opacity="0.2"/>
<path d="M139.567 22.142C138.629 22.142 137.887 22.744 137.733 23.808H141.415C141.387 22.786 140.575 22.142 139.567 22.142ZM143.249 25.978C142.829 27.406 141.541 28.54 139.623 28.54C137.369 28.54 135.731 26.972 135.731 24.536C135.731 22.086 137.327 20.532 139.623 20.532C141.863 20.532 143.445 22.058 143.445 24.368C143.445 24.62 143.431 24.872 143.389 25.124H137.719C137.817 26.272 138.601 26.916 139.581 26.916C140.421 26.916 140.883 26.496 141.135 25.978H143.249Z" fill="white" fill-opacity="0.2"/>
<path d="M30.4139 15.3281C26.0884 15.3281 22.5691 18.8474 22.5691 23.173C22.5691 27.4985 26.0884 31.0178 30.4139 31.0178C34.7395 31.0178 38.2587 27.4985 38.2587 23.173C38.2587 18.8474 34.7395 15.3281 30.4139 15.3281ZM30.4139 16.5048C34.1034 16.5048 37.082 19.4834 37.082 23.173C37.082 26.8625 34.1034 29.8411 30.4139 29.8411C26.7244 29.8411 23.7458 26.8625 23.7458 23.173C23.7458 19.4834 26.7244 16.5048 30.4139 16.5048ZM30.4044 19.2424C30.0802 19.2471 29.8208 19.5141 29.8256 19.8389V22.5846H27.0799C26.8674 22.5819 26.6706 22.6929 26.5637 22.876C26.4561 23.0599 26.4561 23.286 26.5637 23.4699C26.6706 23.653 26.8674 23.764 27.0799 23.7613H29.8256V26.507C29.8228 26.7195 29.9338 26.9163 30.117 27.0232C30.3009 27.1308 30.527 27.1308 30.7108 27.0232C30.894 26.9163 31.005 26.7195 31.0023 26.507V23.7613H33.748C33.9604 23.764 34.1572 23.653 34.2642 23.4699C34.3717 23.286 34.3717 23.0599 34.2642 22.876C34.1572 22.6929 33.9604 22.5819 33.748 22.5846H31.0023V19.8389C31.0043 19.6796 30.9424 19.5263 30.83 19.414C30.717 19.3016 30.5637 19.2396 30.4044 19.2424Z" fill="white" fill-opacity="0.2"/>
<defs>
<linearGradient id="paint0_linear_2316_1188" x1="144.688" y1="1" x2="118.243" y2="48.9418" gradientUnits="userSpaceOnUse">
<stop stop-color="#233666"/>
<stop offset="1" stop-color="#0F2343"/>
</linearGradient>
<linearGradient id="paint1_linear_2316_1188" x1="1" y1="45" x2="168.431" y2="15.8108" gradientUnits="userSpaceOnUse">
<stop stop-color="#464663"/>
<stop offset="1" stop-color="#80808A"/>
</linearGradient>
</defs>
</svg>
