<svg width="20" height="20" viewBox="0 0 20 20" fill="none" xmlns="http://www.w3.org/2000/svg">
<path d="M10.0005 0.982422C14.973 0.982599 19.019 5.02844 19.019 10.001C19.0189 14.9734 14.9729 19.0194 10.0005 19.0195C5.02795 19.0195 0.982111 14.9735 0.981934 10.001C0.981934 5.02833 5.02784 0.982422 10.0005 0.982422ZM10.0005 5.04004C9.28614 5.04004 8.70654 5.61964 8.70654 6.33398V8.70703H6.3335C5.61915 8.70703 5.03955 9.28663 5.03955 10.001C5.03973 10.7152 5.61926 11.2949 6.3335 11.2949H8.70654V13.667C8.70654 14.3813 9.28614 14.9609 10.0005 14.9609C10.7147 14.9608 11.2944 14.3812 11.2944 13.667V11.2949H13.6665C14.3807 11.2949 14.9603 10.7152 14.9604 10.001C14.9604 9.28663 14.3808 8.70703 13.6665 8.70703H11.2944V6.33398C11.2944 5.61975 10.7147 5.04022 10.0005 5.04004Z" fill="url(#paint0_linear_95_390)" stroke="#00DC00" stroke-width="0.296043"/>
<defs>
<linearGradient id="paint0_linear_95_390" x1="10.0002" y1="0.833984" x2="10.0002" y2="19.1673" gradientUnits="userSpaceOnUse">
<stop stop-color="#00FD00"/>
<stop offset="1" stop-color="#007700"/>
</linearGradient>
</defs>
</svg>
