<svg width="27" height="26" viewBox="0 0 27 26" fill="none" xmlns="http://www.w3.org/2000/svg">
<path d="M15.0862 1.62524C14.6376 1.62524 14.2737 1.98918 14.2737 2.43774V11.1044C14.2737 11.553 14.6376 11.9169 15.0862 11.9169H23.7529C24.2014 11.9169 24.5654 11.553 24.5654 11.1044C24.5654 5.8777 20.3129 1.62524 15.0862 1.62524ZM11.8343 4.87524C6.1252 4.87618 1.57934 9.94961 2.46801 15.8252C3.07927 19.8651 6.3255 23.1114 10.3654 23.7226C16.241 24.6113 21.3144 20.0654 21.3154 14.3563C21.3154 13.9077 20.9514 13.5419 20.5029 13.5419H13.732C13.134 13.5419 12.6487 13.0567 12.6487 12.4586V5.68774C12.6487 5.23918 12.2829 4.87524 11.8343 4.87524Z" fill="#ACACAC"/>
</svg>
