<svg width="27" height="27" viewBox="0 0 27 27" fill="none" xmlns="http://www.w3.org/2000/svg">
<path d="M15.0862 2.17285C14.6376 2.17285 14.2737 2.53678 14.2737 2.98535V11.652C14.2737 12.1006 14.6376 12.4645 15.0862 12.4645H23.7529C24.2014 12.4645 24.5654 12.1006 24.5654 11.652C24.5654 6.42531 20.3129 2.17285 15.0862 2.17285ZM11.8343 5.42285C6.1252 5.42379 1.57934 10.4972 2.46801 16.3728C3.07927 20.4127 6.3255 23.659 10.3654 24.2702C16.241 25.1589 21.3144 20.613 21.3154 14.9039C21.3154 14.4553 20.9514 14.0895 20.5029 14.0895H13.732C13.134 14.0895 12.6487 13.6043 12.6487 13.0062V6.23535C12.6487 5.78678 12.2829 5.42285 11.8343 5.42285Z" fill="#00DC00"/>
</svg>
