<svg width="17" height="17" viewBox="0 0 17 17" fill="none" xmlns="http://www.w3.org/2000/svg">
<path d="M11.9244 0C10.6211 0 9.31854 0.494006 8.33053 1.48202L6.53616 3.27639C6.25851 3.54296 6.14664 3.93912 6.24375 4.31166C6.34085 4.68456 6.63179 4.9755 7.00432 5.0726C7.37686 5.16971 7.77302 5.05784 8.03959 4.77982L9.83396 2.98545C10.9974 1.82243 12.8512 1.82243 14.0146 2.98545C15.1776 4.14884 15.1776 6.00265 14.0146 7.16604L12.2202 8.96041C11.9422 9.22698 11.8303 9.62314 11.9274 9.99568C12.0245 10.3682 12.3154 10.6592 12.6883 10.7563C13.0609 10.8534 13.457 10.7415 13.7236 10.4638L15.518 8.66947C17.494 6.69345 17.494 3.45804 15.518 1.48202C14.53 0.494006 13.2274 0 11.9244 0ZM10.8175 5.08737C10.5417 5.09513 10.2796 5.21032 10.0865 5.40822L5.40822 10.0865C4.99249 10.5022 4.99249 11.1764 5.40785 11.5922C5.82358 12.0075 6.49776 12.0075 6.9135 11.5922L11.5922 6.9135C11.9071 6.60742 12.0016 6.13926 11.8303 5.73497C11.659 5.33105 11.2565 5.07371 10.8175 5.08737ZM4.00411 6.21716C3.72793 6.22565 3.46542 6.34122 3.27306 6.53948L1.48202 8.33053C-0.494006 10.3066 -0.494006 13.542 1.48202 15.518C3.45804 17.494 6.69345 17.494 8.66947 15.518L10.4624 13.7269C10.74 13.4604 10.8519 13.0642 10.7548 12.6917C10.6577 12.3188 10.3667 12.0278 9.99383 11.9307C9.6213 11.8336 9.22513 11.9455 8.95856 12.2231L7.16604 14.0146C6.00265 15.1776 4.14884 15.1776 2.98545 14.0146C1.82243 12.8512 1.82243 10.9974 2.98545 9.83396L4.77687 8.04328C5.09143 7.73758 5.18632 7.26979 5.01538 6.86587C4.84443 6.46158 4.44273 6.20387 4.00411 6.21716Z" fill="url(#paint0_linear_41_894)"/>
<defs>
<linearGradient id="paint0_linear_41_894" x1="8.5" y1="0" x2="8.5" y2="17" gradientUnits="userSpaceOnUse">
<stop stop-color="#0094FF"/>
<stop offset="1" stop-color="#007BFF"/>
</linearGradient>
</defs>
</svg>
