<svg width="26" height="26" viewBox="0 0 26 26" fill="none" xmlns="http://www.w3.org/2000/svg">
<path d="M13.0002 2.16687C7.03012 2.16687 2.16687 7.03012 2.16687 13.0002C2.16687 18.9703 7.03012 23.8335 13.0002 23.8335C18.9703 23.8335 23.8335 18.9703 23.8335 13.0002C23.8335 7.03012 18.9703 2.16687 13.0002 2.16687ZM13.0002 4.33354C17.7995 4.33354 21.6669 8.2009 21.6669 13.0002C21.6669 17.7995 17.7995 21.6669 13.0002 21.6669C8.2009 21.6669 4.33354 17.7995 4.33354 13.0002C4.33354 8.2009 8.2009 4.33354 13.0002 4.33354ZM11.8957 8.65653C11.6141 8.66452 11.347 8.78254 11.1509 8.98425L7.99637 12.1388C7.72789 12.3433 7.57037 12.6607 7.56943 12.9983C7.56849 13.3355 7.7246 13.6538 7.99167 13.8593C7.99402 13.8607 7.9959 13.8621 7.99825 13.8635L11.1509 17.0162C11.4227 17.2992 11.8261 17.413 12.2056 17.3143C12.5855 17.215 12.8817 16.9188 12.9809 16.5389C13.0797 16.1595 12.9659 15.756 12.6828 15.4843L11.2821 14.0835H17.3335C17.7243 14.0892 18.0877 13.8837 18.2847 13.5466C18.4818 13.209 18.4818 12.7914 18.2847 12.4538C18.0877 12.1167 17.7243 11.9112 17.3335 11.9169H11.2821L12.6828 10.5162C13.003 10.2049 13.0994 9.72857 12.9254 9.31715C12.7515 8.90573 12.3424 8.64289 11.8957 8.65653Z" fill="white"/>
</svg>
