<svg width="18" height="22" viewBox="0 0 18 22" fill="none" xmlns="http://www.w3.org/2000/svg">
<path d="M8.9928 21.92C9.14397 21.92 9.29514 21.8685 9.43026 21.7913C14.6248 18.8225 17.5936 13.7308 17.9989 5.47731C18.0118 5.2232 17.9089 4.9691 17.7416 4.78261C17.5776 4.59602 17.3427 4.48027 17.0983 4.47381C15.207 4.42558 12.8397 2.41204 11.2572 1.61754C10.2794 1.12871 9.6329 0.800541 9.1472 0.716981C9.09896 0.710524 9.04104 0.716981 8.9928 0.716981V4.88799C12.0996 4.88799 14.6255 7.41042 14.6255 10.5208C14.6255 13.6311 12.0996 16.1535 8.9928 16.1535V21.92Z" fill="white"/>
<path d="M8.18891 6.04044C7.96553 6.05932 7.71192 6.12752 7.58316 6.16157C7.1819 6.27135 6.82985 6.53641 6.49288 6.76733C6.11432 7.02475 5.57676 7.23297 5.34203 7.64557C5.2436 7.81974 5.28147 7.93715 5.34203 8.0393C5.41013 8.15672 5.47823 8.27403 5.34203 8.43303C5.20945 8.58831 4.99371 8.60347 5.03911 8.85708C5.11102 9.26969 5.80004 9.16373 6.06882 9.34161C6.22792 9.44767 6.37175 9.61802 6.25062 9.82623C6.11804 10.0496 5.84554 9.96253 5.64486 10.0079C5.43665 10.0571 5.34957 10.1026 5.19057 10.2503C4.84606 10.5683 4.62268 10.9507 4.64538 11.4314C4.66808 11.9577 5.01641 12.5671 5.46316 12.8549C5.68654 12.9987 5.73194 13.0101 5.88712 13.2789C6.33007 14.0285 7.25763 15.0545 8.21924 15.0052C8.40466 14.9939 7.78765 12.9041 7.76485 12.7338C7.63237 11.8176 8.79467 10.8559 8.27981 9.94736C8.05643 9.55364 7.70429 9.89815 7.3409 9.91713C7.17436 9.92466 6.71998 9.76949 6.67458 9.58397C6.58378 9.22048 7.1592 8.7019 7.49236 8.88732C7.76867 9.0426 7.60968 9.52341 7.97689 9.28104C8.47667 8.9517 8.50309 8.22481 8.64321 7.70614C8.74917 7.32005 9.15424 6.45686 8.7341 6.13134C8.62432 6.04797 8.41229 6.02155 8.18891 6.04044Z" fill="white"/>
<path d="M11.0661 6.40395C11.0056 6.40013 10.9715 6.4607 10.8844 6.58564C10.6686 6.8961 10.608 7.38073 10.4907 7.73659C10.3506 8.16818 10.2068 8.75867 10.5815 9.09946C11.0926 9.56892 11.6302 9.04643 12.1867 9.25083C12.8833 9.50454 11.918 9.94748 11.6415 10.1292C11.2933 10.3563 10.8239 10.7879 11.0056 11.2498C11.0775 11.4353 11.316 11.5337 11.4599 11.6435C11.6869 11.8177 11.7513 11.9463 11.8232 12.2189C11.9255 12.6127 11.9217 13.1048 11.7627 13.4909C11.5962 13.8923 11.2062 14.1345 11.0056 14.4904C11.3993 14.551 12.5021 13.9438 13.0953 12.3098C13.3944 11.7154 13.5842 10.0301 12.9742 8.55427C12.906 8.42561 12.8152 8.29685 12.7318 8.16055C12.5123 7.78952 12.2511 7.41096 11.9747 7.13083C11.774 6.92644 11.5658 6.75599 11.3387 6.58564C11.21 6.49103 11.1267 6.40776 11.0661 6.40395Z" fill="white"/>
<path d="M9.04864 21.9185C8.94893 21.9185 8.73495 21.8865 8.58446 21.8005C5.90451 20.269 3.91298 18.2465 2.496 15.6175C1.01865 12.8765 0.20243 9.54942 0.000968893 5.44612C-0.0102832 5.22255 0.0768961 4.98958 0.240296 4.8073C0.388237 4.639 0.606528 4.53392 0.822274 4.52834C2.1736 4.4939 3.73716 3.4952 5.11657 2.61412C5.70647 2.23741 6.26203 1.88253 6.74108 1.64301L6.77943 1.62383C6.90066 1.56297 7.01758 1.50388 7.1302 1.44693C7.88077 1.06749 8.42312 0.793428 8.83367 0.717892L8.87624 0.713098C8.89483 0.712315 8.9142 0.712902 8.93289 0.713978C8.95745 0.715054 8.97565 0.715837 8.99287 0.715837V1.32844C8.96801 1.32844 8.9416 1.32756 8.91449 1.32648C8.58818 1.39664 8.06422 1.66131 7.40661 1.99368C7.29341 2.05092 7.1759 2.11032 7.05408 2.17147L7.01524 2.19084C6.56466 2.41618 6.02231 2.76264 5.44816 3.12936C3.99957 4.05458 2.3597 5.10191 0.838027 5.14075C0.791356 5.14202 0.736465 5.17079 0.698501 5.21404C0.642632 5.27627 0.609756 5.35454 0.612888 5.4156C0.809848 9.42614 1.60219 12.668 3.03532 15.3268C4.39633 17.852 6.31095 19.7956 8.88827 21.2685C8.91762 21.2848 9.01204 21.3053 9.04893 21.3058L9.04864 21.9185Z" fill="white"/>
<path d="M9.04895 16.6389C5.67576 16.6389 2.93152 13.8947 2.93152 10.5215C2.93152 7.14842 5.67576 4.40408 9.04895 4.40408C12.4221 4.40408 15.1663 7.14842 15.1663 10.5215C15.1663 13.8947 12.4221 16.6389 9.04895 16.6389ZM9.04895 4.88988C5.94366 4.88988 3.41722 7.41622 3.41722 10.5215C3.41722 13.6269 5.94366 16.1532 9.04895 16.1532C12.1542 16.1532 14.6806 13.6269 14.6806 10.5215C14.6806 7.41622 12.1542 4.88988 9.04895 4.88988Z" fill="white"/>
</svg>
