<svg width="370" height="80" viewBox="0 0 370 80" fill="none" xmlns="http://www.w3.org/2000/svg">
<g filter="url(#filter0_d_131_2072)">
<path d="M35.7307 65.4675C36.096 65.4675 36.4614 65.3432 36.7879 65.1566C49.3414 57.9821 56.5159 45.6771 57.4953 25.7313C57.5265 25.1173 57.2778 24.5032 56.8737 24.0525C56.4771 23.6016 55.9097 23.3218 55.319 23.3062C50.7483 23.1897 45.0275 18.3236 41.203 16.4036C38.8399 15.2223 37.2776 14.4292 36.1038 14.2273C35.9873 14.2117 35.8473 14.2273 35.7307 14.2273V24.3072C43.2387 24.3072 49.343 30.403 49.343 37.9197C49.343 45.4362 43.2387 51.532 35.7307 51.532V65.4675Z" fill="#00D200"/>
<path d="M33.788 27.0917C33.2482 27.1373 32.6353 27.3021 32.3241 27.3844C31.3544 27.6497 30.5036 28.2903 29.6893 28.8483C28.7744 29.4704 27.4754 29.9736 26.9081 30.9707C26.6702 31.3916 26.7617 31.6754 26.9081 31.9223C27.0727 32.206 27.2372 32.4895 26.9081 32.8737C26.5877 33.249 26.0663 33.2857 26.176 33.8986C26.3498 34.8957 28.0149 34.6396 28.6645 35.0695C29.049 35.3258 29.3966 35.7375 29.1038 36.2406C28.7834 36.7805 28.1249 36.57 27.6399 36.6797C27.1367 36.7987 26.9263 36.9086 26.5421 37.2654C25.7095 38.0339 25.1697 38.958 25.2245 40.1197C25.2794 41.3916 26.1212 42.8645 27.2008 43.5599C27.7407 43.9075 27.8504 43.9349 28.2254 44.5845C29.2958 46.396 31.5374 48.8755 33.8613 48.7565C34.3094 48.7291 32.8183 43.6789 32.7632 43.2672C32.4431 41.053 35.2519 38.7291 34.0077 36.5334C33.4679 35.5819 32.6169 36.4144 31.7387 36.4603C31.3362 36.4785 30.2381 36.1035 30.1284 35.6552C29.909 34.7767 31.2996 33.5235 32.1047 33.9716C32.7724 34.3469 32.3882 35.5088 33.2756 34.9231C34.4834 34.1272 34.5473 32.3706 34.8859 31.1171C35.142 30.1841 36.1209 28.098 35.1056 27.3114C34.8403 27.1099 34.3279 27.0461 33.788 27.0917Z" fill="#2676F9"/>
<path d="M40.7411 27.9702C40.5947 27.9609 40.5125 28.1073 40.302 28.4093C39.7804 29.1595 39.634 30.3307 39.3505 31.1907C39.0119 32.2337 38.6643 33.6607 39.57 34.4843C40.8052 35.6188 42.1043 34.3561 43.4492 34.8501C45.1326 35.4632 42.7997 36.5337 42.1317 36.9728C41.2902 37.5216 40.1557 38.5646 40.5947 39.6809C40.7685 40.1292 41.345 40.3671 41.6926 40.6324C42.2414 41.0533 42.397 41.3642 42.5708 42.023C42.8179 42.9745 42.8087 44.1639 42.4244 45.0969C42.022 46.0669 41.0797 46.6523 40.5947 47.5123C41.5463 47.6587 44.2113 46.1915 45.645 42.2427C46.3678 40.8062 46.8263 36.7332 45.3522 33.1668C45.1874 32.8558 44.968 32.5446 44.7665 32.2153C44.2359 31.3186 43.6048 30.4038 42.9369 29.7268C42.4519 29.2328 41.9487 28.8209 41.3999 28.4093C41.0887 28.1806 40.8875 27.9794 40.7411 27.9702Z" fill="#2676F9"/>
<path d="M35.8657 65.4639C35.6248 65.4639 35.1077 65.3865 34.744 65.1787C28.2674 61.4774 23.4546 56.5899 20.0303 50.2365C16.46 43.6125 14.4875 35.572 14.0006 25.6558C13.9734 25.1155 14.1841 24.5525 14.579 24.1119C14.9365 23.7052 15.4641 23.4513 15.9854 23.4378C19.2511 23.3546 23.0297 20.9411 26.3633 18.8118C27.7889 17.9014 29.1315 17.0438 30.2892 16.4649L30.3818 16.4186C30.6748 16.2715 30.9574 16.1287 31.2295 15.9911C33.0434 15.0741 34.3541 14.4118 35.3462 14.2293L35.4491 14.2177C35.494 14.2158 35.5408 14.2172 35.586 14.2198C35.6454 14.2224 35.6893 14.2243 35.7309 14.2243V15.7047C35.6709 15.7047 35.607 15.7026 35.5415 15.7C34.753 15.8695 33.4867 16.5092 31.8975 17.3124C31.6239 17.4507 31.34 17.5943 31.0456 17.742L30.9517 17.7889C29.8628 18.3334 28.5521 19.1707 27.1646 20.0569C23.6639 22.2929 19.7009 24.8239 16.0235 24.9178C15.9107 24.9209 15.7781 24.9904 15.6863 25.0949C15.5513 25.2453 15.4719 25.4344 15.4794 25.582C15.9554 35.2741 17.8702 43.1086 21.3336 49.534C24.6227 55.6365 29.2497 60.3335 35.4782 63.8931C35.5491 63.9323 35.7773 63.982 35.8664 63.9832L35.8657 65.4639Z" fill="#00D200"/>
<path d="M35.8665 52.7051C27.7146 52.7051 21.0828 46.0732 21.0828 37.9213C21.0828 29.7698 27.7146 23.1376 35.8665 23.1376C44.0183 23.1376 50.6499 29.7698 50.6499 37.9213C50.6499 46.0732 44.0183 52.7051 35.8665 52.7051ZM35.8665 24.3116C28.3621 24.3116 22.2565 30.4169 22.2565 37.9213C22.2565 45.426 28.3621 51.5313 35.8665 51.5313C43.3709 51.5313 49.4762 45.426 49.4762 37.9213C49.4762 30.4169 43.3709 24.3116 35.8665 24.3116Z" fill="#00D200"/>
<path d="M83.849 51.01V58.5717H73.3945V23.1485C73.3945 22.1335 73.8851 21.626 74.8663 21.626H105.215C108.666 21.626 111.152 22.3957 112.675 23.9351C114.197 25.4745 114.958 27.6483 114.958 30.4564V33.7044C114.958 35.193 114.654 36.3941 114.045 37.3076C113.436 38.2211 112.742 38.9485 111.964 39.4898C113.047 40.0312 113.943 40.8262 114.654 41.8751C115.364 42.9239 115.72 44.2265 115.72 45.7828V49.0308C115.72 52.1434 114.984 54.5117 113.512 56.1357C112.04 57.7597 109.511 58.5717 105.925 58.5717H87.0969L84.2042 51.01H83.849ZM83.849 42.9408V49.8935H102.017C102.931 49.8935 103.599 49.6736 104.022 49.2338C104.445 48.7939 104.656 48.0327 104.656 46.95V45.8843C104.656 44.8016 104.462 44.0404 104.073 43.6006C103.684 43.1607 102.998 42.9408 102.017 42.9408H83.849ZM84.7117 29.8474C84.1365 29.8474 83.849 30.135 83.849 30.7102V36.9524H101.408C102.559 36.9524 103.371 36.7324 103.844 36.2926C104.318 35.8528 104.555 35.0915 104.555 34.0089V32.8924C104.555 31.7759 104.318 30.9893 103.844 30.5325C103.371 30.0758 102.559 29.8474 101.408 29.8474H84.7117ZM130.234 37.2061H129.879V48.2695C129.879 48.7432 130.116 48.98 130.589 48.98H161.75V58.5717H120.896C119.915 58.5717 119.424 58.0642 119.424 57.0492V23.1485C119.424 22.1335 119.915 21.626 120.896 21.626H160.582C161.597 21.626 162.105 22.1335 162.105 23.1485V32.7401L152.412 36.3434H152.006V31.4207C152.006 31.0485 151.837 30.8624 151.498 30.8624H130.539C130.268 30.8624 130.09 30.9385 130.006 31.0908C129.921 31.243 129.879 31.4037 129.879 31.5729V36.1911H147.134V43.7021H132.67L130.234 37.2061ZM176.721 21.626V47.7113C176.721 48.1173 176.805 48.4218 176.975 48.6248C177.144 48.8278 177.465 48.9293 177.939 48.9293H206.866V58.5717H168.956C167.975 58.5717 167.281 58.3264 166.875 57.8358C166.469 57.3453 166.266 56.6432 166.266 55.7297V21.626H176.721Z" fill="#1DC021"/>
<path d="M226.885 21.626C227.664 21.626 228.213 21.7444 228.535 21.9812C228.856 22.2181 229.152 22.5902 229.423 23.0977L243.43 49.6398C243.667 50.0458 243.988 50.2488 244.394 50.2488H244.952C245.494 50.2488 245.764 49.9781 245.764 49.4368V21.626H255.254V57.1C255.254 58.0811 254.781 58.5717 253.833 58.5717H238.812C238.101 58.5717 237.568 58.4702 237.213 58.2672C236.858 58.0642 236.528 57.6751 236.223 57.1L221.709 30.6087C221.506 30.2027 221.185 29.9997 220.745 29.9997H220.237C219.696 29.9997 219.425 30.2703 219.425 30.8117V58.5717H209.935V23.1485C209.935 22.1335 210.409 21.626 211.356 21.626H226.885ZM270.733 37.2061H270.378V48.2695C270.378 48.7432 270.615 48.98 271.088 48.98H302.249V58.5717H261.395C260.414 58.5717 259.923 58.0642 259.923 57.0492V23.1485C259.923 22.1335 260.414 21.626 261.395 21.626H301.081C302.096 21.626 302.604 22.1335 302.604 23.1485V32.7401L292.911 36.3434H292.505V31.4207C292.505 31.0485 292.336 30.8624 291.997 30.8624H271.038C270.767 30.8624 270.589 30.9385 270.505 31.0908C270.42 31.243 270.378 31.4037 270.378 31.5729V36.1911H287.633V43.7021H273.169L270.733 37.2061ZM333.764 30.8624V58.5717H323.31V30.8624H307.983L304.583 22.032V21.626H353.556C354.538 21.626 355.028 22.1335 355.028 23.1485V32.7401L345.335 36.3434H344.929V31.4207C344.929 31.0485 344.743 30.8624 344.371 30.8624H333.764Z" fill="#0094FF"/>
</g>
<defs>
<filter id="filter0_d_131_2072" x="-0.00170898" y="0.216797" width="369.03" height="79.2508" filterUnits="userSpaceOnUse" color-interpolation-filters="sRGB">
<feFlood flood-opacity="0" result="BackgroundImageFix"/>
<feColorMatrix in="SourceAlpha" type="matrix" values="0 0 0 0 0 0 0 0 0 0 0 0 0 0 0 0 0 0 127 0" result="hardAlpha"/>
<feOffset/>
<feGaussianBlur stdDeviation="7"/>
<feComposite in2="hardAlpha" operator="out"/>
<feColorMatrix type="matrix" values="0 0 0 0 0 0 0 0 0 0 0 0 0 0 0 0 0 0 1 0"/>
<feBlend mode="normal" in2="BackgroundImageFix" result="effect1_dropShadow_131_2072"/>
<feBlend mode="normal" in="SourceGraphic" in2="effect1_dropShadow_131_2072" result="shape"/>
</filter>
</defs>
</svg>
