<svg width="90" height="20" viewBox="0 0 90 20" fill="none" xmlns="http://www.w3.org/2000/svg">
<path d="M28.032 13.616V16H24.736V4.83202C24.736 4.51202 24.8907 4.35202 25.2 4.35202H34.768C35.856 4.35202 36.64 4.59735 37.12 5.08802C37.6 5.56802 37.84 6.25069 37.84 7.13602V8.16002C37.84 8.62935 37.744 9.00802 37.552 9.29602C37.36 9.58402 37.1414 9.81335 36.896 9.98402C37.2374 10.1547 37.52 10.4054 37.744 10.736C37.968 11.0667 38.08 11.4774 38.08 11.968V12.992C38.08 13.9734 37.8454 14.72 37.376 15.232C36.9174 15.744 36.1227 16 34.992 16H29.056L28.144 13.616H28.032ZM28.032 11.072V13.264H33.76C34.048 13.264 34.256 13.1947 34.384 13.056C34.5227 12.9174 34.592 12.6774 34.592 12.336V12C34.592 11.6587 34.528 11.4187 34.4 11.28C34.2827 11.1414 34.0694 11.072 33.76 11.072H28.032ZM28.304 6.94402C28.1227 6.94402 28.032 7.03469 28.032 7.21602V9.18402H33.568C33.9307 9.18402 34.1867 9.11469 34.336 8.97602C34.4854 8.83735 34.56 8.59735 34.56 8.25602V7.90402C34.56 7.55202 34.4854 7.30669 34.336 7.16802C34.1867 7.01869 33.9307 6.94402 33.568 6.94402H28.304Z" fill="#00B400"/>
<path d="M42.1316 10.992H42.0196V12.352C42.0196 12.8534 42.105 13.2 42.2756 13.392C42.4463 13.5734 42.7663 13.664 43.2356 13.664H49.4916V16H42.6916C42.041 16 41.4863 15.92 41.0276 15.76C40.5796 15.5894 40.2116 15.3547 39.9236 15.056C39.6356 14.7467 39.4276 14.3787 39.2996 13.952C39.1716 13.5254 39.1076 13.0454 39.1076 12.512V10.704C39.1076 10.1707 39.1716 9.69069 39.2996 9.26402C39.4276 8.83735 39.6356 8.47469 39.9236 8.17602C40.2116 7.86669 40.5796 7.63202 41.0276 7.47202C41.4863 7.30135 42.041 7.21602 42.6916 7.21602H47.7636C48.4356 7.21602 48.9156 7.39202 49.2036 7.74402C49.4916 8.08535 49.6356 8.62402 49.6356 9.36002V10.208C49.6356 10.8587 49.4916 11.376 49.2036 11.76C48.9156 12.144 48.4356 12.336 47.7636 12.336H42.6276L42.1316 10.992ZM42.0196 10.56H46.4356C46.7663 10.56 46.9316 10.3894 46.9316 10.048V9.72802C46.9316 9.54669 46.889 9.41869 46.8036 9.34402C46.729 9.26935 46.6063 9.23202 46.4356 9.23202H43.2356C42.7876 9.23202 42.473 9.32802 42.2916 9.52002C42.1103 9.70135 42.0196 10.032 42.0196 10.512V10.56Z" fill="#00B400"/>
<path d="M50.861 16V3.52002H53.757V16H50.861Z" fill="#00B400"/>
<path d="M60.5956 4.35202C60.841 4.35202 61.0116 4.38935 61.1076 4.46402C61.2143 4.53869 61.3103 4.65602 61.3956 4.81602L65.8116 13.184C65.8863 13.312 65.9876 13.376 66.1156 13.376H66.2916C66.4623 13.376 66.5476 13.2907 66.5476 13.12V4.35202H69.5396V15.536C69.5396 15.8454 69.3903 16 69.0916 16H64.3556C64.1316 16 63.961 15.968 63.8436 15.904C63.737 15.84 63.6357 15.7174 63.5396 15.536L58.9636 7.18402C58.8996 7.05602 58.7983 6.99202 58.6596 6.99202H58.4996C58.329 6.99202 58.2436 7.07735 58.2436 7.24802V16H55.2516V4.83202C55.2516 4.51202 55.401 4.35202 55.6996 4.35202H60.5956Z" fill="#0091FF"/>
<path d="M73.8973 10.992H73.7853V12.352C73.7853 12.8534 73.8706 13.2 74.0413 13.392C74.2119 13.5734 74.5319 13.664 75.0013 13.664H81.2573V16H74.4573C73.8066 16 73.2519 15.92 72.7933 15.76C72.3453 15.5894 71.9773 15.3547 71.6893 15.056C71.4013 14.7467 71.1933 14.3787 71.0653 13.952C70.9373 13.5254 70.8733 13.0454 70.8733 12.512V10.704C70.8733 10.1707 70.9373 9.69069 71.0653 9.26402C71.1933 8.83735 71.4013 8.47469 71.6893 8.17602C71.9773 7.86669 72.3453 7.63202 72.7933 7.47202C73.2519 7.30135 73.8066 7.21602 74.4573 7.21602H79.5293C80.2013 7.21602 80.6813 7.39202 80.9693 7.74402C81.2573 8.08535 81.4013 8.62402 81.4013 9.36002V10.208C81.4013 10.8587 81.2573 11.376 80.9693 11.76C80.6813 12.144 80.2013 12.336 79.5293 12.336H74.3933L73.8973 10.992ZM73.7853 10.56H78.2013C78.5319 10.56 78.6973 10.3894 78.6973 10.048V9.72802C78.6973 9.54669 78.6546 9.41869 78.5693 9.34402C78.4946 9.26935 78.3719 9.23202 78.2013 9.23202H75.0013C74.5533 9.23202 74.2386 9.32802 74.0573 9.52002C73.8759 9.70135 73.7853 10.032 73.7853 10.512V10.56Z" fill="#0091FF"/>
<path d="M89.3466 9.42402H86.7866V16H83.8906V9.42402H82.7386L81.9386 7.34402V7.21602H83.8906V4.35202H86.7866V7.21602H89.3466V9.42402Z" fill="#0091FF"/>
<path d="M7.99359 19.7417C8.12797 19.7417 8.26234 19.696 8.38245 19.6274C12.9998 16.9884 15.6388 12.4625 15.999 5.12604C16.0105 4.90017 15.919 4.6743 15.7703 4.50853C15.6245 4.34268 15.4158 4.23979 15.1985 4.23405C13.5173 4.19117 11.4131 2.40136 10.0064 1.69514C9.1372 1.26062 8.56257 0.968916 8.13083 0.894641C8.08796 0.888901 8.03647 0.894641 7.99359 0.894641V4.6022C10.7552 4.6022 13.0004 6.84436 13.0004 9.60914C13.0004 12.3738 10.7552 14.616 7.99359 14.616V19.7417Z" fill="#00B400"/>
<path d="M7.27908 5.62674C7.08052 5.64352 6.85509 5.70414 6.74063 5.73441C6.38396 5.832 6.07103 6.06761 5.7715 6.27286C5.435 6.50169 4.95717 6.68676 4.74852 7.05353C4.66103 7.20834 4.69469 7.31271 4.74852 7.40351C4.80906 7.50787 4.86959 7.61215 4.74852 7.75348C4.63067 7.89151 4.4389 7.90499 4.47925 8.13042C4.54318 8.49719 5.15564 8.403 5.39455 8.56111C5.53597 8.65539 5.66382 8.80681 5.55615 8.99189C5.4383 9.19045 5.19608 9.11304 5.0177 9.1534C4.83262 9.19715 4.75522 9.23759 4.61389 9.36883C4.30766 9.65149 4.1091 9.99138 4.12928 10.4187C4.14945 10.8865 4.45908 11.4283 4.85619 11.684C5.05475 11.8119 5.09511 11.822 5.23305 12.0609C5.62677 12.7272 6.45128 13.6392 7.30604 13.5954C7.47086 13.5854 6.92241 11.7278 6.90214 11.5764C6.78438 10.762 7.81753 9.90719 7.35988 9.09956C7.16132 8.74958 6.8483 9.05582 6.52529 9.07269C6.37726 9.07938 5.97336 8.94145 5.933 8.77655C5.85229 8.45344 6.36378 7.99249 6.65992 8.1573C6.90553 8.29533 6.7642 8.72271 7.09061 8.50728C7.53487 8.21453 7.55835 7.56841 7.6829 7.10736C7.77709 6.76417 8.13715 5.99689 7.76369 5.70754C7.66611 5.63344 7.47764 5.60995 7.27908 5.62674Z" fill="#0091FF"/>
<path d="M9.83656 5.94986C9.78272 5.94647 9.75245 6.0003 9.67505 6.11137C9.48318 6.38733 9.42935 6.81811 9.32507 7.13443C9.20053 7.51806 9.07268 8.04294 9.40578 8.34587C9.86013 8.76317 10.338 8.29873 10.8327 8.48042C11.4518 8.70594 10.5937 9.09966 10.348 9.26117C10.0385 9.46303 9.62121 9.84667 9.78272 10.2573C9.84665 10.4222 10.0587 10.5097 10.1865 10.6073C10.3884 10.7621 10.4456 10.8764 10.5095 11.1187C10.6004 11.4687 10.597 11.9062 10.4557 12.2494C10.3077 12.6061 9.9611 12.8215 9.78272 13.1378C10.1327 13.1916 11.113 12.652 11.6403 11.1995C11.9062 10.6712 12.0748 9.17307 11.5326 7.86126C11.472 7.74689 11.3913 7.63243 11.3172 7.51128C11.122 7.18148 10.8899 6.84498 10.6442 6.59598C10.4658 6.41429 10.2807 6.26279 10.0789 6.11137C9.9644 6.02726 9.89039 5.95325 9.83656 5.94986Z" fill="#0091FF"/>
<path d="M8.04323 19.7404C7.95461 19.7404 7.7644 19.712 7.63063 19.6356C5.24845 18.2742 3.47821 16.4764 2.21867 14.1396C0.905465 11.7031 0.179938 8.7457 0.000861239 5.09832C-0.00914063 4.89959 0.0683521 4.69251 0.213597 4.53048C0.345099 4.38088 0.539136 4.28748 0.730911 4.28252C1.93209 4.2519 3.32192 3.36417 4.54806 2.58098C5.07242 2.24614 5.56625 1.93069 5.99207 1.71778L6.02616 1.70073C6.13392 1.64663 6.23785 1.5941 6.33796 1.54348C7.00513 1.2062 7.48722 0.962593 7.85215 0.89545L7.88999 0.891189C7.90651 0.890493 7.92373 0.891015 7.94034 0.891971C7.96217 0.892928 7.97835 0.893624 7.99366 0.893624V1.43816C7.97157 1.43816 7.94809 1.43738 7.92399 1.43642C7.63394 1.49878 7.1682 1.73404 6.58366 2.02949C6.48303 2.08037 6.37857 2.13316 6.27029 2.18752L6.23576 2.20474C5.83526 2.40504 5.35317 2.71301 4.84281 3.03898C3.55518 3.8614 2.09751 4.79235 0.744913 4.82688C0.703427 4.82801 0.654635 4.85358 0.62089 4.89202C0.571229 4.94734 0.542006 5.01692 0.544789 5.07119C0.719865 8.63611 1.42417 11.5178 2.69806 13.8812C3.90785 16.1258 5.60973 17.8534 7.90069 19.1627C7.92678 19.1771 8.0107 19.1954 8.04349 19.1958L8.04323 19.7404Z" fill="#00B400"/>
<path d="M8.04349 15.0475C5.0451 15.0475 2.60577 12.6082 2.60577 9.60983C2.60577 6.61153 5.0451 4.17212 8.04349 4.17212C11.0419 4.17212 13.4811 6.61153 13.4811 9.60983C13.4811 12.6082 11.0419 15.0475 8.04349 15.0475ZM8.04349 4.60394C5.28323 4.60394 3.03751 6.84958 3.03751 9.60983C3.03751 12.3702 5.28323 14.6158 8.04349 14.6158C10.8037 14.6158 13.0494 12.3702 13.0494 9.60983C13.0494 6.84958 10.8037 4.60394 8.04349 4.60394Z" fill="#00B400"/>
</svg>
