<svg width="14" height="14" viewBox="0 0 14 14" fill="none" xmlns="http://www.w3.org/2000/svg">
<path d="M2.47226 1.74316C2.17553 1.74316 1.90842 1.92318 1.79677 2.19813C1.68512 2.47309 1.7512 2.7883 1.96412 2.99515L5.96897 7L1.96058 11.0071C1.67549 11.292 1.67549 11.7543 1.96058 12.0394C2.24566 12.3244 2.70797 12.3244 2.99306 12.0394L6.99993 8.03096L11.0045 12.0358C11.1876 12.2262 11.4592 12.3029 11.7147 12.2363C11.9702 12.1697 12.1697 11.9702 12.2363 11.7148C12.3028 11.4593 12.2261 11.1876 12.0357 11.0046L8.03089 7L12.0312 2.99971C12.2216 2.81691 12.2983 2.54525 12.2317 2.28979C12.1651 2.03432 11.9656 1.83482 11.7101 1.76823C11.4547 1.70164 11.183 1.77836 11.0002 1.96875L6.99993 5.96904L2.99508 1.96419C2.85786 1.82292 2.66924 1.74316 2.47226 1.74316Z" fill="white"/>
</svg>
