<svg width="9" height="9" viewBox="0 0 9 9" fill="none" xmlns="http://www.w3.org/2000/svg">
<path d="M1.441 0.936829C1.50044 0.96194 1.55425 0.998716 1.59925 1.04498L4.63763 4.08417L7.67601 1.04498C7.76346 0.954952 7.88251 0.902512 8.00795 0.89877C8.1052 0.895897 8.20106 0.92249 8.28295 0.975046C8.36484 1.0276 8.42895 1.10369 8.46687 1.19331C8.5048 1.28294 8.51476 1.38193 8.49547 1.47733C8.47618 1.57272 8.42853 1.66005 8.35875 1.72789L5.32037 4.76709L8.35875 7.80628C8.40509 7.85078 8.44208 7.90408 8.46757 7.96306C8.49305 8.02204 8.50652 8.08552 8.50717 8.14977C8.50783 8.21403 8.49566 8.27776 8.47137 8.33726C8.44709 8.39674 8.41119 8.45079 8.36577 8.49622C8.32034 8.54166 8.26631 8.57757 8.20684 8.60186C8.14737 8.62615 8.08365 8.63832 8.01941 8.63766C7.95517 8.63701 7.89172 8.62354 7.83275 8.59805C7.77379 8.57256 7.7205 8.53555 7.67601 8.4892L4.63763 5.45001L1.59925 8.4892C1.55476 8.53555 1.50147 8.57256 1.4425 8.59805C1.38354 8.62354 1.32008 8.63701 1.25584 8.63766C1.19161 8.63832 1.12789 8.62615 1.06842 8.60186C1.00895 8.57757 0.954919 8.54166 0.909495 8.49622C0.864071 8.45079 0.828165 8.39674 0.803889 8.33726C0.779605 8.27777 0.767438 8.21403 0.768091 8.14978C0.768745 8.08553 0.782212 8.02205 0.807697 7.96307C0.833181 7.90409 0.870179 7.85079 0.916514 7.80629L3.9549 4.7671L0.916513 1.7279C0.847682 1.66089 0.800396 1.57488 0.780689 1.48084C0.76099 1.38681 0.769772 1.28904 0.805909 1.20002C0.842054 1.11101 0.903916 1.0348 0.983582 0.981139C1.06326 0.927474 1.15711 0.898803 1.25316 0.898778C1.31769 0.898778 1.38156 0.91171 1.441 0.936829Z" fill="#F41A06"/>
</svg>
