<svg width="11" height="11" viewBox="0 0 11 11" fill="none" xmlns="http://www.w3.org/2000/svg">
<path d="M8.37682 0.608407C8.66162 0.608407 8.89276 0.839546 8.89276 1.12435C8.89276 1.40915 8.66162 1.64028 8.37682 1.64028H1.66957V8.34752C1.66957 8.63232 1.43843 8.86346 1.15363 8.86346C0.868835 8.86346 0.637695 8.63232 0.637695 8.34752V1.64028C0.637695 1.07017 1.09946 0.608398 1.66958 0.608398L8.37682 0.608407ZM9.92465 2.67217C10.4948 2.67217 10.9565 3.13393 10.9565 3.70406V9.89535C10.9565 10.4655 10.4948 10.9272 9.92465 10.9272H3.73334C3.16323 10.9272 2.70145 10.4655 2.70145 9.89535V3.70406C2.70145 3.13394 3.16322 2.67217 3.73334 2.67217H9.92465ZM3.73334 9.89535H9.92465V3.70406H3.73334V9.89535Z" fill="#00DC00"/>
</svg>
