<svg width="200" height="200" viewBox="0 0 200 200" fill="none" xmlns="http://www.w3.org/2000/svg">
<circle cx="100" cy="100" r="100" fill="#3A4962" fill-opacity="0.3"/>
<circle cx="100" cy="100" r="78.5" fill="#3A4962" fill-opacity="0.4" style="mix-blend-mode:color-dodge"/>
<circle cx="100" cy="100" r="78.5" stroke="#F41A06"/>
<path d="M100 33.5591C136.405 33.5591 165.918 63.0718 165.918 99.4771C165.918 135.882 136.405 165.395 100 165.395C63.5948 165.395 34.082 135.882 34.082 99.4771C34.082 63.0718 63.5948 33.5591 100 33.5591ZM100 33.9487C63.8096 33.9487 34.4717 63.2867 34.4717 99.4771C34.4717 135.667 63.8096 165.005 100 165.005C136.19 165.005 165.528 135.667 165.528 99.4771C165.528 63.2867 136.19 33.9487 100 33.9487Z" fill="#39394B" stroke="#F41A06" stroke-width="0.165"/>
<path d="M86.746 66.6484C87.8903 66.5029 88.986 67.1369 89.4218 68.2061C89.8579 69.2767 89.5211 70.498 88.5966 71.1914L88.5878 71.1982C83.9187 74.876 80.911 80.578 80.911 87C80.911 98.1314 89.8685 107.089 101 107.089C112.131 107.089 121.089 98.1314 121.089 87C121.089 80.579 118.082 74.878 113.414 71.2002H113.415C112.318 70.3209 112.14 68.7298 113.018 67.6338C113.898 66.5365 115.489 66.3592 116.585 67.2373L116.588 67.2393C122.426 71.842 126.161 78.999 126.161 87C126.161 100.861 114.861 112.161 101 112.161C87.1391 112.161 75.8387 100.861 75.8387 87C75.8387 78.999 79.5742 71.842 85.412 67.2393L85.4178 67.2354L85.4237 67.2305C85.8029 66.9111 86.2585 66.7075 86.743 66.6484H86.746ZM101 61.4639C102.954 61.4639 104.536 63.0455 104.536 65V85C104.536 86.9545 102.954 88.5361 101 88.5361C99.0454 88.5361 97.4637 86.9545 97.4637 85V65C97.4637 63.0455 99.0454 61.4639 101 61.4639Z" fill="url(#paint0_linear_2316_4558)" stroke="#F41A06" stroke-width="0.928571"/>
<path d="M66.4598 123.242C69.6658 123.242 71.6398 125.118 71.6398 128.142C71.6398 131.166 69.6658 133 66.4598 133H63.4218V123.242H66.4598ZM64.6958 131.95H66.4598C69.0078 131.95 70.3378 130.522 70.3378 128.142C70.3378 125.762 69.0078 124.278 66.4598 124.278H64.6958V131.95Z" fill="#F41A06"/>
<path d="M73.3202 133V125.328H74.5942V133H73.3202ZM73.9782 124.082C73.4882 124.082 73.1102 123.704 73.1102 123.214C73.1102 122.724 73.4882 122.346 73.9782 122.346C74.4402 122.346 74.8182 122.724 74.8182 123.214C74.8182 123.704 74.4402 124.082 73.9782 124.082Z" fill="#F41A06"/>
<path d="M82.2815 130.914C82.2815 132.174 81.1755 133.126 79.4815 133.126C77.6895 133.126 76.4295 132.146 76.3455 130.746H77.6615C77.7315 131.488 78.3895 132.048 79.4675 132.048C80.4755 132.048 81.0355 131.544 81.0355 130.914C81.0355 129.206 76.4995 130.2 76.4995 127.344C76.4995 126.168 77.6055 125.202 79.3135 125.202C81.0075 125.202 82.1275 126.112 82.2115 127.61H80.9375C80.8815 126.84 80.2935 126.28 79.2715 126.28C78.3335 126.28 77.7735 126.728 77.7735 127.344C77.7735 129.164 82.2255 128.17 82.2815 130.914Z" fill="#F41A06"/>
<path d="M83.604 129.15C83.604 126.742 85.158 125.202 87.342 125.202C89.246 125.202 90.492 126.182 90.884 127.792H89.512C89.246 126.868 88.476 126.28 87.342 126.28C85.942 126.28 84.906 127.274 84.906 129.15C84.906 131.054 85.942 132.048 87.342 132.048C88.476 132.048 89.232 131.502 89.512 130.536H90.884C90.492 132.062 89.246 133.126 87.342 133.126C85.158 133.126 83.604 131.586 83.604 129.15Z" fill="#F41A06"/>
<path d="M99.8639 129.15C99.8639 131.586 98.1139 133.126 95.9299 133.126C93.7599 133.126 92.1079 131.586 92.1079 129.15C92.1079 126.728 93.8159 125.202 95.9859 125.202C98.1699 125.202 99.8639 126.728 99.8639 129.15ZM93.4099 129.15C93.4099 131.096 94.5999 132.006 95.9299 132.006C97.2599 132.006 98.5619 131.096 98.5619 129.15C98.5619 127.218 97.2879 126.308 95.9719 126.308C94.6279 126.308 93.4099 127.218 93.4099 129.15Z" fill="#F41A06"/>
<path d="M107.153 133V128.66C107.153 127.092 106.299 126.294 105.011 126.294C103.709 126.294 102.813 127.106 102.813 128.758V133H101.539V125.328H102.813V126.42C103.317 125.622 104.241 125.188 105.277 125.188C107.055 125.188 108.413 126.28 108.413 128.478V133H107.153Z" fill="#F41A06"/>
<path d="M116.108 133V128.66C116.108 127.092 115.254 126.294 113.966 126.294C112.664 126.294 111.768 127.106 111.768 128.758V133H110.494V125.328H111.768V126.42C112.272 125.622 113.196 125.188 114.232 125.188C116.01 125.188 117.368 126.28 117.368 128.478V133H116.108Z" fill="#F41A06"/>
<path d="M122.711 126.28C121.465 126.28 120.429 127.106 120.289 128.604H125.133C125.147 127.106 124.027 126.28 122.711 126.28ZM126.295 130.634C125.903 132.034 124.671 133.126 122.767 133.126C120.583 133.126 118.973 131.586 118.973 129.15C118.973 126.728 120.527 125.202 122.767 125.202C124.993 125.202 126.449 126.77 126.449 128.87C126.449 129.15 126.435 129.374 126.407 129.64H120.275C120.373 131.194 121.465 132.048 122.767 132.048C123.915 132.048 124.643 131.46 124.923 130.634H126.295Z" fill="#F41A06"/>
<path d="M127.655 129.15C127.655 126.742 129.209 125.202 131.393 125.202C133.297 125.202 134.543 126.182 134.935 127.792H133.563C133.297 126.868 132.527 126.28 131.393 126.28C129.993 126.28 128.957 127.274 128.957 129.15C128.957 131.054 129.993 132.048 131.393 132.048C132.527 132.048 133.283 131.502 133.563 130.536H134.935C134.543 132.062 133.297 133.126 131.393 133.126C129.209 133.126 127.655 131.586 127.655 129.15Z" fill="#F41A06"/>
<path d="M136.915 130.9V126.378H135.921V125.328H136.915V123.396H138.189V125.328H140.191V126.378H138.189V130.9C138.189 131.656 138.469 131.922 139.253 131.922H140.191V133H139.043C137.685 133 136.915 132.44 136.915 130.9Z" fill="#F41A06"/>
<defs>
<linearGradient id="paint0_linear_2316_4558" x1="101" y1="61" x2="101" y2="112.625" gradientUnits="userSpaceOnUse">
<stop stop-color="#FA3422"/>
<stop offset="1" stop-color="#7A1911"/>
</linearGradient>
</defs>
</svg>
