<svg width="20" height="20" viewBox="0 0 20 20" fill="none" xmlns="http://www.w3.org/2000/svg">
<path d="M9.16671 1.66672C8.70664 1.66672 8.33337 2.03998 8.33337 2.50005V9.16672H5.41671C5.18667 9.16672 5.00004 9.35335 5.00004 9.58338C5.00004 9.69379 5.04399 9.79986 5.12211 9.87798C5.13052 9.88639 5.1392 9.89453 5.14815 9.90239L9.40271 13.9144L9.43038 13.9405C9.58473 14.0856 9.78818 14.1664 10 14.1667C10.2119 14.1664 10.4154 14.0856 10.5697 13.9405L10.5811 13.9307C10.5838 13.9275 10.5865 13.9242 10.5892 13.9209L14.8422 9.91053C14.8506 9.90321 14.8587 9.89561 14.8666 9.88775L14.8731 9.88286C14.8747 9.88124 14.8763 9.87961 14.878 9.87798C14.9561 9.79986 15 9.69379 15 9.58338C15 9.35335 14.8134 9.16672 14.5834 9.16672H11.6667V2.50005C11.6667 2.03998 11.2934 1.66672 10.8334 1.66672H9.16671ZM2.50004 16.6667C2.19948 16.6624 1.92007 16.8203 1.76843 17.0799C1.61707 17.3395 1.61707 17.6606 1.76843 17.9202C1.92007 18.1798 2.19948 18.3377 2.50004 18.3334H17.5C17.8006 18.3377 18.08 18.1798 18.2316 17.9202C18.383 17.6606 18.383 17.3395 18.2316 17.0799C18.08 16.8203 17.8006 16.6624 17.5 16.6667H2.50004Z" fill="#00DC00"/>
</svg>
