<svg width="406" height="181" viewBox="0 0 406 181" fill="none" xmlns="http://www.w3.org/2000/svg">
<g filter="url(#filter0_d_131_2083)">
<path d="M50.5343 82V50.98H71.5663V57.844H59.1583V63.3H68.3103V69.856H59.1583V82H50.5343ZM73.7904 69.636C73.7904 61.76 78.4544 57.008 84.3064 57.008C87.8264 57.008 90.2904 58.548 91.5664 60.748V57.316H100.19V82H91.5664V78.568C90.2904 80.768 87.7824 82.308 84.3064 82.308C78.4544 82.308 73.7904 77.512 73.7904 69.636ZM91.5664 69.636C91.5664 66.336 89.4984 64.532 87.0784 64.532C84.6144 64.532 82.5904 66.292 82.5904 69.636C82.5904 72.936 84.6144 74.784 87.0784 74.784C89.4984 74.784 91.5664 72.98 91.5664 69.636ZM125.873 74.74C125.873 79.052 122.001 82.308 115.621 82.308C108.757 82.308 104.181 78.612 103.829 73.684H112.189C112.409 75.312 113.773 76.192 115.577 76.192C117.029 76.192 117.865 75.488 117.865 74.608C117.865 71 104.753 73.948 104.753 64.884C104.753 60.572 108.317 57.008 115.005 57.008C121.737 57.008 125.257 60.748 125.829 65.632H118.041C117.777 64.092 116.677 63.168 114.829 63.168C113.421 63.168 112.673 63.74 112.673 64.664C112.673 68.184 125.829 65.368 125.873 74.74ZM131.476 72.628V64.488H128.44V57.316H131.476V51.332H140.144V57.316H144.632V64.488H140.144V72.76C140.144 74.08 140.716 74.652 142.168 74.652H144.676V82H140.936C135.48 82 131.476 79.712 131.476 72.628ZM180.066 58.768H172.102C172.102 57.36 171.178 56.7 170.122 56.7C168.978 56.7 168.054 57.404 168.054 58.592C168.054 59.692 168.802 60.88 170.254 62.332L177.514 69.416C177.822 68.8 178.086 68.184 178.35 67.524L179.23 65.94H187.766L186.49 68.404C185.478 70.824 184.334 72.98 183.014 74.784L190.406 82H180.682L178.174 79.624C175.402 81.516 172.102 82.484 168.186 82.484C160.794 82.484 156.174 78.656 156.174 72.98C156.174 69.328 158.066 66.072 162.07 64.092C160.574 62.2 160.002 60.572 160.002 58.68C160.002 54.148 163.61 50.364 170.166 50.364C176.854 50.364 180.154 54.456 180.066 58.768ZM168.758 75.576C170.342 75.576 171.706 75.224 172.894 74.564L166.778 68.756C165.238 69.68 164.49 70.956 164.49 72.232C164.49 74.036 166.03 75.576 168.758 75.576ZM224.588 72.584C224.588 78.04 220.364 82.308 213.016 82.308C206.108 82.308 200.74 79.008 200.388 72.364H209.584C209.76 74.696 211.124 75.488 212.708 75.488C214.248 75.488 215.436 74.696 215.436 73.244C215.392 68.272 200.344 70.604 200.476 59.824C200.476 53.752 205.536 50.496 212.092 50.496C219.22 50.496 223.884 53.972 224.192 60.132H214.82C214.732 58.196 213.544 57.316 211.96 57.316C210.684 57.272 209.672 58.02 209.672 59.516C209.672 64.136 224.588 62.64 224.588 72.584ZM239.685 63.828C237.617 63.828 236.165 64.972 235.769 67.216H243.381C243.381 65.016 241.665 63.828 239.685 63.828ZM251.653 73.464C250.509 78.524 245.889 82.308 239.729 82.308C232.425 82.308 227.189 77.512 227.189 69.636C227.189 61.804 232.337 57.008 239.729 57.008C247.033 57.008 252.181 61.716 252.181 69.372C252.181 70.032 252.137 70.736 252.049 71.396H235.725C235.901 74.256 237.441 75.4 239.377 75.4C241.049 75.4 241.973 74.476 242.457 73.464H251.653ZM254.302 69.636C254.302 61.804 259.45 57.008 266.798 57.008C273.046 57.008 277.622 60.572 278.854 66.776H269.702C269.218 65.28 268.25 64.356 266.622 64.356C264.51 64.356 263.102 66.116 263.102 69.636C263.102 73.2 264.51 74.96 266.622 74.96C268.25 74.96 269.218 74.08 269.702 72.54H278.854C277.622 78.656 273.046 82.308 266.798 82.308C259.45 82.308 254.302 77.512 254.302 69.636ZM307.693 57.316V82H299.025V78.48C297.617 80.592 295.021 82.22 291.545 82.22C285.825 82.22 282.261 78.172 282.261 71.66V57.316H290.841V70.56C290.841 73.42 292.469 75.092 294.933 75.092C297.441 75.092 299.025 73.42 299.025 70.56V57.316H307.693ZM321.225 71.22V82H312.601V57.316H321.225V61.672C323.073 58.988 325.889 57.096 329.189 57.096V66.292H326.769C323.205 66.292 321.225 67.436 321.225 71.22ZM343.368 63.828C341.3 63.828 339.848 64.972 339.452 67.216H347.064C347.064 65.016 345.348 63.828 343.368 63.828ZM355.336 73.464C354.192 78.524 349.572 82.308 343.412 82.308C336.108 82.308 330.872 77.512 330.872 69.636C330.872 61.804 336.02 57.008 343.412 57.008C350.716 57.008 355.864 61.716 355.864 69.372C355.864 70.032 355.82 70.736 355.732 71.396H339.408C339.584 74.256 341.124 75.4 343.06 75.4C344.732 75.4 345.656 74.476 346.14 73.464H355.336Z" fill="white"/>
<path d="M141.359 117.636C141.359 109.76 146.023 105.008 151.919 105.008C155.175 105.008 157.727 106.46 159.091 108.704V97.44H167.759V130H159.091V126.568C157.815 128.768 155.351 130.308 151.875 130.308C146.023 130.308 141.359 125.512 141.359 117.636ZM159.135 117.636C159.135 114.336 157.067 112.532 154.647 112.532C152.183 112.532 150.159 114.292 150.159 117.636C150.159 120.936 152.183 122.784 154.647 122.784C157.067 122.784 159.135 120.98 159.135 117.636ZM186.665 121.376L193.661 98.98H202.857L192.165 130H181.121L170.385 98.98H179.625L186.665 121.376ZM214.168 112.664H217.6C220.196 112.664 221.252 111.344 221.252 109.32C221.252 107.252 220.196 105.932 217.6 105.932H214.168V112.664ZM230.052 109.32C230.052 114.732 226.312 119.528 218.436 119.528H214.168V130H205.544V98.98H218.436C226.136 98.98 230.052 103.336 230.052 109.32ZM253.625 98.98H262.249V130H253.625L242.141 112.664V130H233.517V98.98H242.141L253.625 116.536V98.98Z" fill="#00DC00"/>
</g>
<defs>
<filter id="filter0_d_131_2083" x="0.534424" y="0.363998" width="405.33" height="179.944" filterUnits="userSpaceOnUse" color-interpolation-filters="sRGB">
<feFlood flood-opacity="0" result="BackgroundImageFix"/>
<feColorMatrix in="SourceAlpha" type="matrix" values="0 0 0 0 0 0 0 0 0 0 0 0 0 0 0 0 0 0 127 0" result="hardAlpha"/>
<feOffset/>
<feGaussianBlur stdDeviation="25"/>
<feComposite in2="hardAlpha" operator="out"/>
<feColorMatrix type="matrix" values="0 0 0 0 0 0 0 0 0 0.862745 0 0 0 0 0 0 0 0 0.56 0"/>
<feBlend mode="normal" in2="BackgroundImageFix" result="effect1_dropShadow_131_2083"/>
<feBlend mode="normal" in="SourceGraphic" in2="effect1_dropShadow_131_2083" result="shape"/>
</filter>
</defs>
</svg>
