<svg width="18" height="18" viewBox="0 0 18 18" fill="none" xmlns="http://www.w3.org/2000/svg">
<path d="M2.81248 2L2.13944 2.67304L15.4664 16L16.1394 15.327L13.2716 12.4591C15.221 11.1392 16.1833 9.29345 16.1961 9.26866C16.2502 9.18949 16.279 9.09591 16.2789 9C16.2789 8.89263 16.2425 8.78851 16.1757 8.70438C16.1261 8.62459 13.3842 4.24037 9.13944 4.24037C7.93513 4.24037 6.85445 4.5975 5.91926 5.10677L2.81248 2ZM9.13944 5.66826C10.9795 5.66826 12.4712 7.15998 12.4712 9C12.4712 9.74819 12.2189 10.4339 11.8019 10.9894L10.4251 9.61262C10.5148 9.42731 10.5673 9.22032 10.5673 9C10.5673 8.21138 9.92807 7.57211 9.13944 7.57211C8.91912 7.57211 8.71213 7.62463 8.52683 7.71434L7.15007 6.33758C7.70551 5.9205 8.39126 5.66826 9.13944 5.66826ZM4.35657 6.18048C2.94201 7.37039 2.13092 8.66069 2.10412 8.70345C2.03687 8.78774 2.00015 8.89216 2 9C2.00015 9.09203 2.02696 9.1822 2.07716 9.25936C2.07778 9.26029 2.0784 9.26122 2.07902 9.26215C2.08723 9.27904 4.3888 13.7596 9.13944 13.7596C10.0199 13.7596 10.8151 13.6042 11.5286 13.3534L10.2968 12.1207C9.9355 12.2549 9.54692 12.3317 9.13944 12.3317C7.29942 12.3317 5.8077 10.84 5.8077 9C5.8077 8.59252 5.88455 8.20394 6.01873 7.84263L4.35657 6.18048Z" fill="#ACACAC"/>
</svg>
