<svg width="20" height="22" viewBox="0 0 20 22" fill="none" xmlns="http://www.w3.org/2000/svg">
<path d="M18.3958 21.2913H13.5208C12.7732 21.2913 12.1667 20.6847 12.1667 19.9371V15.0621C12.1667 14.464 11.6814 13.9788 11.0833 13.9788H8.91667C8.31858 13.9788 7.83333 14.464 7.83333 15.0621V19.9371C7.83333 20.6847 7.22678 21.2913 6.47917 21.2913H1.60417C0.856554 21.2913 0.25 20.6847 0.25 19.9371V9.5984C0.25 8.35332 0.820819 7.17689 1.79883 6.4067L9.49689 0.340224C9.79217 0.107946 10.2078 0.107946 10.5031 0.340224L18.2021 6.4067C19.1792 7.17689 19.75 8.35238 19.75 9.59746V19.9371C19.75 20.6847 19.1434 21.2913 18.3958 21.2913Z" fill="#ACACAC"/>
</svg>
