<svg width="22" height="22" viewBox="0 0 22 22" fill="none" xmlns="http://www.w3.org/2000/svg">
<path d="M8.00012 2.00006C5.71851 2.00006 3.86219 3.83529 3.86219 6.09097C3.86219 8.34665 5.71851 10.1819 8.00012 10.1819C10.2817 10.1819 12.1381 8.34665 12.1381 6.09097C12.1381 3.83529 10.2817 2.00006 8.00012 2.00006ZM15.4484 11.0001C12.9347 11.0001 10.8967 13.015 10.8967 15.5001C10.8967 17.9851 12.9347 20.0001 15.4484 20.0001C17.962 20.0001 20.0001 17.9851 20.0001 15.5001C20.0001 13.015 17.962 11.0001 15.4484 11.0001ZM3.54035 11.8182C2.69121 11.8182 2.00012 12.5484 2.00012 13.4461V14.0682C2.00012 15.4106 2.70199 16.5768 3.97642 17.3523C5.04825 18.0043 6.47713 18.3637 8.00012 18.3637C8.90601 18.3637 9.83417 18.2309 10.6812 17.9589C10.2918 17.2224 10.0691 16.3878 10.0691 15.5001C10.0691 14.0697 10.6431 12.7742 11.572 11.8182H3.54035ZM15.4484 12.2273C15.6768 12.2273 15.8622 12.4106 15.8622 12.6364V15.091H18.3449C18.5734 15.091 18.7587 15.2742 18.7587 15.5001C18.7587 15.7259 18.5734 15.9092 18.3449 15.9092H15.8622V18.3637C15.8622 18.5896 15.6768 18.7728 15.4484 18.7728C15.2199 18.7728 15.0346 18.5896 15.0346 18.3637V15.9092H12.5518C12.3234 15.9092 12.1381 15.7259 12.1381 15.5001C12.1381 15.2742 12.3234 15.091 12.5518 15.091H15.0346V12.6364C15.0346 12.4106 15.2199 12.2273 15.4484 12.2273Z" fill="url(#paint0_linear_131_500)"/>
<defs>
<linearGradient id="paint0_linear_131_500" x1="11.0001" y1="2.00006" x2="11.0001" y2="20.0001" gradientUnits="userSpaceOnUse">
<stop stop-color="#0094FF"/>
<stop offset="1" stop-color="#007BFF"/>
</linearGradient>
</defs>
</svg>
