<svg width="22" height="22" viewBox="0 0 22 22" fill="none" xmlns="http://www.w3.org/2000/svg">
<path d="M11.75 2.75V3.5C11.75 3.95 11.45 4.25001 11 4.25001C10.55 4.25001 10.25 3.95 10.25 3.5V2.75C10.25 2.3 10.55 2 11 2C11.45 2 11.75 2.3 11.75 2.75ZM5.15001 4.4C5.33751 4.4 5.525 4.475 5.67501 4.625L6.20001 5.15C6.50001 5.45 6.50001 5.9 6.20001 6.2C5.90001 6.5 5.45001 6.5 5.15001 6.2L4.62501 5.67499C4.32501 5.37499 4.32501 4.92499 4.62501 4.625C4.77501 4.475 4.9625 4.4 5.15001 4.4ZM16.85 4.4C17.0375 4.4 17.225 4.475 17.375 4.625C17.675 4.925 17.675 5.375 17.375 5.67499L16.85 6.2C16.55 6.5 16.1 6.5 15.8 6.2C15.5 5.89999 15.5 5.44999 15.8 5.15L16.325 4.625C16.475 4.475 16.6625 4.4 16.85 4.4ZM16.25 11C16.25 13.9025 13.9025 16.25 11 16.25C8.0975 16.25 5.75 13.9025 5.75 11C5.75 8.0975 8.0975 5.75 11 5.75C13.9025 5.75 16.25 8.0975 16.25 11ZM3.5 10.25C3.95 10.25 4.25001 10.55 4.25001 11C4.25001 11.45 3.95 11.75 3.5 11.75H2.75C2.3 11.75 2 11.45 2 11C2 10.55 2.3 10.25 2.75 10.25H3.5ZM19.25 10.25C19.7 10.25 20 10.55 20 11C20 11.45 19.7 11.75 19.25 11.75H18.5C18.05 11.75 17.75 11.45 17.75 11C17.75 10.55 18.05 10.25 18.5 10.25H19.25ZM6.2 15.8C6.5 16.1 6.5 16.55 6.2 16.85L5.675 17.375C5.375 17.675 4.925 17.675 4.625 17.375C4.325 17.075 4.325 16.625 4.625 16.325L5.15001 15.8C5.3 15.65 5.48751 15.575 5.67501 15.575C5.86251 15.575 6.05 15.65 6.2 15.8ZM16.85 15.8L17.375 16.325C17.675 16.625 17.675 17.075 17.375 17.375C17.075 17.675 16.625 17.675 16.325 17.375L15.8 16.85C15.5 16.55 15.5 16.1 15.8 15.8C15.95 15.65 16.1375 15.575 16.325 15.575C16.5125 15.575 16.7 15.65 16.85 15.8ZM11.75 18.5V19.25C11.75 19.7 11.45 20 11 20C10.55 20 10.25 19.7 10.25 19.25V18.5C10.25 18.05 10.55 17.75 11 17.75C11.45 17.75 11.75 18.05 11.75 18.5Z" fill="url(#paint0_linear_131_506)"/>
<defs>
<linearGradient id="paint0_linear_131_506" x1="11" y1="2" x2="11" y2="20" gradientUnits="userSpaceOnUse">
<stop stop-color="#0094FF"/>
<stop offset="1" stop-color="#007BFF"/>
</linearGradient>
</defs>
</svg>
