<svg width="23" height="23" viewBox="0 0 23 23" fill="none" xmlns="http://www.w3.org/2000/svg">
<path d="M12.4571 1.45707V2.37374C12.4571 2.92374 12.0904 3.29041 11.5404 3.29041C10.9904 3.29041 10.6237 2.92374 10.6237 2.37374V1.45707C10.6237 0.907074 10.9904 0.540405 11.5404 0.540405C12.0904 0.540405 12.4571 0.907074 12.4571 1.45707ZM4.39041 3.47373C4.61958 3.47373 4.84874 3.5654 5.03208 3.74873L5.67375 4.3904C6.04042 4.75707 6.04042 5.30707 5.67375 5.67373C5.30708 6.0404 4.75708 6.0404 4.39042 5.67373L3.74875 5.03207C3.38208 4.6654 3.38208 4.1154 3.74875 3.74873C3.93208 3.5654 4.16124 3.47373 4.39041 3.47373ZM18.6904 3.47373C18.9196 3.47373 19.1487 3.5654 19.3321 3.74873C19.6987 4.1154 19.6987 4.6654 19.3321 5.03207L18.6904 5.67373C18.3237 6.0404 17.7737 6.0404 17.4071 5.67373C17.0404 5.30706 17.0404 4.75707 17.4071 4.3904L18.0487 3.74873C18.2321 3.5654 18.4612 3.47373 18.6904 3.47373ZM17.9571 11.5404C17.9571 15.0879 15.0879 17.9571 11.5404 17.9571C7.99291 17.9571 5.12374 15.0879 5.12374 11.5404C5.12374 7.9929 7.99291 5.12373 11.5404 5.12373C15.0879 5.12373 17.9571 7.9929 17.9571 11.5404ZM2.37374 10.6237C2.92374 10.6237 3.29041 10.9904 3.29041 11.5404C3.29041 12.0904 2.92374 12.4571 2.37374 12.4571H1.45707C0.907074 12.4571 0.540405 12.0904 0.540405 11.5404C0.540405 10.9904 0.907074 10.6237 1.45707 10.6237H2.37374ZM21.6237 10.6237C22.1737 10.6237 22.5404 10.9904 22.5404 11.5404C22.5404 12.0904 22.1737 12.4571 21.6237 12.4571H20.7071C20.1571 12.4571 19.7904 12.0904 19.7904 11.5404C19.7904 10.9904 20.1571 10.6237 20.7071 10.6237H21.6237ZM5.67374 17.4071C6.04041 17.7737 6.04041 18.3237 5.67374 18.6904L5.03207 19.3321C4.6654 19.6987 4.1154 19.6987 3.74874 19.3321C3.38207 18.9654 3.38207 18.4154 3.74874 18.0487L4.39041 17.4071C4.57374 17.2237 4.80291 17.1321 5.03208 17.1321C5.26125 17.1321 5.4904 17.2237 5.67374 17.4071ZM18.6904 17.4071L19.3321 18.0487C19.6987 18.4154 19.6987 18.9654 19.3321 19.3321C18.9654 19.6987 18.4154 19.6987 18.0487 19.3321L17.4071 18.6904C17.0404 18.3237 17.0404 17.7737 17.4071 17.4071C17.5904 17.2237 17.8196 17.1321 18.0487 17.1321C18.2779 17.1321 18.5071 17.2237 18.6904 17.4071ZM12.4571 20.7071V21.6237C12.4571 22.1737 12.0904 22.5404 11.5404 22.5404C10.9904 22.5404 10.6237 22.1737 10.6237 21.6237V20.7071C10.6237 20.1571 10.9904 19.7904 11.5404 19.7904C12.0904 19.7904 12.4571 20.1571 12.4571 20.7071Z" fill="white"/>
</svg>
