<svg width="160" height="124" viewBox="0 0 160 124" fill="none" xmlns="http://www.w3.org/2000/svg">
<path d="M79.8868 0.726836C75.6542 0.793386 72.2734 4.26734 72.3333 8.49998V81.3333C72.2934 84.0952 73.7442 86.6707 76.1333 88.0616C78.5225 89.4592 81.4774 89.4592 83.8666 88.0616C86.2557 86.6707 87.7065 84.0952 87.6666 81.3333V8.49998C87.6932 6.43025 86.8813 4.43372 85.4172 2.9696C83.9531 1.50548 81.9565 0.700216 79.8868 0.726836ZM57.173 7.48176C56.4809 7.4751 55.7954 7.56162 55.1299 7.73465C34.1264 13.0321 15.7384 24.8582 2.23519 40.9169C-0.493396 44.158 -0.0741245 48.9962 3.16691 51.7248C6.40794 54.4467 11.2462 54.0275 13.9748 50.7864C25.4482 37.1369 41.061 27.0943 58.87 22.6088C62.6368 21.7037 65.1391 18.1366 64.7065 14.2899C64.274 10.4433 61.0396 7.52169 57.173 7.48176ZM102.594 7.48841C98.774 7.64813 95.6594 10.603 95.2867 14.4097C94.914 18.2164 97.4097 21.7103 101.13 22.6088C118.939 27.0943 134.545 37.1369 146.025 50.7864C148.754 54.0275 153.592 54.4467 156.833 51.7248C160.074 48.9962 160.493 44.158 157.765 40.9169C144.262 24.8582 125.873 13.0321 104.87 7.73465C104.131 7.54165 103.359 7.45514 102.594 7.48841ZM56.96 39.6259C56.015 39.6392 55.0766 39.8322 54.1982 40.1915C42.1125 44.9366 31.664 52.9028 23.8709 63.0052C21.2821 66.3594 21.9076 71.171 25.2618 73.7598C28.6093 76.3487 33.4276 75.7231 36.0164 72.3689C42.1391 64.4294 50.3449 58.1803 59.8017 54.4734C63.2957 53.1623 65.3454 49.522 64.64 45.8484C63.9412 42.1814 60.7002 39.5526 56.96 39.6259ZM102.807 39.6259C99.1134 39.6658 95.9788 42.3278 95.3399 45.9682C94.701 49.6018 96.7442 53.1756 100.198 54.4734C109.655 58.1803 117.861 64.4294 123.983 72.3689C126.572 75.7231 131.391 76.3487 134.745 73.7598C138.092 71.171 138.718 66.3594 136.129 63.0052C128.336 52.9028 117.887 44.9366 105.802 40.1915C104.85 39.8055 103.832 39.6125 102.807 39.6259ZM56.8535 75.4702C54.857 75.5301 52.967 76.362 51.5827 77.7928C49.1802 80.1886 47.0972 82.884 45.3668 85.8122C43.916 88.1681 43.8495 91.1296 45.2005 93.5521C46.5448 95.9745 49.0937 97.4786 51.8622 97.4919C54.6374 97.5052 57.1929 96.0211 58.5639 93.612C59.642 91.7951 60.9398 90.118 62.4172 88.634C64.6866 86.4311 65.372 83.057 64.1342 80.1487C62.903 77.2338 60.008 75.377 56.8535 75.4702ZM102.927 75.4702C99.8055 75.4702 96.9904 77.3602 95.8191 80.2485C94.6412 83.1435 95.3333 86.4577 97.5694 88.634C99.0601 90.1247 100.365 91.8018 101.436 93.612C103.586 97.259 108.291 98.4702 111.938 96.3206C115.585 94.1643 116.796 89.4658 114.64 85.8188C112.909 82.8773 110.813 80.1886 108.43 77.7995C106.986 76.3087 104.996 75.4702 102.927 75.4702ZM79.9999 100.5C73.651 100.5 68.4999 105.651 68.4999 112C68.4999 118.349 73.651 123.5 79.9999 123.5C86.3489 123.5 91.4999 118.349 91.4999 112C91.4999 105.651 86.3489 100.5 79.9999 100.5Z" fill="#8A8A9D" fill-opacity="0.6"/>
</svg>
