<svg width="27" height="26" viewBox="0 0 27 26" fill="none" xmlns="http://www.w3.org/2000/svg">
<path d="M13.0786 2.20215C12.8854 2.20215 12.6929 2.23277 12.5108 2.2934L5.30639 4.69652C4.57295 4.93934 4.07764 5.62746 4.07764 6.40152V16.3965C4.07764 18.2053 4.97764 19.884 6.48045 20.8875L11.3314 24.1184C11.8623 24.474 12.4701 24.6493 13.0776 24.6493C13.6851 24.6493 14.2929 24.474 14.8239 24.1184L19.6748 20.8875C21.1776 19.884 22.0776 18.2053 22.0776 16.3965V6.40152C22.0776 5.62746 21.5826 4.93934 20.8445 4.69652L13.6489 2.2934C13.4645 2.23277 13.2714 2.20215 13.0786 2.20215ZM13.0776 7.77871C14.4411 7.77871 15.5526 8.85434 15.5526 10.1771V11.6265C16.1917 11.73 16.6776 12.2878 16.6776 12.9537V16.5537C16.6776 17.2962 16.0701 17.9037 15.3276 17.9037H10.8276C10.0851 17.9037 9.47764 17.2962 9.47764 16.5537V12.9537C9.47764 12.2878 9.96357 11.73 10.6026 11.6265V10.1771C10.6026 8.85434 11.7142 7.77871 13.0776 7.77871ZM13.0776 9.12871C12.4567 9.12871 11.9526 9.60121 11.9526 10.1771V11.6037H14.2026V10.1771C14.2026 9.60121 13.6986 9.12871 13.0776 9.12871Z" fill="#ACACAC"/>
</svg>
