<svg width="18" height="18" viewBox="0 0 18 18" fill="none" xmlns="http://www.w3.org/2000/svg">
<path d="M8.99951 0.148438C13.8883 0.148438 17.852 4.11125 17.8521 9C17.8521 13.8888 13.8883 17.8525 8.99951 17.8525C4.11076 17.8525 0.147949 13.8888 0.147949 9C0.148037 4.1113 4.11081 0.148525 8.99951 0.148438ZM6.37451 7.72754C5.67132 7.72765 5.10214 8.29713 5.10205 9C5.10205 9.70295 5.67127 10.2733 6.37451 10.2734H11.6245C12.3278 10.2734 12.8979 9.70301 12.8979 9C12.8979 8.29706 12.3278 7.72754 11.6245 7.72754H6.37451Z" fill="url(#paint0_linear_95_323)" stroke="#818481" stroke-width="0.296043"/>
<defs>
<linearGradient id="paint0_linear_95_323" x1="15.3666" y1="2.6331" x2="2.63238" y2="15.3673" gradientUnits="userSpaceOnUse">
<stop stop-color="#929492"/>
<stop offset="1" stop-color="#747674"/>
</linearGradient>
</defs>
</svg>
