<svg width="22" height="22" viewBox="0 0 22 22" fill="none" xmlns="http://www.w3.org/2000/svg">
<path d="M11 1.83301C6.9502 1.83301 3.66667 5.11654 3.66667 9.16634V10.9102C3.1409 11.4118 2.75 12.0566 2.75 12.833C2.75 13.9714 3.53597 14.8155 4.53141 15.2285C5.72409 18.0791 8.11274 20.1663 11 20.1663H12.8333C13.164 20.1711 13.4713 19.9974 13.6381 19.7119C13.8046 19.4263 13.8046 19.073 13.6381 18.7875C13.4713 18.5019 13.164 18.3282 12.8333 18.333H11C8.92974 18.333 7.05016 16.7742 6.10514 14.3118C5.98519 13.9994 5.7047 13.7768 5.37288 13.7318C4.92141 13.6697 4.58333 13.3051 4.58333 12.833C4.58333 12.48 4.76147 12.2031 5.03988 12.0435C5.32454 11.8799 5.5 11.5768 5.5 11.2485V10.083C5.5 9.57693 5.91059 9.16634 6.41667 9.16634H15.5833C16.0894 9.16634 16.5 9.57693 16.5 10.083V14.6663H12.7528C12.5588 14.1176 12.0402 13.7506 11.4583 13.7497C10.6989 13.7497 10.0833 14.3653 10.0833 15.1247C10.0842 15.8453 10.6413 16.4427 11.3599 16.4943C11.3927 16.4979 11.4255 16.4997 11.4583 16.4997H18.3333C19.3416 16.4997 20.1667 15.6746 20.1667 14.6663V12.833C20.1667 11.8247 19.3416 10.9997 18.3333 10.9997V9.16634C18.3333 5.11654 15.0498 1.83301 11 1.83301Z" fill="url(#paint0_linear_131_537)"/>
<defs>
<linearGradient id="paint0_linear_131_537" x1="11.4583" y1="1.83301" x2="11.4583" y2="20.1664" gradientUnits="userSpaceOnUse">
<stop stop-color="#0094FF"/>
<stop offset="1" stop-color="#007BFF"/>
</linearGradient>
</defs>
</svg>
