<svg width="22" height="17" viewBox="0 0 22 17" fill="none" xmlns="http://www.w3.org/2000/svg">
<path d="M10.905 0.709961C9.49479 0.709961 8.1 0.908753 6.71875 1.30688C5.3375 1.70527 4.07217 2.25642 2.92329 2.9614C1.77469 3.66611 0.826772 4.47482 0.0806264 5.38671C0.0223972 5.46173 -0.00387364 5.54027 0.000459698 5.62342C0.00452222 5.70657 0.0345847 5.78132 0.0928139 5.84794L1.23736 6.99248C1.31238 7.06696 1.39525 7.10434 1.48733 7.10434C1.57833 7.10434 1.66121 7.06209 1.73623 6.97921C2.92221 5.74313 4.29831 4.79386 5.86563 4.13059C7.43294 3.46704 9.11265 3.135 10.9042 3.135C12.7039 3.135 14.3963 3.46109 15.9802 4.11217C17.5643 4.76325 18.9325 5.71875 20.0855 6.97921C20.1602 7.06209 20.2434 7.10434 20.3344 7.10434C20.4254 7.10434 20.5082 7.06723 20.583 6.99248L21.74 5.84794C21.8058 5.78132 21.8394 5.70657 21.8394 5.62342C21.8394 5.54082 21.8101 5.46173 21.753 5.38671C20.9979 4.47482 20.0438 3.66665 18.8911 2.9614C17.7381 2.25642 16.4766 1.70527 15.1038 1.30688C13.7314 0.909294 12.3315 0.709961 10.905 0.709961ZM10.9042 6.39421C9.97552 6.39421 9.06986 6.51907 8.1864 6.76796C7.30348 7.01713 6.49721 7.36054 5.76704 7.79984C5.03715 8.23994 4.43102 8.75398 3.95002 9.3425C3.89179 9.40913 3.86661 9.48009 3.875 9.55484C3.8834 9.62986 3.91617 9.70461 3.9744 9.77936L5.30609 11.0723C5.37217 11.1471 5.44908 11.182 5.53656 11.1779C5.6235 11.1736 5.70827 11.1268 5.79142 11.0358C6.40513 10.3806 7.17429 9.84977 8.09892 9.44325C9.02354 9.037 9.95873 8.83388 10.9042 8.83388C11.8662 8.83388 12.8082 9.03646 13.7287 9.44325C14.649 9.84923 15.4163 10.3806 16.03 11.0358C16.1126 11.1268 16.1982 11.1736 16.2849 11.1779C16.3723 11.182 16.4528 11.1471 16.5275 11.0723L17.8592 9.77936C17.9169 9.70461 17.9475 9.62986 17.9516 9.55484C17.9556 9.48009 17.9334 9.40913 17.8836 9.3425C17.4026 8.75344 16.7986 8.2394 16.0725 7.79984C15.3472 7.36 14.541 7.01659 13.6534 6.76796C12.7662 6.51907 11.8494 6.39421 10.9042 6.39421ZM10.905 12.092C10.3076 12.092 9.73719 12.2258 9.1939 12.4912C8.65034 12.7564 8.24625 13.0667 7.98111 13.4234C7.93127 13.5066 7.90798 13.5794 7.91204 13.6417C7.91638 13.7043 7.95104 13.7595 8.01767 13.8094L10.307 16.0112C10.4728 16.1689 10.5965 16.275 10.6797 16.3292C10.7628 16.3831 10.8376 16.4104 10.9042 16.4104C10.9784 16.4104 11.0594 16.3831 11.148 16.3292C11.2352 16.275 11.3619 16.1689 11.5277 16.0112L13.8048 13.8094C13.8625 13.7595 13.895 13.7043 13.9031 13.6417C13.9115 13.5794 13.8912 13.5066 13.8414 13.4234C13.5673 13.0667 13.1608 12.7564 12.6216 12.4912C12.0823 12.2253 11.5103 12.092 10.905 12.092Z" fill="#00DC00"/>
</svg>
