<svg width="18" height="18" viewBox="0 0 18 18" fill="none" xmlns="http://www.w3.org/2000/svg">
<path d="M7.49985 1.50006C4.19711 1.50006 1.49985 4.19733 1.49985 7.50006C1.49985 10.8028 4.19711 13.5001 7.49985 13.5001C8.81398 13.5001 10.0278 13.0665 11.0184 12.3441L14.884 16.21C15.1193 16.4548 15.4686 16.5534 15.797 16.4678C16.1255 16.3822 16.382 16.1257 16.4676 15.7973C16.5532 15.4688 16.4546 15.1195 16.2098 14.8842L12.3439 11.0186C13.0663 10.0281 13.4998 8.81419 13.4998 7.50006C13.4998 4.19733 10.8026 1.50006 7.49985 1.50006ZM7.49985 3.37506C9.78924 3.37506 11.6248 5.21067 11.6248 7.50006C11.6248 9.78945 9.78924 11.6251 7.49985 11.6251C5.21046 11.6251 3.37485 9.78945 3.37485 7.50006C3.37485 5.21067 5.21046 3.37506 7.49985 3.37506Z" fill="#ACACAC"/>
</svg>
