<svg width="27" height="26" viewBox="0 0 27 26" fill="none" xmlns="http://www.w3.org/2000/svg">
<path d="M11.9543 2.16602C11.4356 2.16602 10.9919 2.53277 10.8921 3.04199L10.5303 4.89974C9.64131 5.23581 8.81893 5.70554 8.09707 6.29834L6.31549 5.68473C5.8246 5.51582 5.2847 5.71859 5.0248 6.16716L3.39134 8.99821C3.13249 9.44784 3.22665 10.0184 3.61774 10.3587L5.04596 11.6007C4.97155 12.0571 4.92324 12.5219 4.92324 12.9994C4.92324 13.4768 4.97155 13.9416 5.04596 14.398L3.61774 15.64C3.22665 15.9803 3.13249 16.5509 3.39134 17.0005L5.0248 19.8315C5.28364 20.2812 5.8246 20.4839 6.31549 20.3161L8.09707 19.7025C8.81893 20.2946 9.64166 20.7629 10.5303 21.099L10.8921 22.9567C10.9919 23.4659 11.4356 23.8327 11.9543 23.8327H15.2255C15.7442 23.8327 16.1879 23.4659 16.2877 22.9567L16.6495 21.099C17.5385 20.7629 18.3609 20.2932 19.0827 19.7004L20.8643 20.314C21.3552 20.4829 21.8951 20.2812 22.155 19.8315L23.7885 16.9984C24.0473 16.5487 23.9532 15.9803 23.5621 15.64L22.1338 14.398C22.2083 13.9416 22.2566 13.4768 22.2566 12.9994C22.2566 12.5219 22.2083 12.0571 22.1338 11.6007L23.5621 10.3587C23.9532 10.0184 24.0473 9.44784 23.7885 8.99821L22.155 6.16716C21.8962 5.71753 21.3552 5.51476 20.8643 5.68262L19.0827 6.29622C18.3609 5.70413 17.5381 5.23581 16.6495 4.89974L16.2877 3.04199C16.1879 2.53277 15.7442 2.16602 15.2255 2.16602H11.9543ZM13.5899 8.66602C15.983 8.66602 17.9232 10.6063 17.9232 12.9994C17.9232 15.3924 15.983 17.3327 13.5899 17.3327C11.1968 17.3327 9.25657 15.3924 9.25657 12.9994C9.25657 10.6063 11.1968 8.66602 13.5899 8.66602Z" fill="#ACACAC"/>
</svg>
