<svg width="27" height="27" viewBox="0 0 27 27" fill="none" xmlns="http://www.w3.org/2000/svg">
<path d="M11.9544 2.75586C11.4356 2.75586 10.992 3.12261 10.8922 3.63184L10.5304 5.48958C9.64137 5.82566 8.819 6.29538 8.09713 6.88818L6.31555 6.27458C5.82467 6.10566 5.28476 6.30843 5.02486 6.757L3.3914 9.58805C3.13255 10.0377 3.22671 10.6083 3.6178 10.9486L5.04602 12.1906C4.97161 12.6469 4.9233 13.1117 4.9233 13.5892C4.9233 14.0667 4.97161 14.5315 5.04602 14.9878L3.6178 16.2298C3.22671 16.5701 3.13255 17.1407 3.3914 17.5903L5.02486 20.4214C5.2837 20.871 5.82467 21.0738 6.31555 20.9059L8.09713 20.2923C8.819 20.8844 9.64172 21.3527 10.5304 21.6888L10.8922 23.5466C10.992 24.0558 11.4356 24.4225 11.9544 24.4225H15.2255C15.7443 24.4225 16.1879 24.0558 16.2877 23.5466L16.6495 21.6888C17.5386 21.3527 18.3609 20.883 19.0828 20.2902L20.8644 20.9038C21.3553 21.0727 21.8952 20.871 22.1551 20.4214L23.7885 17.5882C24.0474 17.1386 23.9532 16.5701 23.5621 16.2298L22.1339 14.9878C22.2083 14.5315 22.2566 14.0667 22.2566 13.5892C22.2566 13.1117 22.2083 12.6469 22.1339 12.1906L23.5621 10.9486C23.9532 10.6083 24.0474 10.0377 23.7885 9.58805L22.1551 6.757C21.8962 6.30737 21.3553 6.1046 20.8644 6.27246L19.0828 6.88607C18.3609 6.29397 17.5382 5.82566 16.6495 5.48958L16.2877 3.63184C16.1879 3.12261 15.7443 2.75586 15.2255 2.75586H11.9544ZM13.59 9.25586C15.983 9.25586 17.9233 11.1961 17.9233 13.5892C17.9233 15.9823 15.983 17.9225 13.59 17.9225C11.1969 17.9225 9.25663 15.9823 9.25663 13.5892C9.25663 11.1961 11.1969 9.25586 13.59 9.25586Z" fill="#00DC00"/>
</svg>
