<svg width="22" height="22" viewBox="0 0 22 22" fill="none" xmlns="http://www.w3.org/2000/svg">
<path d="M9.15192 2.73748C8.64644 2.74524 8.24271 3.1612 8.24957 3.66668V10.0833H5.49957V8.37892C5.49957 7.9737 5.01588 7.76184 4.71897 8.03696L2.01194 10.5488C1.77353 10.7873 1.77353 11.1743 2.01194 11.4136L4.71897 13.9255C5.01588 14.2006 5.49957 13.9887 5.49957 13.5835V11.9167H8.24957V18.3333C8.2448 18.664 8.41846 18.9713 8.70403 19.1381C8.98959 19.3046 9.34289 19.3046 9.62845 19.1381C9.91401 18.9713 10.0877 18.664 10.0829 18.3333V3.66668C10.0862 3.41901 9.98921 3.18029 9.81375 3.00514C9.6386 2.83028 9.39958 2.7336 9.15192 2.73748ZM12.8186 2.73748C12.3131 2.74524 11.9094 3.1612 11.9162 3.66668V18.3333C11.9115 18.664 12.0851 18.9713 12.3707 19.1381C12.6563 19.3046 13.0096 19.3046 13.2951 19.1381C13.5807 18.9713 13.7543 18.664 13.7496 18.3333V11.9167H16.4996V13.5835C16.4996 13.9887 16.9833 14.2006 17.2802 13.9255L19.9872 11.4136C20.2256 11.1743 20.2256 10.7873 19.9872 10.5488L17.2802 8.03696C16.9833 7.76184 16.4996 7.9737 16.4996 8.37892V10.0833H13.7496V3.66668C13.7529 3.41901 13.6559 3.18029 13.4804 3.00514C13.3053 2.83028 13.0662 2.7336 12.8186 2.73748Z" fill="url(#paint0_linear_131_517)"/>
<defs>
<linearGradient id="paint0_linear_131_517" x1="10.9996" y1="2.73737" x2="10.9996" y2="19.263" gradientUnits="userSpaceOnUse">
<stop stop-color="#0094FF"/>
<stop offset="1" stop-color="#007BFF"/>
</linearGradient>
</defs>
</svg>
