<svg width="20" height="20" viewBox="0 0 20 20" fill="none" xmlns="http://www.w3.org/2000/svg">
<path d="M10.8333 18.3333C11.2934 18.3333 11.6666 17.96 11.6666 17.5V10.8333H14.5833C14.8133 10.8333 15 10.6467 15 10.4166C15 10.3062 14.956 10.2002 14.8779 10.1221C14.8695 10.1136 14.8608 10.1055 14.8518 10.0976L10.5973 6.08559L10.5696 6.05955C10.4153 5.91442 10.2118 5.83358 9.99996 5.83331C9.7881 5.83358 9.58465 5.91442 9.4303 6.05955L9.4189 6.06932C9.41619 6.07257 9.41348 6.07583 9.41077 6.07908L5.15784 10.0895C5.14943 10.0968 5.14129 10.1044 5.13342 10.1123L5.12691 10.1172C5.12528 10.1188 5.12366 10.1204 5.12203 10.1221C5.0439 10.2002 4.99996 10.3062 4.99996 10.4166C4.99996 10.6467 5.18659 10.8333 5.41663 10.8333H8.33329L8.33329 17.5C8.33329 17.96 8.70656 18.3333 9.16663 18.3333H10.8333ZM17.5 3.33331C17.8005 3.33765 18.0799 3.17978 18.2316 2.92017C18.3829 2.66057 18.3829 2.33939 18.2316 2.07979C18.0799 1.82018 17.8005 1.66231 17.5 1.66665L2.49996 1.66665C2.19939 1.66231 1.91999 1.82018 1.76835 2.07979C1.61698 2.33939 1.61698 2.66057 1.76835 2.92017C1.91999 3.17978 2.19939 3.33765 2.49996 3.33331L17.5 3.33331Z" fill="#00A3FF"/>
</svg>
