<svg width="18" height="18" viewBox="0 0 18 18" fill="none" xmlns="http://www.w3.org/2000/svg">
<path d="M9.00019 3.95996C4.79175 3.95996 1.44019 7.57796 1.44019 8.99996C1.44019 10.422 4.79175 14.04 9.00019 14.04C13.2086 14.04 16.5602 10.422 16.5602 8.99996C16.5602 7.57796 13.2086 3.95996 9.00019 3.95996ZM9.00019 5.75996C10.7893 5.75996 12.2402 7.21084 12.2402 8.99996C12.2402 10.7891 10.7893 12.24 9.00019 12.24C7.21106 12.24 5.76019 10.7891 5.76019 8.99996C5.76019 7.21084 7.21106 5.75996 9.00019 5.75996ZM9.00019 7.91996C8.40262 7.91996 7.92019 8.4024 7.92019 8.99996C7.92019 9.59752 8.40262 10.08 9.00019 10.08C9.59775 10.08 10.0802 9.59752 10.0802 8.99996C10.0802 8.4024 9.59775 7.91996 9.00019 7.91996Z" fill="#ACACAC"/>
</svg>
